<svg xmlns="http://www.w3.org/2000/svg" width="135.056" height="73" viewBox="0 0 135.056 73">
  <g id="Grupo_88758" data-name="Grupo 88758" transform="translate(-591.5 -2495)">
    <text id="_02" data-name="02" transform="translate(591.5 2553)" fill="#53bced" font-size="55" font-family="Roboto-Bold, Roboto" font-weight="700"><tspan x="0" y="0">02</tspan></text>
    <g id="motivacion" transform="translate(642.691 2502)">
      <g id="Grupo_88532" data-name="Grupo 88532" transform="translate(38.809 0.802)">
        <g id="Grupo_88529" data-name="Grupo 88529" transform="translate(4.417 19.696)">
          <g id="XMLID_1_">
            <g id="Grupo_88528" data-name="Grupo 88528">
              <path id="Trazado_128135" data-name="Trazado 128135" d="M112.5,204.378a2.61,2.61,0,0,1-1.846,4.456,2.611,2.611,0,0,1,0,5.222,2.611,2.611,0,0,1,0,5.221,2.611,2.611,0,0,1,0,5.222h-12.4a12.5,12.5,0,0,1-6.728-1.965l-.111-.07-11.126-.046V204.7H91.217l6.684-5.744a5.372,5.372,0,0,0,1.669-2.612l.758-2.674a1.648,1.648,0,0,1,3.111-.177l.081.195a11.614,11.614,0,0,1,.5,7.308l-.538,2.086a.424.424,0,0,0,.41.529h6.766a2.6,2.6,0,0,1,1.846.765Z" transform="translate(-80.289 -192.473)" fill="#ffe0d1"/>
            </g>
          </g>
        </g>
        <g id="Grupo_88531" data-name="Grupo 88531">
          <path id="Trazado_128136" data-name="Trazado 128136" d="M110.24,19.458h6.674a.556.556,0,0,0,.374-.967l-11.652-10.6a1.4,1.4,0,0,0-1.879,0l-11.652,10.6a.556.556,0,0,0,.374.967h6.674v12.3a.966.966,0,0,0,.966.966h10.067Z" transform="translate(-86.267 -7.529)" fill="#fbe88c"/>
          <g id="Grupo_88530" data-name="Grupo 88530" transform="translate(33.54 15.165)">
            <path id="Trazado_128137" data-name="Trazado 128137" d="M361.56,161.9v-4.751a.588.588,0,0,1,.588-.588h1.732a.588.588,0,0,0,.443-.975l-4.769-5.464a.588.588,0,0,0-.886,0L353.9,155.59a.588.588,0,0,0,.443.975h1.732a.588.588,0,0,1,.588.588V161.9a.844.844,0,0,0,.844.844h3.21A.844.844,0,0,0,361.56,161.9Z" transform="translate(-353.753 -149.925)" fill="#fbe88c"/>
          </g>
          <path id="Trazado_128138" data-name="Trazado 128138" d="M112.969,323.284a2.609,2.609,0,0,1-2.309,1.39h-12.4c-1.949,0-5.281-1.36-6.433-1.856a2.218,2.218,0,0,0-.869-.181,1.017,1.017,0,0,1-1.013-1.017V308.43a4.5,4.5,0,0,0-.14-1.118H80.29v17.715l11.126.046.111.07a12.5,12.5,0,0,0,6.728,1.965h12.34a2.651,2.651,0,0,0,2.672-2.558A2.6,2.6,0,0,0,112.969,323.284Z" transform="translate(-75.872 -275.386)" fill="#ffd1c2"/>
          <path id="Trazado_128139" data-name="Trazado 128139" d="M48.372,311.818a2.909,2.909,0,0,0,2.909-2.909V293.4a2.909,2.909,0,0,0-2.909-2.909H39.951a1.142,1.142,0,0,0-1.142,1.142v19.045a1.142,1.142,0,0,0,1.142,1.142h8.421Z" transform="translate(-38.809 -260.356)" fill="#a59ca6"/>
          <path id="Trazado_128140" data-name="Trazado 128140" d="M48.478,290.515c0,.042,0,15.635,0,15.635a2.909,2.909,0,0,1-2.909,2.909H38.809V310.7a1.142,1.142,0,0,0,1.142,1.142h8.421a2.909,2.909,0,0,0,2.909-2.909V293.422A2.909,2.909,0,0,0,48.478,290.515Z" transform="translate(-38.809 -260.378)" fill="#8f8390"/>
        </g>
      </g>
      <g id="Grupo_88533" data-name="Grupo 88533" transform="translate(42.427 0)">
        <path id="Trazado_128141" data-name="Trazado 128141" d="M358.211,148.364l-4.769-5.464a1.387,1.387,0,0,0-2.09,0l-4.769,5.464a1.387,1.387,0,0,0,1.045,2.3h1.521v5.384a.8.8,0,1,0,1.6,0v-5.595a1.388,1.388,0,0,0-1.387-1.387h-1.268l4.305-4.932,4.305,4.932h-1.268a1.388,1.388,0,0,0-1.387,1.387v5.595a.8.8,0,1,0,1.6,0v-5.384h1.521a1.387,1.387,0,0,0,1.045-2.3Z" transform="translate(-317.118 -127.258)"/>
        <path id="Trazado_128142" data-name="Trazado 128142" d="M107.362,292.987a3.413,3.413,0,0,0-3.409-3.409h-.909a.8.8,0,1,0,0,1.6h.909a1.812,1.812,0,0,1,0,3.624.8.8,0,1,0,0,1.6,1.812,1.812,0,1,1,0,3.624.8.8,0,0,0,0,1.6,1.812,1.812,0,0,1,0,3.624.8.8,0,1,0,0,1.6,1.812,1.812,0,1,1,0,3.624H91.55a11.686,11.686,0,0,1-6.3-1.84l-.11-.07a.8.8,0,0,0-.429-.125H82.422c.01-.11.016-.222.016-.335v-2.632a.8.8,0,0,0-1.6,0v2.632A2.113,2.113,0,0,1,78.73,310.2H73.585a.8.8,0,0,0,0,1.6H78.73a3.709,3.709,0,0,0,3.163-1.776h2.585a13.279,13.279,0,0,0,7.071,2.035h12.4a3.408,3.408,0,0,0,2.191-6.02,3.405,3.405,0,0,0,0-5.222,3.406,3.406,0,0,0,0-5.222,3.4,3.4,0,0,0,1.219-2.611Z" transform="translate(-72.786 -258.738)"/>
        <path id="Trazado_128143" data-name="Trazado 128143" d="M85.778,13.53h5.875v3.563a.8.8,0,1,0,1.6,0V12.731a.8.8,0,0,0-.8-.8H86.405L97.593,1.756a.6.6,0,0,1,.8,0l11.187,10.176h-6.046a.8.8,0,0,0-.8.8v4.647a.8.8,0,0,0,1.6,0V13.53h5.875a1.355,1.355,0,0,0,.911-2.357L99.472.575a2.186,2.186,0,0,0-2.954,0l-11.651,10.6a1.355,1.355,0,0,0,.911,2.357Z" transform="translate(-83.183 0)"/>
        <path id="Trazado_128144" data-name="Trazado 128144" d="M153.122,184.969a.8.8,0,0,0-.8.8v5.5a.8.8,0,0,0,1.6,0v-5.5A.8.8,0,0,0,153.122,184.969Z" transform="translate(-143.853 -165.27)"/>
        <path id="Trazado_128145" data-name="Trazado 128145" d="M73.585,197.006H78.73a2.113,2.113,0,0,1,2.111,2.111v9.474a.8.8,0,0,0,1.6,0s-.006-9.688-.015-9.793h2.089a.8.8,0,0,0,.521-.193l6.684-5.744a6.159,6.159,0,0,0,1.917-3l.758-2.675a.85.85,0,0,1,1.6-.091l.08.195a10.812,10.812,0,0,1,.466,6.806L96,196.18a1.222,1.222,0,0,0,1.183,1.527h2.452a.8.8,0,1,0,0-1.6H97.671l.417-1.616a12.409,12.409,0,0,0-.535-7.811l-.08-.195a2.447,2.447,0,0,0-4.619.261l-.758,2.675a4.567,4.567,0,0,1-1.421,2.224L84.216,197.2H81.9a3.709,3.709,0,0,0-3.173-1.791H73.585a.8.8,0,1,0,0,1.6Z" transform="translate(-72.786 -165.271)"/>
      </g>
    </g>
  </g>
</svg>
