<svg xmlns="http://www.w3.org/2000/svg" width="137.977" height="73" viewBox="0 0 137.977 73">
  <g id="Grupo_88757" data-name="Grupo 88757" transform="translate(-329 -2495)">
    <text id="_01" data-name="01" transform="translate(329 2553)" fill="#db6e5f" font-size="55" font-family="Roboto-Bold, Roboto" font-weight="700"><tspan x="0" y="0">01</tspan></text>
    <g id="fecha-limite" transform="translate(408 2474.646)">
      <path id="Trazado_128124" data-name="Trazado 128124" d="M32.977,134.159,7.488,139.242v26.693a3.215,3.215,0,0,0,3.215,3.215H55.251a3.215,3.215,0,0,0,3.215-3.215V139.242Z" transform="translate(-6.625 -88.354)" fill="#ccc"/>
      <path id="Trazado_128125" data-name="Trazado 128125" d="M55.251,90.035H10.7A3.215,3.215,0,0,0,7.488,93.25v6.95H58.466V93.25A3.215,3.215,0,0,0,55.251,90.035Z" transform="translate(-6.625 -49.312)" fill="#ee534f"/>
      <path id="Trazado_128126" data-name="Trazado 128126" d="M254.39,202.972a17.108,17.108,0,0,0-13.921,27.064h18.1a3.215,3.215,0,0,0,3.215-3.215V204.652A17.015,17.015,0,0,0,254.39,202.972Z" transform="translate(-209.943 -149.24)" opacity="0.1"/>
      <circle id="Elipse_4352" data-name="Elipse 4352" cx="13.666" cy="13.666" r="13.666" transform="translate(30.782 57.182)" fill="#4fc2f8"/>
      <circle id="Elipse_4353" data-name="Elipse 4353" cx="9.844" cy="9.844" r="9.844" transform="translate(34.605 61.005)" fill="#fff"/>
      <path id="Trazado_128127" data-name="Trazado 128127" d="M302.715,275.954a9.843,9.843,0,0,1,8.693-9.774,9.95,9.95,0,0,0-1.15-.069,9.843,9.843,0,1,0,1.15,19.618A9.843,9.843,0,0,1,302.715,275.954Z" transform="translate(-265.811 -205.106)" opacity="0.1"/>
      <g id="Grupo_88527" data-name="Grupo 88527" transform="translate(6.791 35.166)">
        <path id="Trazado_128128" data-name="Trazado 128128" d="M61.529,41.791a2.572,2.572,0,0,0-2.572,2.572v5.97a2.572,2.572,0,1,0,5.144,0v-5.97A2.572,2.572,0,0,0,61.529,41.791Z" transform="translate(-58.957 -41.791)" fill="#666"/>
        <path id="Trazado_128129" data-name="Trazado 128129" d="M159.852,41.791a2.572,2.572,0,0,0-2.572,2.572v5.97a2.572,2.572,0,1,0,5.144,0v-5.97A2.572,2.572,0,0,0,159.852,41.791Z" transform="translate(-145.954 -41.791)" fill="#666"/>
        <path id="Trazado_128130" data-name="Trazado 128130" d="M258.174,41.791a2.572,2.572,0,0,0-2.572,2.572v5.97a2.572,2.572,0,1,0,5.144,0v-5.97A2.572,2.572,0,0,0,258.174,41.791Z" transform="translate(-232.951 -41.791)" fill="#666"/>
        <path id="Trazado_128131" data-name="Trazado 128131" d="M356.5,41.791a2.572,2.572,0,0,0-2.572,2.572v5.97a2.572,2.572,0,1,0,5.144,0v-5.97A2.572,2.572,0,0,0,356.5,41.791Z" transform="translate(-319.947 -41.791)" fill="#666"/>
      </g>
      <path id="Trazado_128132" data-name="Trazado 128132" d="M295.757,263.366a.863.863,0,0,0-1.189.271,10.717,10.717,0,1,0,2.469-2.736.862.862,0,0,0,1.064,1.358,8.889,8.889,0,0,1,5.532-1.909,8.984,8.984,0,1,1-7.6,4.206A.862.862,0,0,0,295.757,263.366Z" transform="translate(-259.185 -198.482)"/>
      <path id="Trazado_128133" data-name="Trazado 128133" d="M379.244,296.52a.863.863,0,0,0-.863.863v6.765a.863.863,0,0,0,.863.863h6.765a.863.863,0,1,0,0-1.725h-5.9v-5.9A.863.863,0,0,0,379.244,296.52Z" transform="translate(-334.796 -232.013)"/>
      <path id="Trazado_128134" data-name="Trazado 128134" d="M52.7,58.9V43.938a4.082,4.082,0,0,0-4.078-4.077H46.775V37.737a3.434,3.434,0,0,0-6.869,0V39.86H35.449V37.737a3.434,3.434,0,0,0-6.869,0V39.86H24.124V37.737a3.434,3.434,0,0,0-6.869,0V39.86H12.8V37.737a3.435,3.435,0,0,0-6.87,0V39.86H4.077A4.082,4.082,0,0,0,0,43.938v.426a.863.863,0,0,0,1.725,0v-.426a2.355,2.355,0,0,1,2.352-2.352H5.929v2.123a3.434,3.434,0,1,0,6.869,0V41.585h4.457v2.123a3.434,3.434,0,1,0,6.869,0V41.585H28.58v2.123a3.434,3.434,0,1,0,6.869,0V41.585h4.457v2.123a3.434,3.434,0,1,0,6.869,0V41.585h1.851a2.355,2.355,0,0,1,2.352,2.352v6.088H1.725V47.813a.863.863,0,1,0-1.725,0V77.581a4.082,4.082,0,0,0,4.077,4.078H34.752a14.513,14.513,0,0,0,18.272.917A.863.863,0,0,0,52,81.184a12.8,12.8,0,1,1-3.786-22.573l.072.023A12.8,12.8,0,0,1,54.354,78.96a.863.863,0,1,0,1.334,1.094A14.521,14.521,0,0,0,52.7,58.9ZM7.654,37.737a1.709,1.709,0,0,1,3.419,0v5.97a1.709,1.709,0,0,1-3.419,0Zm11.326,0a1.709,1.709,0,0,1,3.419,0v5.97a1.709,1.709,0,0,1-3.419,0Zm11.326,0a1.709,1.709,0,0,1,3.419,0v5.97a1.709,1.709,0,0,1-3.419,0Zm11.326,0a1.709,1.709,0,0,1,3.419,0v5.97a1.709,1.709,0,0,1-3.419,0ZM34.8,59.995H32.312V51.75h8.47v5.038A14.512,14.512,0,0,0,34.8,59.995Zm-4.854,9.969h-7.83V61.72h8.471v4.771A14.448,14.448,0,0,0,29.947,69.964Zm-18.026,0V61.72h8.47v8.244Zm8.471,1.725v8.244h-8.47V71.689ZM1.725,61.72H10.2v8.244H1.725Zm18.666-1.725h-8.47V51.75h8.47Zm1.725-8.244h8.471v8.244H22.116V51.75Zm10.2,9.969h.842q-.448.553-.842,1.15ZM10.2,51.75v8.244H1.725V51.75ZM1.725,77.581V71.689H10.2v8.244H4.077A2.355,2.355,0,0,1,1.725,77.581Zm20.391,2.353V71.689h7.827a14.337,14.337,0,0,0,3.163,8.244ZM42.508,56.449v-4.7h8.471v6.116a14.446,14.446,0,0,0-2.531-.988l-.056-.016a14.554,14.554,0,0,0-5.884-.414Z"/>
    </g>
  </g>
</svg>
