<svg xmlns="http://www.w3.org/2000/svg" width="131.019" height="73" viewBox="0 0 131.019 73">
  <g id="Grupo_88760" data-name="Grupo 88760" transform="translate(-1090 -2495)">
    <text id="_04" data-name="04" transform="translate(1090 2553)" fill="#53bced" font-size="55" font-family="Roboto-Bold, Roboto" font-weight="700"><tspan x="0" y="0">04</tspan></text>
    <g id="_x38_1_Features" transform="translate(1149.838 2501.936)">
      <g id="Grupo_88535" data-name="Grupo 88535" transform="translate(25.162 0.064)">
        <path id="Trazado_128146" data-name="Trazado 128146" d="M45.074,17.849l.5,2.9a1.261,1.261,0,0,1-1.83,1.328l-2.6-1.371a1.261,1.261,0,0,0-1.175,0l-2.61,1.374a1.261,1.261,0,0,1-1.83-1.329l.5-2.9a1.26,1.26,0,0,0-.363-1.116l-2.113-2.06a1.261,1.261,0,0,1,.7-2.15l2.916-.422a1.261,1.261,0,0,0,.95-.689l1.309-2.649a1.261,1.261,0,0,1,2.261,0l1.3,2.646a1.261,1.261,0,0,0,.95.691l2.915.422a1.261,1.261,0,0,1,.7,2.15l-2.113,2.06a1.26,1.26,0,0,0-.363,1.116Z" transform="translate(-32.368 -7.264)" fill="#ffcd7e"/>
        <path id="Trazado_128147" data-name="Trazado 128147" d="M45.074,194.722l.5,2.9a1.261,1.261,0,0,1-1.83,1.328l-2.6-1.371a1.261,1.261,0,0,0-1.175,0l-2.61,1.374a1.261,1.261,0,0,1-1.83-1.329l.5-2.9a1.26,1.26,0,0,0-.363-1.116l-2.113-2.06a1.261,1.261,0,0,1,.7-2.15l2.916-.422a1.261,1.261,0,0,0,.95-.689l1.309-2.649a1.261,1.261,0,0,1,2.261,0l1.3,2.646a1.261,1.261,0,0,0,.95.691l2.915.422a1.261,1.261,0,0,1,.7,2.15l-2.113,2.06A1.261,1.261,0,0,0,45.074,194.722Z" transform="translate(-32.368 -166.507)" fill="#ff787d"/>
        <path id="Trazado_128148" data-name="Trazado 128148" d="M45.074,371.6l.5,2.9a1.261,1.261,0,0,1-1.83,1.328l-2.6-1.371a1.26,1.26,0,0,0-1.175,0l-2.61,1.374a1.261,1.261,0,0,1-1.83-1.329l.5-2.9a1.26,1.26,0,0,0-.363-1.116l-2.113-2.06a1.261,1.261,0,0,1,.7-2.15l2.916-.422a1.261,1.261,0,0,0,.95-.689l1.309-2.649a1.261,1.261,0,0,1,2.261,0l1.3,2.646a1.261,1.261,0,0,0,.95.691l2.915.422a1.261,1.261,0,0,1,.7,2.15l-2.113,2.06A1.261,1.261,0,0,0,45.074,371.6Z" transform="translate(-32.368 -325.75)" fill="#43c3ff"/>
        <g id="Grupo_88534" data-name="Grupo 88534" transform="translate(0)">
          <path id="Trazado_128149" data-name="Trazado 128149" d="M39.759,4.535l-2.914-.422a.468.468,0,0,1-.35-.255l-1.3-2.645a2.057,2.057,0,0,0-3.69,0L30.192,3.859a.463.463,0,0,1-.349.253l-2.916.423a2.058,2.058,0,0,0-1.142,3.51L27.9,10.1a.464.464,0,0,1,.134.41l-.5,2.9a2.059,2.059,0,0,0,2.987,2.169l2.61-1.374a.463.463,0,0,1,.432,0l2.6,1.371a2.058,2.058,0,0,0,2.988-2.168l-.5-2.9a.463.463,0,0,1,.134-.41L40.9,8.045a2.057,2.057,0,0,0-1.141-3.509ZM39.788,6.9,37.675,8.962a2.058,2.058,0,0,0-.592,1.822h0l.5,2.9a.463.463,0,0,1-.673.488l-2.6-1.371a2.06,2.06,0,0,0-1.919,0l-2.61,1.374a.464.464,0,0,1-.673-.489l.5-2.9a2.058,2.058,0,0,0-.592-1.821L26.9,6.9a.463.463,0,0,1,.257-.791l2.915-.422a2.058,2.058,0,0,0,1.55-1.125l1.309-2.649a.464.464,0,0,1,.831,0l1.3,2.646A2.058,2.058,0,0,0,36.616,5.69l2.915.422a.463.463,0,0,1,.256.791Z" transform="translate(-25.162 -0.064)" fill="#33226e"/>
          <path id="Trazado_128150" data-name="Trazado 128150" d="M85.383,64.568l-1.958,1.958L83,66.1a.8.8,0,1,0-1.127,1.127l.986.986a.8.8,0,0,0,1.127,0l2.522-2.522a.8.8,0,0,0-1.127-1.127Z" transform="translate(-76.011 -57.928)" fill="#33226e"/>
          <path id="Trazado_128151" data-name="Trazado 128151" d="M221.7,20.316H246.61a.8.8,0,1,0,0-1.594H221.7a.8.8,0,0,0,0,1.594Z" transform="translate(-201.388 -16.862)" fill="#33226e"/>
          <path id="Trazado_128152" data-name="Trazado 128152" d="M246.61,71.122H221.7a.8.8,0,0,0,0,1.594H246.61a.8.8,0,1,0,0-1.594Z" transform="translate(-201.388 -64.039)" fill="#33226e"/>
          <path id="Trazado_128153" data-name="Trazado 128153" d="M221.7,125.115h17.725a.8.8,0,1,0,0-1.594H221.7a.8.8,0,1,0,0,1.594Z" transform="translate(-201.388 -111.215)" fill="#33226e"/>
          <path id="Trazado_128154" data-name="Trazado 128154" d="M39.759,181.408l-2.914-.422a.468.468,0,0,1-.35-.255l-1.3-2.645a2.058,2.058,0,0,0-3.691,0l-1.309,2.649a.463.463,0,0,1-.349.253l-2.916.423a2.058,2.058,0,0,0-1.142,3.51l2.113,2.06a.464.464,0,0,1,.134.41l-.5,2.9a2.059,2.059,0,0,0,2.987,2.169l2.61-1.374a.463.463,0,0,1,.432,0l2.6,1.371a2.058,2.058,0,0,0,2.988-2.168l-.5-2.9a.463.463,0,0,1,.134-.41l2.113-2.06a2.058,2.058,0,0,0-1.141-3.51Zm.028,2.368-2.112,2.059a2.058,2.058,0,0,0-.592,1.822h0l.5,2.9a.463.463,0,0,1-.673.488l-2.6-1.371a2.06,2.06,0,0,0-1.919,0l-2.61,1.374a.463.463,0,0,1-.673-.489l.5-2.9a2.058,2.058,0,0,0-.592-1.821l-2.113-2.06a.463.463,0,0,1,.257-.791l2.915-.422a2.058,2.058,0,0,0,1.55-1.125l1.309-2.649a.463.463,0,0,1,.831,0l1.3,2.646a2.058,2.058,0,0,0,1.552,1.127l2.915.422a.463.463,0,0,1,.256.791Z" transform="translate(-25.162 -159.307)" fill="#33226e"/>
          <path id="Trazado_128155" data-name="Trazado 128155" d="M85.382,241.449l-1.958,1.958L83,242.983a.8.8,0,0,0-1.128,1.127l.986.987a.8.8,0,0,0,1.128,0l2.522-2.522a.8.8,0,1,0-1.127-1.127Z" transform="translate(-76.011 -217.178)" fill="#33226e"/>
          <path id="Trazado_128156" data-name="Trazado 128156" d="M246.61,195.6H221.7a.8.8,0,1,0,0,1.594H246.61a.8.8,0,1,0,0-1.594Z" transform="translate(-201.388 -176.105)" fill="#33226e"/>
          <path id="Trazado_128157" data-name="Trazado 128157" d="M246.61,247.995H221.7a.8.8,0,0,0,0,1.594H246.61a.8.8,0,1,0,0-1.594Z" transform="translate(-201.388 -223.282)" fill="#33226e"/>
          <path id="Trazado_128158" data-name="Trazado 128158" d="M221.7,301.988h17.725a.8.8,0,1,0,0-1.594H221.7a.8.8,0,1,0,0,1.594Z" transform="translate(-201.388 -270.458)" fill="#33226e"/>
          <path id="Trazado_128159" data-name="Trazado 128159" d="M39.758,358.282l-2.914-.422a.468.468,0,0,1-.35-.254l-1.3-2.646a2.058,2.058,0,0,0-3.691,0l-1.309,2.649a.468.468,0,0,1-.349.254l-2.916.422a2.058,2.058,0,0,0-1.142,3.51l2.113,2.06a.464.464,0,0,1,.134.41l-.5,2.9a2.058,2.058,0,0,0,2.987,2.169l2.61-1.374a.46.46,0,0,1,.432,0l2.6,1.371a2.059,2.059,0,0,0,2.988-2.168l-.5-2.9h0a.463.463,0,0,1,.134-.41l2.112-2.06A2.057,2.057,0,0,0,39.758,358.282Zm.028,2.368-2.112,2.059a2.058,2.058,0,0,0-.592,1.822l.5,2.9a.464.464,0,0,1-.673.488l-2.6-1.371a2.055,2.055,0,0,0-1.919,0l-2.61,1.374a.464.464,0,0,1-.673-.489l.5-2.9a2.058,2.058,0,0,0-.592-1.821L26.9,360.65a.463.463,0,0,1,.257-.791l2.917-.422a2.058,2.058,0,0,0,1.549-1.125l1.309-2.649a.463.463,0,0,1,.831,0l1.3,2.647a2.058,2.058,0,0,0,1.551,1.127l2.915.422A.463.463,0,0,1,39.787,360.65Z" transform="translate(-25.162 -318.55)" fill="#33226e"/>
          <path id="Trazado_128160" data-name="Trazado 128160" d="M85.382,418.322l-1.958,1.958L83,419.856a.8.8,0,0,0-1.128,1.127l.986.987a.8.8,0,0,0,1.128,0l2.522-2.522a.8.8,0,0,0-1.127-1.127Z" transform="translate(-76.011 -376.42)" fill="#33226e"/>
          <path id="Trazado_128161" data-name="Trazado 128161" d="M246.61,372.468H221.7a.8.8,0,1,0,0,1.594H246.61a.8.8,0,1,0,0-1.594Z" transform="translate(-201.388 -335.348)" fill="#33226e"/>
          <path id="Trazado_128162" data-name="Trazado 128162" d="M246.61,424.868H221.7a.8.8,0,0,0,0,1.594H246.61a.8.8,0,1,0,0-1.594Z" transform="translate(-201.388 -382.524)" fill="#33226e"/>
          <path id="Trazado_128163" data-name="Trazado 128163" d="M239.422,477.267H221.7a.8.8,0,1,0,0,1.594h17.725a.8.8,0,1,0,0-1.594Z" transform="translate(-201.388 -429.7)" fill="#33226e"/>
        </g>
      </g>
    </g>
  </g>
</svg>
