<svg xmlns="http://www.w3.org/2000/svg" width="140.332" height="73" viewBox="0 0 140.332 73">
  <g id="Grupo_88761" data-name="Grupo 88761" transform="translate(-447 -2745.301)">
    <text id="_05" data-name="05" transform="translate(447 2803.301)" fill="#db6e5f" font-size="55" font-family="Roboto-Bold, Roboto" font-weight="700"><tspan x="0" y="0">05</tspan></text>
    <g id="progreso" transform="translate(481.227 2747.701)">
      <g id="Grupo_88540" data-name="Grupo 88540" transform="translate(60.644 0.636)">
        <path id="Trazado_128164" data-name="Trazado 128164" d="M172.447,5.373a9.382,9.382,0,0,0-9.382,9.383v3.713a2.991,2.991,0,0,1,2.39-.781V17.22a.639.639,0,0,1,.685-.637,16.8,16.8,0,0,0,10.111-2.716.639.639,0,0,1,.817.1c2.386,2.565,2.372,2.466,2.372,2.8v.918a2.839,2.839,0,0,1,2.39.7V14.756A9.383,9.383,0,0,0,172.447,5.373Z" transform="translate(-151.64 -5.373)" fill="#576574"/>
        <g id="Grupo_88536" data-name="Grupo 88536" transform="translate(11.425 0)">
          <path id="Trazado_128165" data-name="Trazado 128165" d="M165.583,14.756a9.382,9.382,0,0,1,8.123-9.3,9.371,9.371,0,0,0-10.642,9.3v3.713a2.991,2.991,0,0,1,2.39-.781V17.22a.634.634,0,0,1,.128-.383Z" transform="translate(-163.065 -5.373)" fill="#3e4b5a"/>
        </g>
        <path id="Trazado_128166" data-name="Trazado 128166" d="M300.123,105.827v5.14c0,.056,0,.111,0,.166a2.706,2.706,0,1,0,0-5.306Z" transform="translate(-272.447 -93.887)" fill="#f2bb88"/>
        <path id="Trazado_128167" data-name="Trazado 128167" d="M160.189,111.07v-5.138a2.85,2.85,0,0,0-3.239,2.651,2.726,2.726,0,0,0,3.243,2.653C160.192,111.181,160.189,111.125,160.189,111.07Z" transform="translate(-146.25 -93.99)" fill="#f2bb88"/>
        <path id="Trazado_128168" data-name="Trazado 128168" d="M302.4,106.425a2.852,2.852,0,0,0-2.275-.6v5.14c0,.056,0,.111,0,.166a2.851,2.851,0,0,0,2.28-.6Z" transform="translate(-272.447 -93.887)" fill="#e3a76f"/>
        <path id="Trazado_128169" data-name="Trazado 128169" d="M160.188,110.639a2.66,2.66,0,0,1-.964-2.055,2.568,2.568,0,0,1,.964-1.971v-.68a2.85,2.85,0,0,0-3.239,2.651,2.726,2.726,0,0,0,3.243,2.653c0-.055,0-.111,0-.166Z" transform="translate(-146.249 -93.991)" fill="#e3a76f"/>
        <path id="Trazado_128170" data-name="Trazado 128170" d="M213.778,197.506a7.238,7.238,0,0,1-3.937-1.112v3.682l3.921,4.839,3.92-4.839V196.29A6.852,6.852,0,0,1,213.778,197.506Z" transform="translate(-192.871 -173.658)" fill="#f2bb88"/>
        <path id="Trazado_128171" data-name="Trazado 128171" d="M212.352,198.149a7.022,7.022,0,0,1-2.511-.983v3.682l2.511,3.1Z" transform="translate(-192.871 -174.43)" fill="#e3a76f"/>
        <g id="Grupo_88537" data-name="Grupo 88537" transform="translate(2.773 26.169)">
          <path id="Trazado_128172" data-name="Trazado 128172" d="M102.075,241.232a2.079,2.079,0,0,1,2.809-.1l8.2,7.044,12.6-13.572c-2.45-2.45-2.436-2.354-2.341-2.584a.269.269,0,0,1,.257-.172h1.149a6.839,6.839,0,0,0-2.26-1.7l-10.372-4.017-3.92,4.839-3.921-4.839-10.361,4.017a6.572,6.572,0,0,0-3.836,5.95v17.085Z" transform="translate(-90.078 -226.131)" fill="#e4eaf8"/>
        </g>
        <path id="Trazado_128173" data-name="Trazado 128173" d="M90.081,261.313V278.4l2.511-2.5V260.183a6.417,6.417,0,0,1,2.939-5.446,8.98,8.98,0,0,0-2.9,1.413A6.352,6.352,0,0,0,90.081,261.313Z" transform="translate(-87.307 -225.177)" fill="#d8dce5"/>
        <path id="Trazado_128174" data-name="Trazado 128174" d="M194.839,74.256a.639.639,0,0,0-.817-.1,16.8,16.8,0,0,1-10.111,2.716.639.639,0,0,0-.685.637v5.605a6.993,6.993,0,0,0,13.985,0V77.057C197.211,76.722,197.226,76.821,194.839,74.256Z" transform="translate(-169.411 -65.911)" fill="#f2d1a5"/>
        <g id="Grupo_88538" data-name="Grupo 88538" transform="translate(13.815 10.959)">
          <path id="Trazado_128175" data-name="Trazado 128175" d="M185.737,104.068V97.84a14.658,14.658,0,0,1-1.826-.014.639.639,0,0,0-.685.637v5.605a7.073,7.073,0,0,0,8.248,6.794A6.9,6.9,0,0,1,185.737,104.068Z" transform="translate(-183.226 -97.824)" fill="#f2bb88"/>
        </g>
        <path id="Trazado_128176" data-name="Trazado 128176" d="M247.649,233.457l2.932-5.876-3.745-1.45-3.92,4.839,3.822,2.715A.618.618,0,0,0,247.649,233.457Z" transform="translate(-222.024 -199.962)" fill="#d8dce5"/>
        <path id="Trazado_128177" data-name="Trazado 128177" d="M181.228,233.457l-2.932-5.876,3.745-1.45,3.92,4.839-3.822,2.715A.618.618,0,0,1,181.228,233.457Z" transform="translate(-165.065 -199.962)" fill="#d8dce5"/>
        <path id="Trazado_128178" data-name="Trazado 128178" d="M222.25,266.958v0l0,0,0,0v0l-2.78,1.974,1.314,1.978h2.937l1.314-1.978Z" transform="translate(-201.354 -235.946)" fill="#ee5253"/>
        <path id="Trazado_128179" data-name="Trazado 128179" d="M223.639,267.945l-1.389-.986v0l0,0,0,0v0l-2.78,1.974,1.314,1.978h2.782l-1.079-1.624a.438.438,0,0,1,.111-.6Z" transform="translate(-201.354 -235.946)" fill="#d83941"/>
        <path id="Trazado_128180" data-name="Trazado 128180" d="M224.766,300.324H221.83l-1.173,6.781,5.959,5.122Z" transform="translate(-202.405 -265.36)" fill="#ff6b6b"/>
        <path id="Trazado_128181" data-name="Trazado 128181" d="M224.611,300.324h-2.782l-1.173,6.781,2.422,2.082Z" transform="translate(-202.404 -265.36)" fill="#ee5253"/>
        <path id="Trazado_128182" data-name="Trazado 128182" d="M110.484,270.828h-7.506a.694.694,0,0,0-.49,1.184l2,2L92.426,287l-7.894-6.784a2.484,2.484,0,0,0-3.372.124L67.415,294.03a2.484,2.484,0,1,0,3.506,3.519l12.118-12.071L91,292.322a2.484,2.484,0,0,0,3.439-.194l13.56-14.6,1.993,1.993a.694.694,0,0,0,1.184-.49v-7.506A.693.693,0,0,0,110.484,270.828Z" transform="translate(-66.684 -239.36)" fill="#54a0ff"/>
        <g id="Grupo_88539" data-name="Grupo 88539" transform="translate(0 31.468)">
          <path id="Trazado_128183" data-name="Trazado 128183" d="M295.9,274.009,283.843,287l.575.445a1.1,1.1,0,0,0,1.483-.122l11.82-12.729a.822.822,0,0,0-.021-1.141l-1.437-1.437a.694.694,0,0,1,.49-1.184h-2.358a.694.694,0,0,0-.49,1.184Z" transform="translate(-258.1 -270.827)" fill="#338def"/>
          <path id="Trazado_128184" data-name="Trazado 128184" d="M69.773,359.356c14.848-14.791,13.866-13.875,14.318-14.119a2.483,2.483,0,0,0-2.93.426L67.415,359.356a2.483,2.483,0,0,0,2.932,3.945A2.484,2.484,0,0,1,69.773,359.356Z" transform="translate(-66.684 -336.154)" fill="#338def"/>
          <path id="Trazado_128185" data-name="Trazado 128185" d="M214.968,395.2l-8.687-7.465a.8.8,0,0,0-1.107.059l-.528.562,7.963,6.844a2.483,2.483,0,0,0,2.8.3A2.475,2.475,0,0,1,214.968,395.2Z" transform="translate(-188.292 -373.702)" fill="#338def"/>
        </g>
      </g>
      <g id="Grupo_88541" data-name="Grupo 88541" transform="translate(59.832 -0.001)">
        <path id="Trazado_128186" data-name="Trazado 128186" d="M67.007,29.986l-.017.007a7.411,7.411,0,0,0-4.384,6.767V52.919l-1.781,1.774a3.373,3.373,0,1,0,4.761,4.779L77.121,47.982,84.46,54.29a3.364,3.364,0,0,0,4.67-.263L102.063,40.1,103.4,41.44a1.584,1.584,0,0,0,2.7-1.119V32.815a1.584,1.584,0,0,0-1.583-1.583H98.11a7.507,7.507,0,0,0-1.894-1.239l-.018-.007L86.4,26.193V23.964a7.775,7.775,0,0,0,2.91-5.041,3.569,3.569,0,0,0,2.464-5.87V10.03A10.265,10.265,0,0,0,83.785.021a.889.889,0,0,0-.392,1.734A8.435,8.435,0,0,1,90,10.03v1.89a3.737,3.737,0,0,0-.609-.115v-.019c0-.731-.123-.728-2.608-3.4h0a1.524,1.524,0,0,0-1.954-.238,15.8,15.8,0,0,1-9.549,2.571A1.529,1.529,0,0,0,73.7,11.828a4.156,4.156,0,0,0-.668.146V10.03a8.435,8.435,0,0,1,6.607-8.274A.889.889,0,1,0,79.243.021,10.265,10.265,0,0,0,71.25,10.03v3.1A3.366,3.366,0,0,0,70.4,15.36a3.553,3.553,0,0,0,1.236,2.7,3.623,3.623,0,0,0,2.079.866,7.867,7.867,0,0,0,3.074,5.165v2.105ZM89.39,13.605a1.786,1.786,0,0,1,0,3.511ZM73.639,17.117a1.761,1.761,0,0,1,0-3.468ZM64.385,36.761a5.637,5.637,0,0,1,3.277-5.121l5.849-2.267,2.568,5.146h0a1.507,1.507,0,0,0,2.221.556l.289-.2.611.919-.773,4.569A3.393,3.393,0,0,0,74.572,41l-3.664,3.65V38.262a.889.889,0,1,0-1.778,0v8.159l-4.745,4.727V36.761Zm33.38-3.75h6.563v6.838l-1.659-1.659a.888.888,0,0,0-1.28.024l-13.56,14.6a1.591,1.591,0,0,1-2.208.124L77.656,46.1a.889.889,0,0,0-1.207.044L64.332,58.213a1.595,1.595,0,1,1-2.251-2.26L75.827,42.26a1.607,1.607,0,0,1,2.165-.08l.489.42,7.4,6.364a.889.889,0,0,0,1.231-.069L99.175,35.908a.889.889,0,0,0-.023-1.234l-1.664-1.664h.276Zm-1.945-1.232a1.632,1.632,0,0,0-.265.431,1.578,1.578,0,0,0,.343,1.725l1.392,1.392-3.213,3.46v-.524a.889.889,0,0,0-1.778,0V40.7l-5.9,6.357-.568-.488L85.1,42.263a.889.889,0,0,0-1.753.3l.372,2.2-3.7-3.177.863-5.1h1.432l.327,1.932a.889.889,0,1,0,1.753-.3L84,35.789l.61-.919.289.205a1.507,1.507,0,0,0,2.221-.556h0l2.568-5.146C96.07,31.843,95.543,31.627,95.819,31.779ZM83.162,33.84l-.572.861H80.61l-.572-.861L81.6,32.73Zm-4.593-7.359V25.068a8.47,8.47,0,0,0,3.045.552,7.839,7.839,0,0,0,3.011-.607v1.474L81.6,30.222Zm9.456,2.247-2.352,4.714-2.788-1.981,2.913-3.6h0ZM75.417,17.844V12.511A17.659,17.659,0,0,0,85.623,9.752c1.147,1.231,1.771,1.881,1.989,2.143,0,6.691,0,5.834,0,6.1a6.1,6.1,0,0,1-12.191-.152ZM77.4,27.867l2.914,3.6-2.785,1.978-2.352-4.714Z" transform="translate(-59.832 0.001)"/>
      </g>
    </g>
  </g>
</svg>
