<svg xmlns="http://www.w3.org/2000/svg" width="160.051" height="91" viewBox="0 0 160.051 91">
  <g id="Grupo_88763" data-name="Grupo 88763" transform="translate(-948 -2745)">
    <text id="_07_" data-name="07
" transform="translate(948 2803)" fill="#db6e5f" font-size="55" font-family="Roboto-Bold, Roboto" font-weight="700"><tspan x="0" y="0">07</tspan><tspan x="0" y="18"></tspan></text>
    <g id="compra-en-linea" transform="translate(1044 2685.398)">
      <g id="Grupo_88558" data-name="Grupo 88558" transform="translate(6.686 76.586)">
        <g id="Grupo_88557" data-name="Grupo 88557" transform="translate(0 0)">
          <g id="XMLID_3_">
            <path id="Trazado_128214" data-name="Trazado 128214" d="M767.953,632.553a2.277,2.277,0,0,1,2.133-2.285,2.251,2.251,0,0,1,2.373,2.247v9.29c0,1.935.16,4.068-.979,5.771a6.478,6.478,0,0,1-4.384,2.834,5.275,5.275,0,0,1-.6.05l-7.592-.042a6.133,6.133,0,0,1-4.278-2.232,23.48,23.48,0,0,1-2.678-4.64l-2.83-5.436c-.183-.35-.362-.7-.545-1.051a3.185,3.185,0,0,1-.507-2.266,2.057,2.057,0,0,1,1.158-1.482,2.478,2.478,0,0,1,1.329-.129,4.014,4.014,0,0,1,1.935,1.032,9.742,9.742,0,0,1,1.5,1.741c.164.24.316.484.457.739V621.4a2.277,2.277,0,0,1,2.133-2.285,2.251,2.251,0,0,1,2.373,2.247v9.222a2.251,2.251,0,1,1,4.5,0v.644a2.251,2.251,0,1,1,4.5,0Z" transform="translate(-720.427 -599.109)" fill="#ffe5c0"/>
            <path id="Trazado_128215" data-name="Trazado 128215" d="M24,93.9v26.729H58.016v-4.434a2.277,2.277,0,0,1,2.133-2.285,2.251,2.251,0,0,1,2.373,2.247v4.468H80.68V93.9Z" transform="translate(-24 -93.9)" fill="#ffe181"/>
          </g>
        </g>
      </g>
      <g id="Grupo_88575" data-name="Grupo 88575" transform="translate(6 75.9)">
        <g id="Grupo_88563" data-name="Grupo 88563" transform="translate(27.575 20.009)">
          <g id="Grupo_88562" data-name="Grupo 88562" transform="translate(0)">
            <g id="Grupo_88559" data-name="Grupo 88559" transform="translate(10.947 9.215)">
              <path id="Trazado_128216" data-name="Trazado 128216" d="M1022.488,849.876a.688.688,0,0,1-.686-.686v-3.154a1.566,1.566,0,0,0-3.131,0,.686.686,0,1,1-1.371,0,2.937,2.937,0,0,1,5.874,0v3.154A.685.685,0,0,1,1022.488,849.876Z" transform="translate(-1017.3 -843.1)"/>
            </g>
            <g id="Grupo_88560" data-name="Grupo 88560" transform="translate(15.449 9.858)">
              <path id="Trazado_128217" data-name="Trazado 128217" d="M1140.688,865.318a.688.688,0,0,1-.686-.686v-1.7a1.566,1.566,0,1,0-3.131,0,.686.686,0,0,1-1.371,0,2.937,2.937,0,0,1,5.874,0v1.7A.685.685,0,0,1,1140.688,865.318Z" transform="translate(-1135.5 -860)"/>
            </g>
            <g id="Grupo_88561" data-name="Grupo 88561">
              <path id="Trazado_128218" data-name="Trazado 128218" d="M749.1,633.911l-7.6-.042h-.038a6.84,6.84,0,0,1-4.758-2.468,17.042,17.042,0,0,1-2.217-3.676c-.179-.362-.362-.739-.549-1.093l-2.834-5.432c-.137-.263-.274-.529-.411-.8l-.133-.259A3.837,3.837,0,0,1,730,617.4a2.745,2.745,0,0,1,1.573-1.962,3.17,3.17,0,0,1,1.7-.164,4.676,4.676,0,0,1,2.274,1.2,9.85,9.85,0,0,1,.811.83V604.165a2.951,2.951,0,0,1,2.781-2.967,2.937,2.937,0,0,1,3.093,2.933v12.8a.686.686,0,1,1-1.371,0V604.127a1.541,1.541,0,0,0-.488-1.135,1.561,1.561,0,0,0-1.162-.427,1.583,1.583,0,0,0-1.482,1.6v15.3a.687.687,0,0,1-1.287.331q-.194-.348-.423-.686a8.932,8.932,0,0,0-1.39-1.619,3.352,3.352,0,0,0-1.6-.865,1.777,1.777,0,0,0-.964.1,1.434,1.434,0,0,0-.739,1.006,2.557,2.557,0,0,0,.449,1.79l.133.259c.137.263.27.526.408.789L735.152,626c.194.369.381.754.564,1.124a15.973,15.973,0,0,0,2.023,3.386,5.487,5.487,0,0,0,3.782,1.992l7.557.042a3.911,3.911,0,0,0,.514-.046,5.766,5.766,0,0,0,3.908-2.537c.9-1.345.88-3.074.865-4.75,0-.21,0-.43,0-.644V615.28a1.541,1.541,0,0,0-.488-1.135,1.561,1.561,0,0,0-1.162-.427,1.583,1.583,0,0,0-1.482,1.6v1.1a.686.686,0,1,1-1.371,0v-1.1a2.951,2.951,0,0,1,2.781-2.967,2.937,2.937,0,0,1,3.093,2.933v9.29c0,.206,0,.423,0,.632.015,1.794.034,3.824-1.1,5.519a7.176,7.176,0,0,1-4.86,3.135,6.713,6.713,0,0,1-.674.057C749.109,633.911,749.1,633.911,749.1,633.911Z" transform="translate(-729.919 -601.194)"/>
            </g>
          </g>
        </g>
        <g id="Grupo_88574" data-name="Grupo 88574" transform="translate(0 0)">
          <g id="Grupo_88564" data-name="Grupo 88564">
            <path id="Trazado_128219" data-name="Trazado 128219" d="M63.366,104H45.2a.686.686,0,0,1,0-1.371H62.68V77.271H7.371v25.357H40.7a.686.686,0,0,1,0,1.371H6.686A.688.688,0,0,1,6,103.314V76.586a.688.688,0,0,1,.686-.686h56.68a.688.688,0,0,1,.686.686v26.729A.684.684,0,0,1,63.366,104Z" transform="translate(-6 -75.9)"/>
          </g>
          <g id="Grupo_88573" data-name="Grupo 88573" transform="translate(11.184 6.986)">
            <g id="Grupo_88568" data-name="Grupo 88568" transform="translate(25.689 0.001)">
              <g id="Grupo_88566" data-name="Grupo 88566">
                <g id="Grupo_88565" data-name="Grupo 88565">
                  <path id="Trazado_128220" data-name="Trazado 128220" d="M979.013,266.785a.687.687,0,0,1-.56-.29l-4.312-6.1a.686.686,0,1,1,1.12-.792l3.752,5.306,3.752-5.306a.686.686,0,1,1,1.12.792l-4.312,6.1A.681.681,0,0,1,979.013,266.785Z" transform="translate(-974.016 -259.316)"/>
                </g>
              </g>
              <g id="Grupo_88567" data-name="Grupo 88567" transform="translate(4.311 6.098)">
                <path id="Trazado_128221" data-name="Trazado 128221" d="M1087.886,427.426a.688.688,0,0,1-.686-.686v-6.655a.686.686,0,0,1,1.371,0v6.655A.685.685,0,0,1,1087.886,427.426Z" transform="translate(-1087.2 -419.4)"/>
              </g>
            </g>
            <g id="Grupo_88571" data-name="Grupo 88571">
              <g id="Grupo_88569" data-name="Grupo 88569">
                <path id="Trazado_128222" data-name="Trazado 128222" d="M305.378,267.048h-5.093a.688.688,0,0,1-.686-.686v-6.376a.688.688,0,0,1,.686-.686h5.093a3.874,3.874,0,0,1,0,7.748Zm-4.407-1.371h4.407a2.5,2.5,0,0,0,0-5.005h-4.407Z" transform="translate(-299.6 -259.3)"/>
              </g>
              <g id="Grupo_88570" data-name="Grupo 88570" transform="translate(0 6.376)">
                <path id="Trazado_128223" data-name="Trazado 128223" d="M305.378,434.448h-5.093a.688.688,0,0,1-.686-.686v-6.377a.688.688,0,0,1,.686-.686h5.093a3.874,3.874,0,0,1,0,7.748Zm-4.407-1.371h4.407a2.5,2.5,0,1,0,0-5.005h-4.407Z" transform="translate(-299.6 -426.7)"/>
              </g>
            </g>
            <g id="Grupo_88572" data-name="Grupo 88572" transform="translate(12.852 0.103)">
              <path id="Trazado_128224" data-name="Trazado 128224" d="M641.819,276.021A4.822,4.822,0,0,1,637,271.2v-8.517a.686.686,0,1,1,1.371,0V271.2a3.447,3.447,0,1,0,6.895,0v-8.517a.686.686,0,0,1,1.371,0V271.2A4.822,4.822,0,0,1,641.819,276.021Z" transform="translate(-637 -262)"/>
            </g>
          </g>
        </g>
      </g>
    </g>
  </g>
</svg>
