<svg xmlns="http://www.w3.org/2000/svg" width="399" height="423" viewBox="0 0 399 423">
  <g id="Grupo_88786" data-name="Grupo 88786" transform="translate(-1021 -3876)">
    <rect id="Rect치ngulo_25830" data-name="Rect치ngulo 25830" width="399" height="423" transform="translate(1021 3876)" fill="#cbeeff"/>
    <text id="Vitrinas_de_precios" data-name="Vitrinas de precios" transform="translate(1221 4082)" fill="#12263f" font-size="24" font-family="Roboto-Medium, Roboto" font-weight="500"><tspan x="-100.436" y="0">Vitrinas de precios</tspan></text>
    <circle id="Elipse_4183" data-name="Elipse 4183" cx="47" cy="47" r="47" transform="translate(1178 3938)" fill="#53bced"/>
    <text id="_6" data-name="6" transform="translate(1214 3999)" fill="#12263f" font-size="40" font-family="Roboto-Bold, Roboto" font-weight="700"><tspan x="0" y="0">6</tspan></text>
    <g id="Grupo_87039" data-name="Grupo 87039">
      <rect id="Rect치ngulo_25833" data-name="Rect치ngulo 25833" width="142" height="142" transform="translate(1151 4114)" fill="none"/>
      <g id="etiqueta-del-precio" transform="translate(1174 4137.941)">
        <path id="Trazado_128678" data-name="Trazado 128678" d="M34.6,65.636,10.031,90.207,52.04,132.215,97.5,86.753l.6-28.61-14-14-28.61.6Zm49.156,5.276a8.785,8.785,0,1,1,0-12.423A8.784,8.784,0,0,1,83.758,70.912Zm0,0" transform="translate(-8.101 -35.649)" fill="#36d28f"/>
        <path id="Trazado_128679" data-name="Trazado 128679" d="M96.914,1.583c-1.967-1.967-5.314-2.1-9.428-.388a34.443,34.443,0,0,0-9.605,6.44c-.169-.169-.335-.34-.506-.506a1.984,1.984,0,0,0-1.411-.57l-28.61.6a1.935,1.935,0,0,0-1.325.565l-9.9,9.9a1.932,1.932,0,0,0,2.732,2.732l9.35-9.349,26.871-.567a36.7,36.7,0,0,0-5.612,7.9A10.712,10.712,0,1,0,80.163,29.05a10.874,10.874,0,0,0-.095-1.414l0-.02a10.709,10.709,0,0,0-6.626-8.51,34.061,34.061,0,0,1,4.444-6L88.058,23.276l-.57,27.01L43.94,93.833,4.663,54.556l23.2-23.2a1.932,1.932,0,0,0-2.732-2.732L.566,53.19a1.93,1.93,0,0,0,0,2.731L42.575,97.93a1.931,1.931,0,0,0,2.732,0L90.769,52.468a1.935,1.935,0,0,0,.565-1.326l.6-28.61a1.934,1.934,0,0,0-.566-1.406l-.511-.511a34.443,34.443,0,0,0,6.44-9.605c1.717-4.113,1.58-7.461-.388-9.428ZM69.446,35.9A6.851,6.851,0,0,1,67.9,22.377c-.769,3.009-.367,5.455,1.2,7.022a5.792,5.792,0,0,0,4.251,1.585,11.273,11.273,0,0,0,2.775-.384,6.855,6.855,0,0,1-6.677,5.3Zm6.425-9.248c-2.224.724-3.551.5-4.043.012-.618-.618-.6-2.143.013-4.038a6.851,6.851,0,0,1,4.03,4.026ZM93.736,9.523a30.35,30.35,0,0,1-5.61,8.359l-7.512-7.512a30.339,30.339,0,0,1,8.359-5.61c2.423-1.011,4.468-1.187,5.208-.446S94.749,7.1,93.736,9.523Zm0,0" transform="translate(0 0)"/>
        <path id="Trazado_128680" data-name="Trazado 128680" d="M145.736,219.1a10.565,10.565,0,0,0-1.516,13.024l-1.909,1.909a1.932,1.932,0,1,0,2.732,2.732l1.782-1.782a10.592,10.592,0,0,0,6.385,2.148c.166,0,.334,0,.5-.012a9.359,9.359,0,0,0,7.3-4,8.952,8.952,0,0,0,1.2-7.872,11.7,11.7,0,0,0-1.98-3.661l7.854-7.854a6.706,6.706,0,0,1-1.394,7.441,1.932,1.932,0,1,0,2.732,2.732,10.569,10.569,0,0,0,1.516-13.025l1.909-1.909a1.932,1.932,0,0,0-2.732-2.732l-1.782,1.782a10.583,10.583,0,0,0-6.886-2.136,9.359,9.359,0,0,0-7.3,4,8.955,8.955,0,0,0-1.2,7.872,11.7,11.7,0,0,0,1.981,3.661l-7.854,7.854a6.7,6.7,0,0,1,1.395-7.44,1.932,1.932,0,0,0-2.732-2.732Zm12.788,7.307a5.117,5.117,0,0,1-.686,4.5,5.524,5.524,0,0,1-4.311,2.354,6.708,6.708,0,0,1-3.93-1.049l7.869-7.869A7.548,7.548,0,0,1,158.524,226.409Zm-1.894-9.816a5.118,5.118,0,0,1,.687-4.5,5.522,5.522,0,0,1,4.31-2.354,6.718,6.718,0,0,1,3.93,1.049l-7.869,7.869A7.551,7.551,0,0,1,156.63,216.594Zm0,0" transform="translate(-114.478 -166.105)"/>
        <path id="Trazado_128681" data-name="Trazado 128681" d="M156.47,119.935a1.93,1.93,0,1,0,.737-2.362A1.95,1.95,0,0,0,156.47,119.935Zm0,0" transform="translate(-126.254 -94.71)"/>
      </g>
    </g>
  </g>
</svg>
