<svg xmlns="http://www.w3.org/2000/svg" width="399" height="423" viewBox="0 0 399 423">
  <g id="Grupo_88785" data-name="Grupo 88785" transform="translate(-601 -3876)">
    <rect id="Rectángulo_25829" data-name="Rectángulo 25829" width="399" height="423" transform="translate(601 3876)" fill="#cbeeff"/>
    <text id="Vitrinas_promocionales" data-name="Vitrinas promocionales" transform="translate(800 4082)" fill="#12263f" font-size="24" font-family="Roboto-Medium, Roboto" font-weight="500"><tspan x="-124.359" y="0">Vitrinas promocionales</tspan></text>
    <circle id="Elipse_4182" data-name="Elipse 4182" cx="47" cy="47" r="47" transform="translate(757 3938)" fill="#53bced"/>
    <text id="_5" data-name="5" transform="translate(793 3999)" fill="#12263f" font-size="40" font-family="Roboto-Bold, Roboto" font-weight="700"><tspan x="0" y="0">5</tspan></text>
    <g id="Grupo_87032" data-name="Grupo 87032">
      <rect id="Rectángulo_25833" data-name="Rectángulo 25833" width="142" height="142" transform="translate(729 4114)" fill="none"/>
      <g id="promociones" transform="translate(746.382 4128.894)">
        <path id="Trazado_128664" data-name="Trazado 128664" d="M84.136,230.588H16.175L20.706,158.1h58.9Z" transform="translate(-6.748 -124.682)" fill="#e8d4b1"/>
        <path id="Trazado_128665" data-name="Trazado 128665" d="M49.131,274.438l-3.377-.375.414-3.727,3.377.375Zm.789-7.1-3.377-.375,1.476-13.284,3.377.375Z" transform="translate(-30.076 -200.059)" fill="#fff"/>
        <g id="Grupo_88754" data-name="Grupo 88754" transform="translate(20.187 38.872)">
          <path id="Trazado_128666" data-name="Trazado 128666" d="M72.184,183.918a5.1,5.1,0,1,0,5.1,5.1A5.1,5.1,0,0,0,72.184,183.918Z" transform="translate(-67.087 -183.918)" fill="#bfae95"/>
          <path id="Trazado_128667" data-name="Trazado 128667" d="M243.678,183.918a5.1,5.1,0,1,0,5.1,5.1A5.1,5.1,0,0,0,243.678,183.918Z" transform="translate(-202.335 -183.918)" fill="#bfae95"/>
        </g>
        <g id="Grupo_88755" data-name="Grupo 88755" transform="translate(21.577 37.944)">
          <circle id="Elipse_4397" data-name="Elipse 4397" cx="3.707" cy="3.707" r="3.707" transform="translate(0)" fill="#ffc853"/>
          <circle id="Elipse_4398" data-name="Elipse 4398" cx="3.707" cy="3.707" r="3.707" transform="translate(36.246)" fill="#ffc853"/>
        </g>
        <path id="Trazado_128668" data-name="Trazado 128668" d="M381.277,264.217c.053-.053.109-.1.163-.155-.09.017-.179.036-.268.054C381.207,264.15,381.243,264.182,381.277,264.217Z" transform="translate(-294.602 -208.252)" fill="#ed593b"/>
        <path id="Trazado_128669" data-name="Trazado 128669" d="M221.718,215.164l-4.3,6.609-8.969-.859-1.151,8.932-8.461,3.106,2.842,8.557-6.26,6.473,6.26,6.474-2.842,8.556,8.461,3.106,1.151,8.932,8.969-.858.914,1.4h7.165Z" transform="translate(-148.107 -169.688)" fill="#bfae95"/>
        <path id="Trazado_128670" data-name="Trazado 128670" d="M281.872,267.4l-5.122,5.3,2.323,6.994-6.919,2.54-.942,7.309-7.335-.7-4.021,6.176-6.3-3.827-6.3,3.827-4.021-6.176-7.335.7-.942-7.31-6.919-2.54,2.323-6.993-5.122-5.3,5.122-5.3-2.323-6.993,6.919-2.54.942-7.309,7.335.7,4.021-6.176,6.3,3.827,6.3-3.827,4.021,6.176,7.335-.7.942,7.309,6.919,2.54L276.75,262.1Z" transform="translate(-171.625 -189.107)" fill="#db6e5f"/>
        <path id="Trazado_128671" data-name="Trazado 128671" d="M281.873,267.4l-5.122-5.3,2.323-6.993-6.919-2.54-.942-7.309-7.335.7-4.021-6.176-6.3,3.827-6.3-3.827-4.021,6.176-7.335-.7-.942,7.309-6.919,2.539,2.323,6.994-5.122,5.3,5.122,5.3-2.323,6.993,6.919,2.54.942,7.309,7.335-.7,4.021,6.176,6.3-3.827,6.3,3.827,4.021-6.176,7.335.7.942-7.309,6.919-2.54-2.323-6.994Zm-8.483,9.55-5.377,1.974-.733,5.687-5.7-.546-3.122,4.8-4.9-2.976-4.9,2.976-3.122-4.8-5.7.546-.733-5.687-5.377-1.974,1.8-5.43-3.984-4.12,3.984-4.12-1.8-5.431,5.377-1.974.733-5.687,5.7.546,3.122-4.8,4.9,2.976,4.9-2.976,3.122,4.8,5.7-.546.733,5.688,5.377,1.974-1.8,5.43,3.984,4.12-3.984,4.12Z" transform="translate(-171.627 -189.108)" fill="#ffc853"/>
        <path id="Trazado_128672" data-name="Trazado 128672" d="M65.626,41.652a5.406,5.406,0,1,0,7.1-5.131v-16.7a16.424,16.424,0,1,1,32.848,0v16.7a5.406,5.406,0,1,0,3.4,0v-16.7a19.822,19.822,0,1,0-39.643,0v16.7A5.414,5.414,0,0,0,65.626,41.652Zm41.652,2.008a2.008,2.008,0,1,1,2.008-2.008A2.01,2.01,0,0,1,107.278,43.66ZM71.032,39.644a2.008,2.008,0,1,1-2.008,2.008A2.01,2.01,0,0,1,71.032,39.644Z" transform="translate(-45.748)"/>
        <rect id="Rectángulo_26134" data-name="Rectángulo 26134" width="27.184" height="3.398" transform="translate(29.815 31.715)"/>
        <path id="Trazado_128673" data-name="Trazado 128673" d="M290.1,165.456l3.391-.216-.966-15.183h-8.391v3.4h5.2Z" transform="translate(-218.074 -118.342)"/>
        <path id="Trazado_128674" data-name="Trazado 128674" d="M15.553,153.455h5.2v-3.4H12.361l-4.743,75.89H63.8v-3.4H11.235Z" transform="translate(0 -118.342)"/>
        <path id="Trazado_128675" data-name="Trazado 128675" d="M275.414,258.79l-5.549-5.738,2.517-7.58-7.5-2.752-1.02-7.918-7.948.761-4.358-6.694-6.826,4.146-6.826-4.146-4.357,6.694L225.6,234.8l-1.02,7.918-7.5,2.752,2.517,7.58-5.549,5.738,5.549,5.738-2.517,7.58,7.5,2.752,1.02,7.918,7.948-.761,4.358,6.694,6.826-4.146,6.826,4.146,4.357-6.694,7.948.761,1.02-7.918,7.5-2.752-2.517-7.58Zm-13.635,13.59-.864,6.7-6.723-.644-3.683,5.658-5.775-3.508-5.775,3.508-3.684-5.658-6.723.644-.864-6.7-6.341-2.327,2.128-6.407-4.7-4.855,4.7-4.855-2.128-6.408,6.341-2.327.864-6.7,6.723.644,3.683-5.658,5.775,3.507,5.775-3.507,3.684,5.658,6.723-.644.864,6.7,6.341,2.327-2.128,6.407,4.7,4.855-4.7,4.855,2.128,6.408Z" transform="translate(-162.804 -180.498)"/>
        <rect id="Rectángulo_26135" data-name="Rectángulo 26135" width="3.398" height="33.638" transform="translate(92.616 65.199) rotate(45)"/>
        <path id="Trazado_128676" data-name="Trazado 128676" d="M308.043,321.028a5.1,5.1,0,1,0-5.1-5.1A5.1,5.1,0,0,0,308.043,321.028Zm0-6.8a1.7,1.7,0,1,1-1.7,1.7A1.7,1.7,0,0,1,308.043,314.232Z" transform="translate(-232.91 -245.138)"/>
        <path id="Trazado_128677" data-name="Trazado 128677" d="M372.354,385.862a5.1,5.1,0,1,0,5.1,5.1A5.1,5.1,0,0,0,372.354,385.862Zm0,6.8a1.7,1.7,0,1,1,1.7-1.7A1.7,1.7,0,0,1,372.354,392.658Z" transform="translate(-283.628 -304.309)"/>
        <rect id="Rectángulo_26136" data-name="Rectángulo 26136" width="3.398" height="3.398" transform="translate(37.755 70.226)"/>
        <rect id="Rectángulo_26137" data-name="Rectángulo 26137" width="3.398" height="3.398" transform="translate(44.551 70.226)"/>
        <rect id="Rectángulo_26138" data-name="Rectángulo 26138" width="3.398" height="3.398" transform="translate(30.959 70.226)"/>
      </g>
    </g>
  </g>
</svg>
