<svg xmlns="http://www.w3.org/2000/svg" width="230" height="229.143" viewBox="0 0 230 229.143">
  <g id="Grupo_88791" data-name="Grupo 88791" transform="translate(-953 -7772.857)">
    <rect id="Rectángulo_26009" data-name="Rectángulo 26009" width="230" height="109" rx="12" transform="translate(953 7870)" fill="#dbbe36"/>
    <text id="Relacionado_con_su_objetivo" data-name="Relacionado 
con su objetivo" transform="translate(1068 7920)" fill="#fff" font-size="20" font-family="Roboto-Black, Roboto" font-weight="800"><tspan x="-58.262" y="0">Relacionado </tspan><tspan x="-68.472" y="27">con su objetivo</tspan></text>
    <g id="objetivo" transform="translate(1010 7772.857)">
      <g id="Grupo_88462" data-name="Grupo 88462">
        <g id="Grupo_88450" data-name="Grupo 88450" transform="translate(2.438 15.209)">
          <g id="Grupo_88449" data-name="Grupo 88449">
            <ellipse id="Elipse_4317" data-name="Elipse 4317" cx="49.609" cy="49.606" rx="49.609" ry="49.606" transform="translate(0 0.099) rotate(-0.057)" fill="#e5ecec"/>
          </g>
        </g>
        <g id="Grupo_88452" data-name="Grupo 88452" transform="translate(14.518 27.27)">
          <g id="Grupo_88451" data-name="Grupo 88451">
            <path id="Trazado_127945" data-name="Trazado 127945" d="M101.259,194.772a37.575,37.575,0,0,1-22.851-67.413q.379-.291.766-.573a37.583,37.583,0,1,1,22.086,67.986Z" transform="translate(-63.67 -119.597)" fill="#f5737f"/>
          </g>
        </g>
        <g id="Grupo_88453" data-name="Grupo 88453" transform="translate(14.518 27.27)">
          <path id="Trazado_127946" data-name="Trazado 127946" d="M88.521,121.818a37.655,37.655,0,1,1-17.635,13.244" transform="translate(-63.67 -119.597)" fill="#f5737f"/>
        </g>
        <g id="Grupo_88456" data-name="Grupo 88456">
          <g id="Grupo_88454" data-name="Grupo 88454">
            <path id="Trazado_127947" data-name="Trazado 127947" fill="#f5737f"/>
          </g>
          <g id="Grupo_88455" data-name="Grupo 88455" transform="translate(27.745 32.184)">
            <path id="Trazado_127948" data-name="Trazado 127948" d="M123.956,145.7a2.279,2.279,0,1,1,2.237-1.833A2.3,2.3,0,0,1,123.956,145.7Z" transform="translate(-121.681 -141.147)"/>
          </g>
        </g>
        <g id="Grupo_88458" data-name="Grupo 88458" transform="translate(26.474 39.223)">
          <g id="Grupo_88457" data-name="Grupo 88457">
            <ellipse id="Elipse_4318" data-name="Elipse 4318" cx="25.568" cy="25.57" rx="25.568" ry="25.57" transform="translate(0 51.137) rotate(-89.885)" fill="#e5ecec"/>
          </g>
        </g>
        <g id="Grupo_88460" data-name="Grupo 88460" transform="translate(69.414 79.006)">
          <g id="Grupo_88459" data-name="Grupo 88459">
            <path id="Trazado_127949" data-name="Trazado 127949" d="M306.706,351.047a2.279,2.279,0,1,1,2.251-1.923,2.3,2.3,0,0,1-2.251,1.923Z" transform="translate(-304.427 -346.494)"/>
          </g>
        </g>
        <g id="Grupo_88461" data-name="Grupo 88461" transform="translate(38.493 51.24)">
          <ellipse id="Elipse_4319" data-name="Elipse 4319" cx="13.549" cy="13.55" rx="13.549" ry="13.55" transform="translate(0 27.099) rotate(-89.771)" fill="#f5737f"/>
        </g>
      </g>
      <g id="Grupo_88466" data-name="Grupo 88466" transform="translate(0.218 0)">
        <g id="Grupo_88463" data-name="Grupo 88463" transform="translate(86.61 2.28)">
          <path id="Trazado_127950" data-name="Trazado 127950" d="M392.753,10l-9.936,9.936a6.9,6.9,0,0,0-2.018,4.63l.225,12.647,12.805-12.825Z" transform="translate(-380.799 -10.001)" fill="#ffcb7c"/>
        </g>
        <g id="Grupo_88465" data-name="Grupo 88465">
          <g id="Grupo_88464" data-name="Grupo 88464" transform="translate(86.835 16.667)">
            <path id="Trazado_127951" data-name="Trazado 127951" d="M408.978,74.173,394.59,73.1,381.785,85.922l12.627.2a6.9,6.9,0,0,0,4.63-2.018Z" transform="translate(-381.785 -73.097)" fill="#ffd89e"/>
          </g>
          <path id="Trazado_127952" data-name="Trazado 127952" d="M117.121,16.951a2.279,2.279,0,0,0-1.968-1.481l-12.431-.93-.93-12.43A2.28,2.28,0,0,0,97.907.668L87.971,10.6a9.154,9.154,0,0,0-2.684,6.159c0,.041,0,.083,0,.124l.135,7.613a51.942,51.942,0,1,0,7.435,7.356l7.524.122h.037l.083,0a9.157,9.157,0,0,0,6.159-2.684l9.936-9.936a2.28,2.28,0,0,0,.525-2.406ZM91.2,13.829l6.421-6.421.628,8.388-8.269,8.282-.128-7.2A4.607,4.607,0,0,1,91.2,13.829ZM52.845,112.184A47.326,47.326,0,1,1,84.423,29.636l-5.281,5.281a39.833,39.833,0,0,0-39.81-7.569,2.28,2.28,0,1,0,1.549,4.289,35.279,35.279,0,0,1,35.03,6.511l-5.29,5.29A27.843,27.843,0,1,0,65.5,89.662,2.28,2.28,0,1,0,63.421,85.6a22.989,22.989,0,0,1-10.576,2.543A23.288,23.288,0,1,1,67.382,46.677L62.062,52a15.85,15.85,0,1,0,3.285,3.164l5.3-5.3a23.265,23.265,0,0,1,4.308,22.322,2.28,2.28,0,0,0,4.328,1.438,27.827,27.827,0,0,0-5.4-26.994l5.282-5.282a35.308,35.308,0,1,1-54.851,2.736,2.28,2.28,0,0,0-3.683-2.69,39.871,39.871,0,1,0,61.76-3.274l5.277-5.277a47.3,47.3,0,0,1-34.823,79.343Zm11.27-47.326a11.279,11.279,0,1,1-5.337-9.577L51.5,62.553a2.28,2.28,0,1,0,3.225,3.225l7.359-7.359A11.205,11.205,0,0,1,64.115,64.858Zm39.321-38.79a4.61,4.61,0,0,1-3.047,1.349l-7.18-.116,4.38-4.38c.049-.049.094-.1.138-.151l3.743-3.749,8.386.627Z" transform="translate(-0.956 -0.001)"/>
        </g>
      </g>
    </g>
    <g id="Grupo_88467" data-name="Grupo 88467">
      <g id="Elipse_4324" data-name="Elipse 4324" transform="translate(1050 7965)" fill="#fff8d8" stroke="#fff" stroke-width="2">
        <circle cx="18.5" cy="18.5" r="18.5" stroke="none"/>
        <circle cx="18.5" cy="18.5" r="17.5" fill="none"/>
      </g>
      <circle id="Elipse_4325" data-name="Elipse 4325" cx="9.5" cy="9.5" r="9.5" transform="translate(1059 7974)" fill="#dbbe36"/>
    </g>
  </g>
</svg>
