<svg xmlns="http://www.w3.org/2000/svg" width="230" height="229.142" viewBox="0 0 230 229.142">
  <g id="Grupo_88789" data-name="Grupo 88789" transform="translate(-417 -7772.858)">
    <rect id="Rectángulo_26007" data-name="Rectángulo 26007" width="230" height="109" rx="12" transform="translate(417 7870)" fill="#db6e5f"/>
    <text id="Relacionado_con_el_tiempo" data-name="Relacionado con el 
tiempo" transform="translate(532 7920)" fill="#fff" font-size="20" font-family="Roboto-Black, Roboto" font-weight="800"><tspan x="-87.886" y="0">Relacionado con el </tspan><tspan x="-31.484" y="27">tiempo</tspan></text>
    <g id="gerente-de-tiempo" transform="translate(500.897 7802.706)">
      <g id="Grupo_88446" data-name="Grupo 88446" transform="translate(-29.897 -29.848)">
        <g id="Grupo_88445" data-name="Grupo 88445" transform="translate(0 0)">
          <circle id="Elipse_4313" data-name="Elipse 4313" cx="50.11" cy="50.11" r="50.11" transform="translate(8.532 8.521)" fill="#ffe27a"/>
          <path id="Trazado_127922" data-name="Trazado 127922" d="M58.111,269.661A50.108,50.108,0,0,1,8.045,221.577C8.018,222.249,8,222.924,8,223.6a50.11,50.11,0,1,0,100.22,0c0-.679-.017-1.354-.044-2.026a50.109,50.109,0,0,1-50.066,48.084Z" transform="translate(0.531 -164.972)" fill="#f9cf58"/>
          <circle id="Elipse_4314" data-name="Elipse 4314" cx="41.465" cy="41.465" r="41.465" transform="translate(0 58.631) rotate(-45)" fill="#f9f6f6"/>
          <path id="Trazado_127923" data-name="Trazado 127923" d="M87.866,261.015a41.465,41.465,0,0,1-41.415-39.438q-.049,1.007-.05,2.026a41.465,41.465,0,1,0,82.929,0q0-1.019-.05-2.026A41.466,41.466,0,0,1,87.866,261.015Z" transform="translate(-29.224 -164.972)" fill="#ecdaec"/>
          <path id="Trazado_127924" data-name="Trazado 127924" d="M125.822,91.708l-25.477,25.477A41.465,41.465,0,1,0,129.665,46.4v36.03" transform="translate(-71.023 -29.235)" fill="#ff4755"/>
          <circle id="Elipse_4315" data-name="Elipse 4315" cx="5.435" cy="5.435" r="5.435" transform="translate(53.207 53.196)" fill="#ffe27a"/>
          <path id="Trazado_127925" data-name="Trazado 127925" d="M211.871,224.986a5.436,5.436,0,0,1-5.043-3.409,5.435,5.435,0,1,0,10.086,0A5.435,5.435,0,0,1,211.871,224.986Z" transform="translate(-153.229 -164.972)" fill="#f9cf58"/>
          <path id="Trazado_127926" data-name="Trazado 127926" d="M129.665,261.015a41.3,41.3,0,0,1-27.223-10.189l-2.1,2.1A41.465,41.465,0,0,0,171.13,223.6q0-1.019-.05-2.026A41.465,41.465,0,0,1,129.665,261.015Z" transform="translate(-71.023 -164.972)" fill="#fc2b3a"/>
        </g>
        <path id="Trazado_127927" data-name="Trazado 127927" d="M290.549,257.611l-5.2-.782a24.273,24.273,0,0,0-3.826-9.234l3.127-4.233a1.862,1.862,0,0,0-.181-2.422l-2.693-2.693a1.862,1.862,0,0,0-2.422-.181l-4.234,3.127a24.274,24.274,0,0,0-9.234-3.826l-.782-5.2a1.862,1.862,0,0,0-1.841-1.585h-3.808a1.862,1.862,0,0,0-1.841,1.585l-.782,5.2a24.272,24.272,0,0,0-9.234,3.826l-4.234-3.127a1.862,1.862,0,0,0-2.422.181l-2.693,2.693a1.861,1.861,0,0,0-.181,2.422l3.127,4.233a24.274,24.274,0,0,0-3.826,9.234l-5.2.782a1.862,1.862,0,0,0-1.585,1.841v3.809a1.862,1.862,0,0,0,1.585,1.841l5.2.782a24.274,24.274,0,0,0,3.826,9.234l-3.127,4.234a1.862,1.862,0,0,0,.181,2.422l2.693,2.694a1.862,1.862,0,0,0,2.422.181l4.234-3.127a24.274,24.274,0,0,0,9.234,3.826l.782,5.2a1.862,1.862,0,0,0,1.841,1.585h3.809a1.862,1.862,0,0,0,1.841-1.585l.782-5.2a24.274,24.274,0,0,0,9.234-3.826l4.234,3.127a1.862,1.862,0,0,0,2.422-.181l2.693-2.693a1.862,1.862,0,0,0,.181-2.422l-3.127-4.234a24.274,24.274,0,0,0,3.826-9.234l5.2-.782a1.862,1.862,0,0,0,1.585-1.841v-3.809a1.862,1.862,0,0,0-1.585-1.841ZM261.355,276.95a15.594,15.594,0,1,1,15.594-15.594A15.594,15.594,0,0,1,261.355,276.95Z" transform="translate(-171.934 -171.947)" fill="#4a80aa"/>
        <circle id="Elipse_4316" data-name="Elipse 4316" cx="15.594" cy="15.594" r="15.594" transform="translate(73.827 73.816)" fill="#ffe27a"/>
        <path id="Trazado_127928" data-name="Trazado 127928" d="M313.62,393.908a15.571,15.571,0,0,0,15.458-17.62,15.59,15.59,0,0,1-30.916,0,15.572,15.572,0,0,0,15.458,17.62Z" transform="translate(-224.2 -284.852)" fill="#407093"/>
        <path id="Trazado_127929" data-name="Trazado 127929" d="M313.619,371.855a15.593,15.593,0,0,1-15.458-13.567,15.594,15.594,0,1,0,30.917,0A15.594,15.594,0,0,1,313.619,371.855Z" transform="translate(-224.199 -270.905)" fill="#f9cf58"/>
      </g>
      <g id="Grupo_88447" data-name="Grupo 88447" transform="translate(-23.166 -23.128)">
        <path id="Trazado_127930" data-name="Trazado 127930" d="M307.909,290.593a17.316,17.316,0,1,0,6.347,33.431,1.692,1.692,0,0,0-1.241-3.148,13.949,13.949,0,1,1,5.006-3.384,1.692,1.692,0,0,0,2.456,2.328,17.316,17.316,0,0,0-12.569-29.227Z" transform="translate(-225.17 -225.17)"/>
        <path id="Trazado_127931" data-name="Trazado 127931" d="M112.241,77.313l-4.053-.609A25.814,25.814,0,0,0,105,69.012l2.436-3.3a3.536,3.536,0,0,0-.346-4.629l-2.7-2.7a3.594,3.594,0,0,0-.921-.665A52.41,52.41,0,0,0,103.8,51.9,51.9,51.9,0,0,0,18.453,12.213,1.692,1.692,0,0,0,20.635,14.8a48.517,48.517,0,0,1,79.781,37.1,49.06,49.06,0,0,1-.366,5.95c-.1.059-.193.122-.287.191l-3.3,2.436q-.966-.6-1.975-1.1a43.613,43.613,0,0,0,.647-7.473,43.041,43.041,0,0,0-7.227-23.94,1.692,1.692,0,0,0-2.816,1.876A39.67,39.67,0,0,1,91.754,51.9a40.268,40.268,0,0,1-.468,6.121,25.931,25.931,0,0,0-2.512-.732l-.609-4.053a3.536,3.536,0,0,0-3.518-3.028H80.831a3.536,3.536,0,0,0-3.518,3.028L76.7,57.289a25.811,25.811,0,0,0-7.692,3.188l-3.3-2.436a3.536,3.536,0,0,0-4.629.346l-2.7,2.7a3.536,3.536,0,0,0-.346,4.629l2.436,3.3A25.808,25.808,0,0,0,57.289,76.7l-4.053.609a3.536,3.536,0,0,0-3.028,3.518v3.816a3.536,3.536,0,0,0,3.028,3.518l4.053.609a25.934,25.934,0,0,0,.732,2.512,40.267,40.267,0,0,1-6.121.468A39.7,39.7,0,0,1,24.955,81.237L48.194,58a7.136,7.136,0,1,0,5.4-13.031V12.084A39.711,39.711,0,0,1,81.068,24.742a1.692,1.692,0,0,0,2.476-2.306A43.238,43.238,0,1,0,51.9,95.138a43.611,43.611,0,0,0,7.473-.647q.508,1.007,1.1,1.975l-2.436,3.3c-.069.093-.132.189-.191.287a49.066,49.066,0,0,1-5.95.366A48.516,48.516,0,0,1,15.924,19.349a1.692,1.692,0,0,0-2.508-2.271A51.9,51.9,0,0,0,51.9,103.8a52.41,52.41,0,0,0,5.822-.328,3.591,3.591,0,0,0,.665.921l2.7,2.7a3.536,3.536,0,0,0,4.629.346l3.3-2.436a25.811,25.811,0,0,0,7.692,3.188l.609,4.053a3.536,3.536,0,0,0,3.518,3.028h3.816a3.536,3.536,0,0,0,3.518-3.028l.609-4.053A25.8,25.8,0,0,0,96.465,105l3.3,2.436a3.536,3.536,0,0,0,4.629-.346l2.7-2.7a3.536,3.536,0,0,0,.346-4.629L105,96.466a25.806,25.806,0,0,0,3.188-7.692l4.053-.609a3.536,3.536,0,0,0,3.028-3.518V80.831a3.535,3.535,0,0,0-3.028-3.518ZM55.654,51.9A3.754,3.754,0,1,1,51.9,48.146,3.758,3.758,0,0,1,55.654,51.9ZM12.084,53.592h6.128a1.692,1.692,0,1,0,0-3.384H12.084A39.7,39.7,0,0,1,22.563,24.955l4.32,4.32a1.692,1.692,0,0,0,2.393-2.393l-4.32-4.32A39.7,39.7,0,0,1,50.208,12.084V44.967A7.133,7.133,0,0,0,45.8,55.6L22.562,78.845A39.7,39.7,0,0,1,12.084,53.592Zm99.8,31.055a.172.172,0,0,1-.148.171l-5.213.784a1.691,1.691,0,0,0-1.411,1.361,22.512,22.512,0,0,1-3.568,8.609,1.692,1.692,0,0,0,.036,1.96l3.133,4.242a.172.172,0,0,1-.017.226l-2.7,2.7a.172.172,0,0,1-.226.017l-4.242-3.133a1.693,1.693,0,0,0-1.96-.036,22.509,22.509,0,0,1-8.609,3.568,1.691,1.691,0,0,0-1.361,1.411l-.784,5.213a.172.172,0,0,1-.171.148H80.832a.172.172,0,0,1-.172-.148l-.783-5.213a1.691,1.691,0,0,0-1.361-1.411,22.515,22.515,0,0,1-8.609-3.568,1.692,1.692,0,0,0-1.96.036L63.7,104.715a.175.175,0,0,1-.225-.017l-2.7-2.7a.173.173,0,0,1-.017-.226L63.9,97.532a1.691,1.691,0,0,0,.036-1.96,22.514,22.514,0,0,1-3.568-8.609A1.691,1.691,0,0,0,58.954,85.6l-5.213-.784a.175.175,0,0,1-.148-.171V80.831a.172.172,0,0,1,.148-.172l5.213-.783a1.691,1.691,0,0,0,1.411-1.361,22.513,22.513,0,0,1,3.568-8.609,1.692,1.692,0,0,0-.036-1.96L60.764,63.7a.174.174,0,0,1,.017-.226l2.7-2.7a.174.174,0,0,1,.226-.017L67.946,63.9a1.692,1.692,0,0,0,1.96.036,22.513,22.513,0,0,1,8.609-3.568,1.692,1.692,0,0,0,1.361-1.411l.783-5.213a.172.172,0,0,1,.172-.148h3.816a.172.172,0,0,1,.171.148l.784,5.213a1.692,1.692,0,0,0,1.361,1.411,22.514,22.514,0,0,1,8.609,3.568,1.691,1.691,0,0,0,1.96-.036l4.242-3.133a.173.173,0,0,1,.226.017l2.7,2.7a.174.174,0,0,1,.017.226l-3.133,4.242a1.692,1.692,0,0,0-.036,1.96,22.512,22.512,0,0,1,3.568,8.609,1.692,1.692,0,0,0,1.411,1.361l5.213.783a.172.172,0,0,1,.148.172v3.816Z" transform="translate(0)"/>
        <path id="Trazado_127932" data-name="Trazado 127932" d="M346.489,343.422l-6.32,6.481-2.743-2.667a1.692,1.692,0,1,0-2.359,2.426l3.954,3.845a1.692,1.692,0,0,0,2.391-.032l7.5-7.69a1.692,1.692,0,0,0-2.422-2.362Z" transform="translate(-259.235 -265.709)"/>
      </g>
    </g>
    <g id="Grupo_88469" data-name="Grupo 88469">
      <g id="Elipse_4320" data-name="Elipse 4320" transform="translate(514 7965)" fill="#ffdad5" stroke="#fff" stroke-width="2">
        <circle cx="18.5" cy="18.5" r="18.5" stroke="none"/>
        <circle cx="18.5" cy="18.5" r="17.5" fill="none"/>
      </g>
      <circle id="Elipse_4321" data-name="Elipse 4321" cx="9.5" cy="9.5" r="9.5" transform="translate(523 7974)" fill="#db6e5f"/>
    </g>
  </g>
</svg>
