<svg xmlns="http://www.w3.org/2000/svg" width="230" height="229.142" viewBox="0 0 230 229.142">
  <g id="Grupo_88790" data-name="Grupo 88790" transform="translate(-690 -7772.858)">
    <rect id="Rectángulo_26008" data-name="Rectángulo 26008" width="230" height="109" rx="12" transform="translate(690 7870)" fill="#53bced"/>
    <text id="De_acuerdo_con_los_materiales" data-name="De acuerdo con los 
materiales" transform="translate(805 7920)" fill="#fff" font-size="20" font-family="Roboto-Black, Roboto" font-weight="800"><tspan x="-88.423" y="0">De acuerdo con los </tspan><tspan x="-47.959" y="27">materiales</tspan></text>
    <g id="material-escolar" transform="translate(711.432 7772.858)">
      <g id="Grupo_88448" data-name="Grupo 88448" transform="translate(46.3 1.732)">
        <path id="Trazado_127933" data-name="Trazado 127933" d="M281.524,73.92h15.264l13.535-37.407a1.216,1.216,0,0,0-.742-1.721l-10.92-3.969a1.253,1.253,0,0,0-1.748.814Z" transform="translate(-228.334 -25.327)" fill="#407093" fill-rule="evenodd"/>
        <path id="Trazado_127934" data-name="Trazado 127934" d="M317.98,80.182h6.814l13.535-37.407a1.216,1.216,0,0,0-.742-1.721l-6.019-2.188a1.215,1.215,0,0,1,.742,1.721Z" transform="translate(-256.34 -31.589)" fill="#365e7d" fill-rule="evenodd"/>
        <path id="Trazado_127935" data-name="Trazado 127935" d="M198.094,56.13h13.069V93.445H198.094Z" transform="translate(-164.241 -44.852)" fill="#fc7070" fill-rule="evenodd"/>
        <path id="Trazado_127936" data-name="Trazado 127936" d="M198.463,18.75,203.575,8.5c.7-1.406,2-1.334,2.668,0l5.118,10.257Z" transform="translate(-164.525 -7.472)" fill="#ffe07d" fill-rule="evenodd"/>
        <path id="Trazado_127937" data-name="Trazado 127937" d="M357.979,255.334H372.04a9.606,9.606,0,0,1,9.574,9.58v18.97a9.6,9.6,0,0,1-9.574,9.574H357.979v-7.182H372.04a2.4,2.4,0,0,0,2.392-2.391v-18.97a2.4,2.4,0,0,0-2.392-2.4H357.979Z" transform="translate(-287.068 -197.884)" fill="#ffc250" fill-rule="evenodd"/>
        <path id="Trazado_127938" data-name="Trazado 127938" d="M62.311,20.783l-2.72-7.491a.86.86,0,0,0-1.1-.513l-5.881,2.142a.85.85,0,0,0-.512,1.1l2.727,7.49Z" transform="translate(-52.041 -11.509)" fill="#b1e4f9" fill-rule="evenodd"/>
        <path id="Trazado_127939" data-name="Trazado 127939" d="M77.767,87.94h8.49L71.525,47.484l-7.491,2.727Z" transform="translate(-61.254 -38.21)" fill="#90d8f9" fill-rule="evenodd"/>
        <path id="Trazado_127940" data-name="Trazado 127940" d="M164.525,272.958a10.806,10.806,0,0,1-10.769,10.776h-38.3a10.8,10.8,0,0,1-10.769-10.776V218.487a1.369,1.369,0,0,1,1.36-1.367h57.119a1.368,1.368,0,0,1,1.36,1.367Z" transform="translate(-92.484 -168.527)" fill="#ffe07d" fill-rule="evenodd"/>
        <path id="Trazado_127941" data-name="Trazado 127941" d="M304.578,272.958a10.806,10.806,0,0,1-10.769,10.776h-6.814a10.808,10.808,0,0,0,10.776-10.776V218.487a1.374,1.374,0,0,0-1.367-1.367h6.814a1.368,1.368,0,0,1,1.36,1.367Z" transform="translate(-232.537 -168.527)" fill="#ffd064" fill-rule="evenodd"/>
        <path id="Trazado_127942" data-name="Trazado 127942" d="M169.176,290.9l1.255-1.261a10.38,10.38,0,1,1,14.679,14.679c-5.565,5.565-10.125,10.2-15.73,15.73a1.253,1.253,0,0,1-1.925,0c-5.217-5.164-10.539-10.539-15.73-15.73A10.38,10.38,0,1,1,166.4,289.643l1.255,1.261A.948.948,0,0,0,169.176,290.9Z" transform="translate(-126.295 -221.916)" fill="#ff9a9f" fill-rule="evenodd"/>
        <path id="Trazado_127943" data-name="Trazado 127943" d="M228.451,287.192a10.374,10.374,0,0,1,10.743,17.136c-5.565,5.565-10.125,10.2-15.73,15.73a1.253,1.253,0,0,1-1.925,0c-.815-.8-1.623-1.61-2.438-2.425,4.54-4.507,8.548-8.568,13.279-13.305a10.368,10.368,0,0,0-3.929-17.136Z" transform="translate(-180.379 -221.923)" fill="#fc7070" fill-rule="evenodd"/>
      </g>
      <path id="Trazado_127944" data-name="Trazado 127944" d="M104.6,31.237a1.734,1.734,0,0,1,3.259,1.183L101.968,48.59h11.571l.67-1.84-3.331-1.215a1.734,1.734,0,0,1,1.183-3.259l3.325,1.209,1.268-3.509-5.815-2.116a1.734,1.734,0,0,1,1.183-3.259l5.815,2.116,1.268-3.509-3.305-1.2a1.734,1.734,0,0,1,1.183-3.259l3.305,1.2,1.268-3.509-5.8-2.109a1.733,1.733,0,1,1,1.183-3.259l5.8,2.109,1.307-3.614-3.377-1.235a1.733,1.733,0,1,1,1.183-3.259l3.371,1.229,1.314-3.627L116.384,8.982l-5.835,16.032a1.734,1.734,0,1,1-3.259-1.183L113.25,7.45A2.969,2.969,0,0,1,117.219,5.6l10.92,3.969a2.932,2.932,0,0,1,1.781,3.942L117.225,48.6a3.1,3.1,0,0,1,2.858,3.095v5.756h11.19a11.329,11.329,0,0,1,11.308,11.315v18.97a11.341,11.341,0,0,1-11.308,11.315h-11.19v7.116a12.541,12.541,0,0,1-12.511,12.51h-38.3a12.541,12.541,0,0,1-12.51-12.51v-23.3a1.738,1.738,0,0,1,3.476,0v23.3a9.064,9.064,0,0,0,9.035,9.035h38.3a9.064,9.064,0,0,0,9.035-9.035v-54.1H60.237V74.991a1.738,1.738,0,0,1-3.476,0v-23.3a3.1,3.1,0,0,1,3.161-3.1q-7.6-20.885-15.2-41.757a2.59,2.59,0,0,1,1.551-3.318l5.756-2.1A2.6,2.6,0,0,1,55.52,3.049l.736,2.011a9.53,9.53,0,0,1,4.935.191,6.739,6.739,0,0,1,4.317,4.225L72.9,29.785a1.737,1.737,0,0,1-3.266,1.183l-7.386-20.31a3.377,3.377,0,0,0-2.155-2.116,5.743,5.743,0,0,0-2.635-.178Q64.781,28.48,72.1,48.59h6.314V35.606a1.738,1.738,0,0,1,3.476,0V48.59h3.069V14.751H81.888V27.735a1.738,1.738,0,0,1-3.476,0V13.2a3.49,3.49,0,0,1,.48-1.386l4.9-9.823a3.095,3.095,0,0,1,5.782,0l4.9,9.81a3.63,3.63,0,0,1,.486,1.4V48.59h3.312ZM88.419,48.59h3.069V14.751H88.419Zm-24.811,0h4.8L55.539,13.227,51.3,14.771ZM50.118,11.512,54.35,9.968l-1.833-5.04L48.279,6.472Zm45.4,79.807a1.733,1.733,0,0,1,2.457,2.444Q94.306,97.45,90.6,101.1a2.967,2.967,0,0,1-4.363-.007c-5.27-5.217-10.493-10.487-15.737-15.73a12.1,12.1,0,0,1,8.568-20.671c4.015,0,6.623,1.6,9.35,4.323,2.733-2.727,5.342-4.323,9.357-4.323a12.122,12.122,0,0,1,8.568,20.671c-1.2,1.209-1.321,1.314-2.812,2.812a1.735,1.735,0,0,1-2.464-2.444c1.2-1.189,2.28-2.293,2.819-2.825A8.642,8.642,0,0,0,91.665,70.687c-.907.913-1.8,2.116-3.2,2.142-1.439.026-2.366-1.222-3.285-2.142A8.642,8.642,0,0,0,72.958,82.908C78.1,88.073,83.241,93.251,88.425,98.383q3.558-3.518,7.09-7.063ZM120.083,68.1V88.389h11.19a.63.63,0,0,0,.46-.2.652.652,0,0,0,.191-.46V68.762a.678.678,0,0,0-.191-.467.651.651,0,0,0-.46-.191Zm11.19-7.182h-11.19v3.706h11.19a4.138,4.138,0,0,1,4.133,4.133v18.97a4.15,4.15,0,0,1-4.133,4.133h-11.19V95.57h11.19a7.863,7.863,0,0,0,7.832-7.838V68.762a7.863,7.863,0,0,0-7.832-7.839ZM86.684,3.975l-3.64,7.3h7.28Z" transform="translate(0 0)"/>
    </g>
    <g id="Grupo_88468" data-name="Grupo 88468">
      <g id="Elipse_4322" data-name="Elipse 4322" transform="translate(787 7965)" fill="#aee0f7" stroke="#fff" stroke-width="2">
        <circle cx="18.5" cy="18.5" r="18.5" stroke="none"/>
        <circle cx="18.5" cy="18.5" r="17.5" fill="none"/>
      </g>
      <circle id="Elipse_4323" data-name="Elipse 4323" cx="9.5" cy="9.5" r="9.5" transform="translate(796 7974)" fill="#53bced"/>
    </g>
  </g>
</svg>
