<svg xmlns="http://www.w3.org/2000/svg" width="766" height="206.143" viewBox="0 0 766 206.143">
  <g id="Grupo_90183" data-name="Grupo 90183" transform="translate(-417 -7772.857)">
    <rect id="Rectángulo_26007" data-name="Rectángulo 26007" width="230" height="109" rx="12" transform="translate(417 7870)" fill="#db6e5f"/>
    <text id="Relacionado_con_el_tiempo" data-name="Relacionado con el 
tiempo" transform="translate(532 7920)" fill="#fff" font-size="20" font-family="Roboto-Black, Roboto" font-weight="800"><tspan x="-87.886" y="0">Relacionado con el </tspan><tspan x="-31.484" y="27">tiempo</tspan></text>
    <rect id="Rectángulo_26008" data-name="Rectángulo 26008" width="230" height="109" rx="12" transform="translate(690 7870)" fill="#cbeeff"/>
    <text id="De_acuerdo_con_los_materiales" data-name="De acuerdo con los 
materiales" transform="translate(805 7920)" fill="#383838" font-size="20" font-family="Roboto-Black, Roboto" font-weight="800"><tspan x="-88.423" y="0">De acuerdo con los </tspan><tspan x="-47.959" y="27">materiales</tspan></text>
    <rect id="Rectángulo_26009" data-name="Rectángulo 26009" width="230" height="109" rx="12" transform="translate(953 7870)" fill="#fff8d8"/>
    <text id="Relacionado_con_su_objetivo" data-name="Relacionado 
con su objetivo" transform="translate(1068 7920)" fill="#383838" font-size="20" font-family="Roboto-Black, Roboto" font-weight="800"><tspan x="-58.262" y="0">Relacionado </tspan><tspan x="-68.472" y="27">con su objetivo</tspan></text>
    <g id="gerente-de-tiempo" transform="translate(500.897 7802.706)">
      <g id="Grupo_88446" data-name="Grupo 88446" transform="translate(-29.897 -29.848)">
        <g id="Grupo_88445" data-name="Grupo 88445" transform="translate(0 0)">
          <circle id="Elipse_4313" data-name="Elipse 4313" cx="50.11" cy="50.11" r="50.11" transform="translate(8.532 8.521)" fill="#ffe27a"/>
          <path id="Trazado_127922" data-name="Trazado 127922" d="M58.111,269.661A50.108,50.108,0,0,1,8.045,221.577C8.018,222.249,8,222.924,8,223.6a50.11,50.11,0,1,0,100.22,0c0-.679-.017-1.354-.044-2.026a50.109,50.109,0,0,1-50.066,48.084Z" transform="translate(0.531 -164.972)" fill="#f9cf58"/>
          <circle id="Elipse_4314" data-name="Elipse 4314" cx="41.465" cy="41.465" r="41.465" transform="translate(0 58.631) rotate(-45)" fill="#f9f6f6"/>
          <path id="Trazado_127923" data-name="Trazado 127923" d="M87.866,261.015a41.465,41.465,0,0,1-41.415-39.438q-.049,1.007-.05,2.026a41.465,41.465,0,1,0,82.929,0q0-1.019-.05-2.026A41.466,41.466,0,0,1,87.866,261.015Z" transform="translate(-29.224 -164.972)" fill="#ecdaec"/>
          <path id="Trazado_127924" data-name="Trazado 127924" d="M125.822,91.708l-25.477,25.477A41.465,41.465,0,1,0,129.665,46.4v36.03" transform="translate(-71.023 -29.235)" fill="#ff4755"/>
          <circle id="Elipse_4315" data-name="Elipse 4315" cx="5.435" cy="5.435" r="5.435" transform="translate(53.207 53.196)" fill="#ffe27a"/>
          <path id="Trazado_127925" data-name="Trazado 127925" d="M211.871,224.986a5.436,5.436,0,0,1-5.043-3.409,5.435,5.435,0,1,0,10.086,0A5.435,5.435,0,0,1,211.871,224.986Z" transform="translate(-153.229 -164.972)" fill="#f9cf58"/>
          <path id="Trazado_127926" data-name="Trazado 127926" d="M129.665,261.015a41.3,41.3,0,0,1-27.223-10.189l-2.1,2.1A41.465,41.465,0,0,0,171.13,223.6q0-1.019-.05-2.026A41.465,41.465,0,0,1,129.665,261.015Z" transform="translate(-71.023 -164.972)" fill="#fc2b3a"/>
        </g>
        <path id="Trazado_127927" data-name="Trazado 127927" d="M290.549,257.611l-5.2-.782a24.273,24.273,0,0,0-3.826-9.234l3.127-4.233a1.862,1.862,0,0,0-.181-2.422l-2.693-2.693a1.862,1.862,0,0,0-2.422-.181l-4.234,3.127a24.274,24.274,0,0,0-9.234-3.826l-.782-5.2a1.862,1.862,0,0,0-1.841-1.585h-3.808a1.862,1.862,0,0,0-1.841,1.585l-.782,5.2a24.272,24.272,0,0,0-9.234,3.826l-4.234-3.127a1.862,1.862,0,0,0-2.422.181l-2.693,2.693a1.861,1.861,0,0,0-.181,2.422l3.127,4.233a24.274,24.274,0,0,0-3.826,9.234l-5.2.782a1.862,1.862,0,0,0-1.585,1.841v3.809a1.862,1.862,0,0,0,1.585,1.841l5.2.782a24.274,24.274,0,0,0,3.826,9.234l-3.127,4.234a1.862,1.862,0,0,0,.181,2.422l2.693,2.694a1.862,1.862,0,0,0,2.422.181l4.234-3.127a24.274,24.274,0,0,0,9.234,3.826l.782,5.2a1.862,1.862,0,0,0,1.841,1.585h3.809a1.862,1.862,0,0,0,1.841-1.585l.782-5.2a24.274,24.274,0,0,0,9.234-3.826l4.234,3.127a1.862,1.862,0,0,0,2.422-.181l2.693-2.693a1.862,1.862,0,0,0,.181-2.422l-3.127-4.234a24.274,24.274,0,0,0,3.826-9.234l5.2-.782a1.862,1.862,0,0,0,1.585-1.841v-3.809a1.862,1.862,0,0,0-1.585-1.841ZM261.355,276.95a15.594,15.594,0,1,1,15.594-15.594A15.594,15.594,0,0,1,261.355,276.95Z" transform="translate(-171.934 -171.947)" fill="#4a80aa"/>
        <circle id="Elipse_4316" data-name="Elipse 4316" cx="15.594" cy="15.594" r="15.594" transform="translate(73.827 73.816)" fill="#ffe27a"/>
        <path id="Trazado_127928" data-name="Trazado 127928" d="M313.62,393.908a15.571,15.571,0,0,0,15.458-17.62,15.59,15.59,0,0,1-30.916,0,15.572,15.572,0,0,0,15.458,17.62Z" transform="translate(-224.2 -284.852)" fill="#407093"/>
        <path id="Trazado_127929" data-name="Trazado 127929" d="M313.619,371.855a15.593,15.593,0,0,1-15.458-13.567,15.594,15.594,0,1,0,30.917,0A15.594,15.594,0,0,1,313.619,371.855Z" transform="translate(-224.199 -270.905)" fill="#f9cf58"/>
      </g>
      <g id="Grupo_88447" data-name="Grupo 88447" transform="translate(-23.166 -23.128)">
        <path id="Trazado_127930" data-name="Trazado 127930" d="M307.909,290.593a17.316,17.316,0,1,0,6.347,33.431,1.692,1.692,0,0,0-1.241-3.148,13.949,13.949,0,1,1,5.006-3.384,1.692,1.692,0,0,0,2.456,2.328,17.316,17.316,0,0,0-12.569-29.227Z" transform="translate(-225.17 -225.17)"/>
        <path id="Trazado_127931" data-name="Trazado 127931" d="M112.241,77.313l-4.053-.609A25.814,25.814,0,0,0,105,69.012l2.436-3.3a3.536,3.536,0,0,0-.346-4.629l-2.7-2.7a3.594,3.594,0,0,0-.921-.665A52.41,52.41,0,0,0,103.8,51.9,51.9,51.9,0,0,0,18.453,12.213,1.692,1.692,0,0,0,20.635,14.8a48.517,48.517,0,0,1,79.781,37.1,49.06,49.06,0,0,1-.366,5.95c-.1.059-.193.122-.287.191l-3.3,2.436q-.966-.6-1.975-1.1a43.613,43.613,0,0,0,.647-7.473,43.041,43.041,0,0,0-7.227-23.94,1.692,1.692,0,0,0-2.816,1.876A39.67,39.67,0,0,1,91.754,51.9a40.268,40.268,0,0,1-.468,6.121,25.931,25.931,0,0,0-2.512-.732l-.609-4.053a3.536,3.536,0,0,0-3.518-3.028H80.831a3.536,3.536,0,0,0-3.518,3.028L76.7,57.289a25.811,25.811,0,0,0-7.692,3.188l-3.3-2.436a3.536,3.536,0,0,0-4.629.346l-2.7,2.7a3.536,3.536,0,0,0-.346,4.629l2.436,3.3A25.808,25.808,0,0,0,57.289,76.7l-4.053.609a3.536,3.536,0,0,0-3.028,3.518v3.816a3.536,3.536,0,0,0,3.028,3.518l4.053.609a25.934,25.934,0,0,0,.732,2.512,40.267,40.267,0,0,1-6.121.468A39.7,39.7,0,0,1,24.955,81.237L48.194,58a7.136,7.136,0,1,0,5.4-13.031V12.084A39.711,39.711,0,0,1,81.068,24.742a1.692,1.692,0,0,0,2.476-2.306A43.238,43.238,0,1,0,51.9,95.138a43.611,43.611,0,0,0,7.473-.647q.508,1.007,1.1,1.975l-2.436,3.3c-.069.093-.132.189-.191.287a49.066,49.066,0,0,1-5.95.366A48.516,48.516,0,0,1,15.924,19.349a1.692,1.692,0,0,0-2.508-2.271A51.9,51.9,0,0,0,51.9,103.8a52.41,52.41,0,0,0,5.822-.328,3.591,3.591,0,0,0,.665.921l2.7,2.7a3.536,3.536,0,0,0,4.629.346l3.3-2.436a25.811,25.811,0,0,0,7.692,3.188l.609,4.053a3.536,3.536,0,0,0,3.518,3.028h3.816a3.536,3.536,0,0,0,3.518-3.028l.609-4.053A25.8,25.8,0,0,0,96.465,105l3.3,2.436a3.536,3.536,0,0,0,4.629-.346l2.7-2.7a3.536,3.536,0,0,0,.346-4.629L105,96.466a25.806,25.806,0,0,0,3.188-7.692l4.053-.609a3.536,3.536,0,0,0,3.028-3.518V80.831a3.535,3.535,0,0,0-3.028-3.518ZM55.654,51.9A3.754,3.754,0,1,1,51.9,48.146,3.758,3.758,0,0,1,55.654,51.9ZM12.084,53.592h6.128a1.692,1.692,0,1,0,0-3.384H12.084A39.7,39.7,0,0,1,22.563,24.955l4.32,4.32a1.692,1.692,0,0,0,2.393-2.393l-4.32-4.32A39.7,39.7,0,0,1,50.208,12.084V44.967A7.133,7.133,0,0,0,45.8,55.6L22.562,78.845A39.7,39.7,0,0,1,12.084,53.592Zm99.8,31.055a.172.172,0,0,1-.148.171l-5.213.784a1.691,1.691,0,0,0-1.411,1.361,22.512,22.512,0,0,1-3.568,8.609,1.692,1.692,0,0,0,.036,1.96l3.133,4.242a.172.172,0,0,1-.017.226l-2.7,2.7a.172.172,0,0,1-.226.017l-4.242-3.133a1.693,1.693,0,0,0-1.96-.036,22.509,22.509,0,0,1-8.609,3.568,1.691,1.691,0,0,0-1.361,1.411l-.784,5.213a.172.172,0,0,1-.171.148H80.832a.172.172,0,0,1-.172-.148l-.783-5.213a1.691,1.691,0,0,0-1.361-1.411,22.515,22.515,0,0,1-8.609-3.568,1.692,1.692,0,0,0-1.96.036L63.7,104.715a.175.175,0,0,1-.225-.017l-2.7-2.7a.173.173,0,0,1-.017-.226L63.9,97.532a1.691,1.691,0,0,0,.036-1.96,22.514,22.514,0,0,1-3.568-8.609A1.691,1.691,0,0,0,58.954,85.6l-5.213-.784a.175.175,0,0,1-.148-.171V80.831a.172.172,0,0,1,.148-.172l5.213-.783a1.691,1.691,0,0,0,1.411-1.361,22.513,22.513,0,0,1,3.568-8.609,1.692,1.692,0,0,0-.036-1.96L60.764,63.7a.174.174,0,0,1,.017-.226l2.7-2.7a.174.174,0,0,1,.226-.017L67.946,63.9a1.692,1.692,0,0,0,1.96.036,22.513,22.513,0,0,1,8.609-3.568,1.692,1.692,0,0,0,1.361-1.411l.783-5.213a.172.172,0,0,1,.172-.148h3.816a.172.172,0,0,1,.171.148l.784,5.213a1.692,1.692,0,0,0,1.361,1.411,22.514,22.514,0,0,1,8.609,3.568,1.691,1.691,0,0,0,1.96-.036l4.242-3.133a.173.173,0,0,1,.226.017l2.7,2.7a.174.174,0,0,1,.017.226l-3.133,4.242a1.692,1.692,0,0,0-.036,1.96,22.512,22.512,0,0,1,3.568,8.609,1.692,1.692,0,0,0,1.411,1.361l5.213.783a.172.172,0,0,1,.148.172v3.816Z" transform="translate(0)"/>
        <path id="Trazado_127932" data-name="Trazado 127932" d="M346.489,343.422l-6.32,6.481-2.743-2.667a1.692,1.692,0,1,0-2.359,2.426l3.954,3.845a1.692,1.692,0,0,0,2.391-.032l7.5-7.69a1.692,1.692,0,0,0-2.422-2.362Z" transform="translate(-259.235 -265.709)"/>
      </g>
    </g>
    <g id="material-escolar" transform="translate(711.432 7772.858)">
      <g id="Grupo_88448" data-name="Grupo 88448" transform="translate(46.3 1.732)">
        <path id="Trazado_127933" data-name="Trazado 127933" d="M281.524,73.92h15.264l13.535-37.407a1.216,1.216,0,0,0-.742-1.721l-10.92-3.969a1.253,1.253,0,0,0-1.748.814Z" transform="translate(-228.334 -25.327)" fill="#407093" fill-rule="evenodd"/>
        <path id="Trazado_127934" data-name="Trazado 127934" d="M317.98,80.182h6.814l13.535-37.407a1.216,1.216,0,0,0-.742-1.721l-6.019-2.188a1.215,1.215,0,0,1,.742,1.721Z" transform="translate(-256.34 -31.589)" fill="#365e7d" fill-rule="evenodd"/>
        <path id="Trazado_127935" data-name="Trazado 127935" d="M198.094,56.13h13.069V93.445H198.094Z" transform="translate(-164.241 -44.852)" fill="#fc7070" fill-rule="evenodd"/>
        <path id="Trazado_127936" data-name="Trazado 127936" d="M198.463,18.75,203.575,8.5c.7-1.406,2-1.334,2.668,0l5.118,10.257Z" transform="translate(-164.525 -7.472)" fill="#ffe07d" fill-rule="evenodd"/>
        <path id="Trazado_127937" data-name="Trazado 127937" d="M357.979,255.334H372.04a9.606,9.606,0,0,1,9.574,9.58v18.97a9.6,9.6,0,0,1-9.574,9.574H357.979v-7.182H372.04a2.4,2.4,0,0,0,2.392-2.391v-18.97a2.4,2.4,0,0,0-2.392-2.4H357.979Z" transform="translate(-287.068 -197.884)" fill="#ffc250" fill-rule="evenodd"/>
        <path id="Trazado_127938" data-name="Trazado 127938" d="M62.311,20.783l-2.72-7.491a.86.86,0,0,0-1.1-.513l-5.881,2.142a.85.85,0,0,0-.512,1.1l2.727,7.49Z" transform="translate(-52.041 -11.509)" fill="#b1e4f9" fill-rule="evenodd"/>
        <path id="Trazado_127939" data-name="Trazado 127939" d="M77.767,87.94h8.49L71.525,47.484l-7.491,2.727Z" transform="translate(-61.254 -38.21)" fill="#90d8f9" fill-rule="evenodd"/>
        <path id="Trazado_127940" data-name="Trazado 127940" d="M164.525,272.958a10.806,10.806,0,0,1-10.769,10.776h-38.3a10.8,10.8,0,0,1-10.769-10.776V218.487a1.369,1.369,0,0,1,1.36-1.367h57.119a1.368,1.368,0,0,1,1.36,1.367Z" transform="translate(-92.484 -168.527)" fill="#ffe07d" fill-rule="evenodd"/>
        <path id="Trazado_127941" data-name="Trazado 127941" d="M304.578,272.958a10.806,10.806,0,0,1-10.769,10.776h-6.814a10.808,10.808,0,0,0,10.776-10.776V218.487a1.374,1.374,0,0,0-1.367-1.367h6.814a1.368,1.368,0,0,1,1.36,1.367Z" transform="translate(-232.537 -168.527)" fill="#ffd064" fill-rule="evenodd"/>
        <path id="Trazado_127942" data-name="Trazado 127942" d="M169.176,290.9l1.255-1.261a10.38,10.38,0,1,1,14.679,14.679c-5.565,5.565-10.125,10.2-15.73,15.73a1.253,1.253,0,0,1-1.925,0c-5.217-5.164-10.539-10.539-15.73-15.73A10.38,10.38,0,1,1,166.4,289.643l1.255,1.261A.948.948,0,0,0,169.176,290.9Z" transform="translate(-126.295 -221.916)" fill="#ff9a9f" fill-rule="evenodd"/>
        <path id="Trazado_127943" data-name="Trazado 127943" d="M228.451,287.192a10.374,10.374,0,0,1,10.743,17.136c-5.565,5.565-10.125,10.2-15.73,15.73a1.253,1.253,0,0,1-1.925,0c-.815-.8-1.623-1.61-2.438-2.425,4.54-4.507,8.548-8.568,13.279-13.305a10.368,10.368,0,0,0-3.929-17.136Z" transform="translate(-180.379 -221.923)" fill="#fc7070" fill-rule="evenodd"/>
      </g>
      <path id="Trazado_127944" data-name="Trazado 127944" d="M104.6,31.237a1.734,1.734,0,0,1,3.259,1.183L101.968,48.59h11.571l.67-1.84-3.331-1.215a1.734,1.734,0,0,1,1.183-3.259l3.325,1.209,1.268-3.509-5.815-2.116a1.734,1.734,0,0,1,1.183-3.259l5.815,2.116,1.268-3.509-3.305-1.2a1.734,1.734,0,0,1,1.183-3.259l3.305,1.2,1.268-3.509-5.8-2.109a1.733,1.733,0,1,1,1.183-3.259l5.8,2.109,1.307-3.614-3.377-1.235a1.733,1.733,0,1,1,1.183-3.259l3.371,1.229,1.314-3.627L116.384,8.982l-5.835,16.032a1.734,1.734,0,1,1-3.259-1.183L113.25,7.45A2.969,2.969,0,0,1,117.219,5.6l10.92,3.969a2.932,2.932,0,0,1,1.781,3.942L117.225,48.6a3.1,3.1,0,0,1,2.858,3.095v5.756h11.19a11.329,11.329,0,0,1,11.308,11.315v18.97a11.341,11.341,0,0,1-11.308,11.315h-11.19v7.116a12.541,12.541,0,0,1-12.511,12.51h-38.3a12.541,12.541,0,0,1-12.51-12.51v-23.3a1.738,1.738,0,0,1,3.476,0v23.3a9.064,9.064,0,0,0,9.035,9.035h38.3a9.064,9.064,0,0,0,9.035-9.035v-54.1H60.237V74.991a1.738,1.738,0,0,1-3.476,0v-23.3a3.1,3.1,0,0,1,3.161-3.1q-7.6-20.885-15.2-41.757a2.59,2.59,0,0,1,1.551-3.318l5.756-2.1A2.6,2.6,0,0,1,55.52,3.049l.736,2.011a9.53,9.53,0,0,1,4.935.191,6.739,6.739,0,0,1,4.317,4.225L72.9,29.785a1.737,1.737,0,0,1-3.266,1.183l-7.386-20.31a3.377,3.377,0,0,0-2.155-2.116,5.743,5.743,0,0,0-2.635-.178Q64.781,28.48,72.1,48.59h6.314V35.606a1.738,1.738,0,0,1,3.476,0V48.59h3.069V14.751H81.888V27.735a1.738,1.738,0,0,1-3.476,0V13.2a3.49,3.49,0,0,1,.48-1.386l4.9-9.823a3.095,3.095,0,0,1,5.782,0l4.9,9.81a3.63,3.63,0,0,1,.486,1.4V48.59h3.312ZM88.419,48.59h3.069V14.751H88.419Zm-24.811,0h4.8L55.539,13.227,51.3,14.771ZM50.118,11.512,54.35,9.968l-1.833-5.04L48.279,6.472Zm45.4,79.807a1.733,1.733,0,0,1,2.457,2.444Q94.306,97.45,90.6,101.1a2.967,2.967,0,0,1-4.363-.007c-5.27-5.217-10.493-10.487-15.737-15.73a12.1,12.1,0,0,1,8.568-20.671c4.015,0,6.623,1.6,9.35,4.323,2.733-2.727,5.342-4.323,9.357-4.323a12.122,12.122,0,0,1,8.568,20.671c-1.2,1.209-1.321,1.314-2.812,2.812a1.735,1.735,0,0,1-2.464-2.444c1.2-1.189,2.28-2.293,2.819-2.825A8.642,8.642,0,0,0,91.665,70.687c-.907.913-1.8,2.116-3.2,2.142-1.439.026-2.366-1.222-3.285-2.142A8.642,8.642,0,0,0,72.958,82.908C78.1,88.073,83.241,93.251,88.425,98.383q3.558-3.518,7.09-7.063ZM120.083,68.1V88.389h11.19a.63.63,0,0,0,.46-.2.652.652,0,0,0,.191-.46V68.762a.678.678,0,0,0-.191-.467.651.651,0,0,0-.46-.191Zm11.19-7.182h-11.19v3.706h11.19a4.138,4.138,0,0,1,4.133,4.133v18.97a4.15,4.15,0,0,1-4.133,4.133h-11.19V95.57h11.19a7.863,7.863,0,0,0,7.832-7.838V68.762a7.863,7.863,0,0,0-7.832-7.839ZM86.684,3.975l-3.64,7.3h7.28Z" transform="translate(0 0)"/>
    </g>
    <g id="objetivo" transform="translate(1010 7772.857)">
      <g id="Grupo_88462" data-name="Grupo 88462">
        <g id="Grupo_88450" data-name="Grupo 88450" transform="translate(2.438 15.209)">
          <g id="Grupo_88449" data-name="Grupo 88449">
            <ellipse id="Elipse_4317" data-name="Elipse 4317" cx="49.609" cy="49.606" rx="49.609" ry="49.606" transform="translate(0 0.099) rotate(-0.057)" fill="#e5ecec"/>
          </g>
        </g>
        <g id="Grupo_88452" data-name="Grupo 88452" transform="translate(14.518 27.27)">
          <g id="Grupo_88451" data-name="Grupo 88451">
            <path id="Trazado_127945" data-name="Trazado 127945" d="M101.259,194.772a37.575,37.575,0,0,1-22.851-67.413q.379-.291.766-.573a37.583,37.583,0,1,1,22.086,67.986Z" transform="translate(-63.67 -119.597)" fill="#f5737f"/>
          </g>
        </g>
        <g id="Grupo_88453" data-name="Grupo 88453" transform="translate(14.518 27.27)">
          <path id="Trazado_127946" data-name="Trazado 127946" d="M88.521,121.818a37.655,37.655,0,1,1-17.635,13.244" transform="translate(-63.67 -119.597)" fill="#f5737f"/>
        </g>
        <g id="Grupo_88456" data-name="Grupo 88456">
          <g id="Grupo_88454" data-name="Grupo 88454">
            <path id="Trazado_127947" data-name="Trazado 127947" fill="#f5737f"/>
          </g>
          <g id="Grupo_88455" data-name="Grupo 88455" transform="translate(27.745 32.184)">
            <path id="Trazado_127948" data-name="Trazado 127948" d="M123.956,145.7a2.279,2.279,0,1,1,2.237-1.833A2.3,2.3,0,0,1,123.956,145.7Z" transform="translate(-121.681 -141.147)"/>
          </g>
        </g>
        <g id="Grupo_88458" data-name="Grupo 88458" transform="translate(26.474 39.223)">
          <g id="Grupo_88457" data-name="Grupo 88457">
            <ellipse id="Elipse_4318" data-name="Elipse 4318" cx="25.568" cy="25.57" rx="25.568" ry="25.57" transform="translate(0 51.137) rotate(-89.885)" fill="#e5ecec"/>
          </g>
        </g>
        <g id="Grupo_88460" data-name="Grupo 88460" transform="translate(69.414 79.006)">
          <g id="Grupo_88459" data-name="Grupo 88459">
            <path id="Trazado_127949" data-name="Trazado 127949" d="M306.706,351.047a2.279,2.279,0,1,1,2.251-1.923,2.3,2.3,0,0,1-2.251,1.923Z" transform="translate(-304.427 -346.494)"/>
          </g>
        </g>
        <g id="Grupo_88461" data-name="Grupo 88461" transform="translate(38.493 51.24)">
          <ellipse id="Elipse_4319" data-name="Elipse 4319" cx="13.549" cy="13.55" rx="13.549" ry="13.55" transform="translate(0 27.099) rotate(-89.771)" fill="#f5737f"/>
        </g>
      </g>
      <g id="Grupo_88466" data-name="Grupo 88466" transform="translate(0.218 0)">
        <g id="Grupo_88463" data-name="Grupo 88463" transform="translate(86.61 2.28)">
          <path id="Trazado_127950" data-name="Trazado 127950" d="M392.753,10l-9.936,9.936a6.9,6.9,0,0,0-2.018,4.63l.225,12.647,12.805-12.825Z" transform="translate(-380.799 -10.001)" fill="#ffcb7c"/>
        </g>
        <g id="Grupo_88465" data-name="Grupo 88465">
          <g id="Grupo_88464" data-name="Grupo 88464" transform="translate(86.835 16.667)">
            <path id="Trazado_127951" data-name="Trazado 127951" d="M408.978,74.173,394.59,73.1,381.785,85.922l12.627.2a6.9,6.9,0,0,0,4.63-2.018Z" transform="translate(-381.785 -73.097)" fill="#ffd89e"/>
          </g>
          <path id="Trazado_127952" data-name="Trazado 127952" d="M117.121,16.951a2.279,2.279,0,0,0-1.968-1.481l-12.431-.93-.93-12.43A2.28,2.28,0,0,0,97.907.668L87.971,10.6a9.154,9.154,0,0,0-2.684,6.159c0,.041,0,.083,0,.124l.135,7.613a51.942,51.942,0,1,0,7.435,7.356l7.524.122h.037l.083,0a9.157,9.157,0,0,0,6.159-2.684l9.936-9.936a2.28,2.28,0,0,0,.525-2.406ZM91.2,13.829l6.421-6.421.628,8.388-8.269,8.282-.128-7.2A4.607,4.607,0,0,1,91.2,13.829ZM52.845,112.184A47.326,47.326,0,1,1,84.423,29.636l-5.281,5.281a39.833,39.833,0,0,0-39.81-7.569,2.28,2.28,0,1,0,1.549,4.289,35.279,35.279,0,0,1,35.03,6.511l-5.29,5.29A27.843,27.843,0,1,0,65.5,89.662,2.28,2.28,0,1,0,63.421,85.6a22.989,22.989,0,0,1-10.576,2.543A23.288,23.288,0,1,1,67.382,46.677L62.062,52a15.85,15.85,0,1,0,3.285,3.164l5.3-5.3a23.265,23.265,0,0,1,4.308,22.322,2.28,2.28,0,0,0,4.328,1.438,27.827,27.827,0,0,0-5.4-26.994l5.282-5.282a35.308,35.308,0,1,1-54.851,2.736,2.28,2.28,0,0,0-3.683-2.69,39.871,39.871,0,1,0,61.76-3.274l5.277-5.277a47.3,47.3,0,0,1-34.823,79.343Zm11.27-47.326a11.279,11.279,0,1,1-5.337-9.577L51.5,62.553a2.28,2.28,0,1,0,3.225,3.225l7.359-7.359A11.205,11.205,0,0,1,64.115,64.858Zm39.321-38.79a4.61,4.61,0,0,1-3.047,1.349l-7.18-.116,4.38-4.38c.049-.049.094-.1.138-.151l3.743-3.749,8.386.627Z" transform="translate(-0.956 -0.001)"/>
        </g>
      </g>
    </g>
  </g>
</svg>
