<svg xmlns="http://www.w3.org/2000/svg" width="93.965" height="93.951" viewBox="0 0 93.965 93.951">
  <g id="analisis-de-consultas" transform="translate(-4.484 -4.503)">
    <path id="Trazado_127953" data-name="Trazado 127953" d="M71.238,29.043A33.058,33.058,0,1,0,11.2,56.16s0,0,.008,0a33.048,33.048,0,0,0,50.271,9.061,32.262,32.262,0,0,0,3.766-3.762v0a33.039,33.039,0,0,0,5.995-32.416Z" transform="translate(-1.565 -1.542)" fill="#fc5d3d"/>
    <path id="Trazado_127954" data-name="Trazado 127954" d="M194.342,194.325a5.349,5.349,0,0,1-7.57,0l-23.135-23.131a1.141,1.141,0,0,1,0-1.614l1.095-1.095,3.766-3.766,1.091-1.091a1.141,1.141,0,0,1,1.614,0l23.139,23.128a5.363,5.363,0,0,1,0,7.57Z" transform="translate(-98.408 -98.391)" fill="#fc5d3d"/>
    <path id="Trazado_127955" data-name="Trazado 127955" d="M54.4,30.117A24.261,24.261,0,1,1,30.149,54.384,24.261,24.261,0,0,1,54.4,30.117Z" transform="translate(-15.902 -15.871)" fill="#efefef"/>
    <path id="Trazado_127956" data-name="Trazado 127956" d="M54.4,30.117A24.261,24.261,0,1,1,30.149,54.384,24.261,24.261,0,0,1,54.4,30.117Z" transform="translate(-15.902 -15.871)" fill="#fff"/>
    <path id="Trazado_127957" data-name="Trazado 127957" d="M85.356,66.347a13.607,13.607,0,1,0-15.4,13.486l1.792,4.22,1.792-4.22A13.607,13.607,0,0,0,85.356,66.347Z" transform="translate(-33.248 -29.889)" fill="#f0c020"/>
    <path id="Trazado_127958" data-name="Trazado 127958" d="M87.032,76.869a.951.951,0,0,1,0-1.345c.208-.208.408-.427.594-.651a.951.951,0,1,1,1.463,1.216c-.223.269-.463.531-.713.781a.95.95,0,0,1-1.345,0Zm2.87-3.785a.951.951,0,0,1-.592-1.207,9.527,9.527,0,0,0-15.75-9.824.951.951,0,0,1-1.345-1.345A11.431,11.431,0,0,1,91.11,72.492.951.951,0,0,1,89.9,73.084Z" transform="translate(-41.795 -32.752)" fill="#f9e5af"/>
    <path id="Trazado_127959" data-name="Trazado 127959" d="M45.917,89.132c-15.662,0-28.893-13.578-28.893-29.65a28.152,28.152,0,0,1,8.649-20.189.951.951,0,1,1,1.345,1.345,26.291,26.291,0,0,0-8.092,18.844c0,15.041,12.36,27.749,26.991,27.749a26.862,26.862,0,0,0,3.3-.207.951.951,0,1,1,.235,1.887A28.644,28.644,0,0,1,45.917,89.132Zm6.233-1.643a.951.951,0,0,1,.682-1.159c.88-.228,1.771-.5,2.648-.816a.951.951,0,0,1,.641,1.791c-.93.332-1.876.624-2.811.866A.95.95,0,0,1,52.15,87.489Z" transform="translate(-7.77 -21.384)" fill="#ffcbc3"/>
    <path id="Trazado_127960" data-name="Trazado 127960" d="M195.356,201.309l-1.632-1.632a.951.951,0,1,1,1.345-1.345l1.632,1.632a.951.951,0,0,1-1.345,1.345Zm-4.322-4.322-16.407-16.407a.951.951,0,1,1,1.345-1.345l16.407,16.407a.951.951,0,0,1-1.345,1.345Z" transform="translate(-105.252 -108.096)" fill="#ffcbc3"/>
    <path id="Trazado_127961" data-name="Trazado 127961" d="M160.381,156.6l-3.766,3.766-6.413-6.413a32.261,32.261,0,0,0,3.766-3.762Z" transform="translate(-90.29 -90.274)" fill="#7d7b79"/>
    <path id="Trazado_127962" data-name="Trazado 127962" d="M58.412,98.3a.953.953,0,0,0,.635-1.187,0,0,0,0,1,0,0,.959.959,0,0,0-1.187-.628.951.951,0,0,0,.555,1.818Z" transform="translate(-32.654 -56.965)"/>
    <path id="Trazado_127963" data-name="Trazado 127963" d="M83.283,72.551a.951.951,0,0,0,.951-.951v0a2.5,2.5,0,1,1,3.693,2.21,4.039,4.039,0,0,0-2.142,3.545.951.951,0,1,0,1.9,0,2.137,2.137,0,0,1,1.145-1.871,4.407,4.407,0,1,0-6.5-3.879A.951.951,0,0,0,83.283,72.551Z" transform="translate(-48.236 -38.846)"/>
    <path id="Trazado_127964" data-name="Trazado 127964" d="M92.363,98.7a.951.951,0,0,0-.951.951v.722a.951.951,0,1,0,1.9,0v-.722A.951.951,0,0,0,92.363,98.7Z" transform="translate(-53.862 -58.364)"/>
    <path id="Trazado_127965" data-name="Trazado 127965" d="M217.439,197.538a.952.952,0,1,0,1.347,0A.98.98,0,0,0,217.439,197.538Z" transform="translate(-131.779 -119.443)"/>
    <path id="Trazado_127966" data-name="Trazado 127966" d="M89.7,80.785a.974.974,0,0,0-1.343,0,.95.95,0,0,0,0,1.347v0l6.908,6.9a4.4,4.4,0,0,1-6.223,6.223L65.9,72.134a.192.192,0,0,1,0-.27l5.957-5.953a.187.187,0,0,1,.266,0L82.97,76.753a.98.98,0,0,0,1.347,0,.953.953,0,0,0,0-1.343L73.468,64.565a2.093,2.093,0,0,0-2.959,0l-.419.419-5.136-5.133A33.961,33.961,0,0,0,65.242,17.5l7.571-5.868H76.8a.951.951,0,0,0,0-1.9H72.488a.951.951,0,0,0-.582.2l-7.881,6.108A34,34,0,1,0,21.458,67.922L14.487,81.741a.951.951,0,0,0,.849,1.379h7.037a.951.951,0,1,0,0-1.9H16.881L23.13,68.83A33.954,33.954,0,0,0,38.5,72.512a33.576,33.576,0,0,0,21.368-7.529L64.979,70.1l-.423.423a2.1,2.1,0,0,0,0,2.959L87.691,96.6A6.3,6.3,0,0,0,96.607,87.7ZM10.47,54.158a32.1,32.1,0,0,1,52.043-36.95l-5.465,4.235A25.207,25.207,0,1,0,25.423,60.062l-3.108,6.16A32.128,32.128,0,0,1,10.47,54.158ZM38.5,21.9a14.551,14.551,0,0,0-14.557,14.56c0,.076,0,.156,0,.232a.951.951,0,1,0,1.9-.03c0-.068,0-.137,0-.2A12.655,12.655,0,1,1,40.17,49a.96.96,0,0,0-.753.571L38.5,51.731l-.917-2.161A.954.954,0,0,0,36.835,49a12.636,12.636,0,0,1-8.954-5.66.974.974,0,0,0-1.316-.281.952.952,0,0,0-.278,1.316,14.576,14.576,0,0,0,4.744,4.571l-4.748,9.411A23.32,23.32,0,1,1,55.572,22.588l-5.881,4.559A14.489,14.489,0,0,0,38.5,21.9ZM23.986,67.132l3.1-6.15A24.924,24.924,0,0,0,38.5,63.72,25.223,25.223,0,0,0,63.415,42.359a.942.942,0,0,0-.175-.708.93.93,0,0,0-.62-.377.961.961,0,0,0-1.084.795A23.446,23.446,0,0,1,38.5,61.819a23.173,23.173,0,0,1-10.558-2.528l4.781-9.478a14.4,14.4,0,0,0,3.319.991l1.582,3.732a.952.952,0,0,0,1.75,0L40.962,50.8a14.558,14.558,0,0,0,9.849-22.118l6-4.65a23.273,23.273,0,0,1,4.7,10.754.951.951,0,0,0,1.712.407.938.938,0,0,0,.167-.708,25.185,25.185,0,0,0-5.105-11.6l5.454-4.227A32.095,32.095,0,0,1,23.986,67.132Zm37.323-3.4c.826-.754,1.793-1.731,2.418-2.42l5.017,5.015L66.324,68.75Z" transform="translate(0 0)"/>
    <path id="Trazado_127967" data-name="Trazado 127967" d="M222.015,18.245H208.8a.951.951,0,0,0,0,1.9h13.218a.951.951,0,0,0,0-1.9Z" transform="translate(-126.007 -8.515)"/>
    <path id="Trazado_127968" data-name="Trazado 127968" d="M222.015,30.37H208.8a.951.951,0,0,0,0,1.9h13.218a.951.951,0,0,0,0-1.9Z" transform="translate(-126.007 -16.028)"/>
    <path id="Trazado_127969" data-name="Trazado 127969" d="M222.966,43.446a.951.951,0,0,0-.951-.951H208.8a.951.951,0,0,0,0,1.9h13.218A.951.951,0,0,0,222.966,43.446Z" transform="translate(-126.007 -23.541)"/>
    <path id="Trazado_127970" data-name="Trazado 127970" d="M65.964,208.085H82.415a.951.951,0,0,0,0-1.9H65.964a.951.951,0,1,0,0,1.9Z" transform="translate(-37.505 -124.966)"/>
    <path id="Trazado_127971" data-name="Trazado 127971" d="M65.964,222.4H82.415a.951.951,0,0,0,0-1.9H65.964a.951.951,0,1,0,0,1.9Z" transform="translate(-37.505 -133.834)"/>
    <path id="Trazado_127972" data-name="Trazado 127972" d="M65.964,236.707H82.415a.951.951,0,1,0,0-1.9H65.964a.951.951,0,1,0,0,1.9Z" transform="translate(-37.505 -142.7)"/>
    <path id="Trazado_127973" data-name="Trazado 127973" d="M157.084,92.132a.951.951,0,1,0-.951.955h0a.933.933,0,0,0,.669-.281A.95.95,0,0,0,157.084,92.132Z" transform="translate(-93.376 -53.71)"/>
  </g>
</svg>
