<svg xmlns="http://www.w3.org/2000/svg" width="105.54" height="102.837" viewBox="0 0 105.54 102.837">
  <g id="analisis" transform="translate(0 -6.558)">
    <g id="Grupo_88491" data-name="Grupo 88491" transform="translate(1.546 8.104)">
      <g id="Grupo_88489" data-name="Grupo 88489" transform="translate(0 0)">
        <path id="Trazado_127974" data-name="Trazado 127974" d="M7.5,50.442v63.781a2.827,2.827,0,0,0,2.827,2.827H93.668a2.827,2.827,0,0,0,2.827-2.827V50.442a2.827,2.827,0,0,0-2.827-2.827H10.327A2.827,2.827,0,0,0,7.5,50.442Z" transform="translate(-7.5 -40.698)" fill="#ebeef2"/>
        <path id="Trazado_127975" data-name="Trazado 127975" d="M405.808,47.616h-5.119a2.827,2.827,0,0,1,2.827,2.827v63.781a2.827,2.827,0,0,1-2.827,2.827h5.119a2.827,2.827,0,0,0,2.827-2.827V50.443A2.827,2.827,0,0,0,405.808,47.616Z" transform="translate(-319.64 -40.698)" fill="#d1d6de"/>
        <g id="Grupo_88488" data-name="Grupo 88488" transform="translate(19.606 15.77)">
          <g id="Grupo_88484" data-name="Grupo 88484" transform="translate(0 19.824)">
            <circle id="Elipse_4338" data-name="Elipse 4338" cx="3.608" cy="3.608" r="3.608" fill="#5c9cee"/>
          </g>
          <g id="Grupo_88485" data-name="Grupo 88485" transform="translate(14.189 11.767)">
            <circle id="Elipse_4339" data-name="Elipse 4339" cx="3.608" cy="3.608" r="3.608" fill="#f2df33"/>
          </g>
          <g id="Grupo_88486" data-name="Grupo 88486" transform="translate(28.379 19.824)">
            <circle id="Elipse_4340" data-name="Elipse 4340" cx="3.608" cy="3.608" r="3.608" fill="#ed5575"/>
          </g>
          <g id="Grupo_88487" data-name="Grupo 88487" transform="translate(42.568)">
            <circle id="Elipse_4341" data-name="Elipse 4341" cx="3.608" cy="3.608" r="3.608" fill="#9fd479"/>
          </g>
        </g>
        <path id="Trazado_127976" data-name="Trazado 127976" d="M80.428,389.413v-4.948h58.929v4.948a1.969,1.969,0,0,1-1.969,1.969H82.4A1.969,1.969,0,0,1,80.428,389.413Z" transform="translate(-65.395 -308.112)" fill="#f2df33"/>
        <path id="Trazado_127977" data-name="Trazado 127977" d="M334.476,384.465v4.948a1.969,1.969,0,0,1-1.969,1.969h5a1.969,1.969,0,0,0,1.969-1.969v-4.948Z" transform="translate(-265.513 -308.112)" fill="#fcab29"/>
        <path id="Trazado_127978" data-name="Trazado 127978" d="M189.243,20.975V16.39a2.333,2.333,0,0,1,2.333-2.333h9.4a2.333,2.333,0,0,1,2.333,2.333v4.585H189.243Z" transform="translate(-151.78 -14.057)" fill="#f2df33"/>
        <path id="Trazado_127979" data-name="Trazado 127979" d="M226.79,14.058h-5.034a2.333,2.333,0,0,1,2.333,2.333v4.585h5.034V16.391A2.333,2.333,0,0,0,226.79,14.058Z" transform="translate(-177.591 -14.058)" fill="#fcab29"/>
        <rect id="Rectángulo_26030" data-name="Rectángulo 26030" width="6.272" height="13.661" transform="translate(20.078 53.804)" fill="#48cfb7"/>
        <rect id="Rectángulo_26031" data-name="Rectángulo 26031" width="6.272" height="21.561" transform="translate(34.267 45.904)" fill="#48cfb7"/>
        <rect id="Rectángulo_26032" data-name="Rectángulo 26032" width="6.272" height="13.661" transform="translate(48.456 53.804)" fill="#48cfb7"/>
        <rect id="Rectángulo_26033" data-name="Rectángulo 26033" width="6.272" height="27.722" transform="translate(62.645 39.743)" fill="#48cfb7"/>
      </g>
      <g id="Grupo_88490" data-name="Grupo 88490" transform="translate(60.915 28.425)">
        <path id="Trazado_127980" data-name="Trazado 127980" d="M409.456,295.392l11.509,19.934a4.331,4.331,0,0,0,5.916,1.585h0a4.331,4.331,0,0,0,1.585-5.916l-11.509-19.934Z" transform="translate(-387.515 -262.387)" fill="#ed5575"/>
        <path id="Trazado_127981" data-name="Trazado 127981" d="M416.958,291.06l-7.5,4.331,4.486,7.771a23.587,23.587,0,0,0,7.5-4.331Z" transform="translate(-387.515 -262.386)" fill="#cc3a60"/>
        <circle id="Elipse_4342" data-name="Elipse 4342" cx="18.661" cy="18.661" r="18.661" fill="#f2df33"/>
        <circle id="Elipse_4343" data-name="Elipse 4343" cx="13.132" cy="13.132" r="13.132" transform="translate(5.528 5.528)" fill="#5c9cee"/>
      </g>
    </g>
    <g id="Grupo_88492" data-name="Grupo 88492" transform="translate(0 6.558)">
      <path id="Trazado_127982" data-name="Trazado 127982" d="M142.839,93.368a5.159,5.159,0,1,0-4.117-2.058l-8.467,11.832a5.139,5.139,0,0,0-5.112,1.126l-5.644-3.2a5.153,5.153,0,1,0-10.075,0l-5.644,3.2a5.146,5.146,0,1,0,1.53,2.687l5.644-3.2a5.14,5.14,0,0,0,7.015,0l5.644,3.2a5.154,5.154,0,1,0,9.155-2.012l8.467-11.832A5.138,5.138,0,0,0,142.839,93.368Zm0-7.215a2.061,2.061,0,1,1-2.061,2.062A2.064,2.064,0,0,1,142.839,86.153ZM100.271,110.1a2.062,2.062,0,1,1,2.061-2.062A2.064,2.064,0,0,1,100.271,110.1Zm14.189-8.057a2.061,2.061,0,1,1,2.061-2.062A2.064,2.064,0,0,1,114.46,102.043Zm14.189,8.057a2.062,2.062,0,1,1,2.062-2.062A2.064,2.064,0,0,1,128.649,110.1Z" transform="translate(-75.511 -67.291)"/>
      <path id="Trazado_127983" data-name="Trazado 127983" d="M86.327,109.551H4.373a1.283,1.283,0,0,1-1.281-1.281V44.489a1.283,1.283,0,0,1,1.281-1.281h7.288a1.546,1.546,0,0,0,0-3.092H4.373A4.378,4.378,0,0,0,0,44.489V108.27a4.378,4.378,0,0,0,4.373,4.373h10.66v3.4a3.519,3.519,0,0,0,3.515,3.515H34.023l-7.285,14.223a1.546,1.546,0,1,0,2.752,1.41L37.5,119.561H54.59L62.6,135.193a1.546,1.546,0,1,0,2.752-1.41l-7.285-14.223H73.539a3.519,3.519,0,0,0,3.515-3.515v-3.4h9.273a1.546,1.546,0,0,0,0-3.092Zm-12.365,6.494a.424.424,0,0,1-.423.423H18.548a.424.424,0,0,1-.423-.423v-3.4H73.962Z" transform="translate(0 -33.199)"/>
      <path id="Trazado_127984" data-name="Trazado 127984" d="M80.617,16.567h69.869a1.283,1.283,0,0,1,1.281,1.281v14.7a1.546,1.546,0,0,0,3.092,0v-14.7a4.378,4.378,0,0,0-4.373-4.373H117.4V10.437a3.883,3.883,0,0,0-3.879-3.879h-9.4a3.883,3.883,0,0,0-3.879,3.879v3.039H80.617a1.546,1.546,0,1,0,0,3.092Zm22.71-6.131a.788.788,0,0,1,.787-.787h9.4a.788.788,0,0,1,.787.787v3.039H103.327V10.437Z" transform="translate(-62.772 -6.558)"/>
      <path id="Trazado_127985" data-name="Trazado 127985" d="M98.948,267.576a1.546,1.546,0,0,0-1.546,1.546v13.661a1.546,1.546,0,0,0,1.546,1.546h6.272a1.546,1.546,0,0,0,1.546-1.546V269.122a1.546,1.546,0,0,0-1.546-1.546Zm4.726,13.661h-3.18V270.668h3.18Z" transform="translate(-77.324 -213.772)"/>
      <path id="Trazado_127986" data-name="Trazado 127986" d="M167.783,229.248a1.546,1.546,0,0,0-1.546,1.546v21.562a1.546,1.546,0,0,0,1.546,1.546h6.272a1.546,1.546,0,0,0,1.546-1.546V230.794a1.546,1.546,0,0,0-1.546-1.546Zm4.726,21.562h-3.18V232.34h3.18Z" transform="translate(-131.97 -183.344)"/>
      <path id="Trazado_127987" data-name="Trazado 127987" d="M236.619,267.576a1.546,1.546,0,0,0-1.546,1.546v13.661a1.546,1.546,0,0,0,1.546,1.546h6.272a1.546,1.546,0,0,0,1.546-1.546V269.122a1.546,1.546,0,0,0-1.546-1.546Zm4.726,13.661h-3.18V270.668h3.18Z" transform="translate(-186.617 -213.772)"/>
      <path id="Trazado_127988" data-name="Trazado 127988" d="M305.455,311.832a1.546,1.546,0,0,0-1.546,1.546v4.538a1.546,1.546,0,0,0,1.546,1.546h6.272a1.546,1.546,0,0,0,0-3.092H307v-2.992A1.546,1.546,0,0,0,305.455,311.832Z" transform="translate(-241.264 -248.905)"/>
      <path id="Trazado_127989" data-name="Trazado 127989" d="M339.365,193.852,330.5,178.49a20.217,20.217,0,1,0-19.99,5.7,20.317,20.317,0,0,0,5.263.7,19.953,19.953,0,0,0,4.551-.526l8.867,15.363a5.877,5.877,0,1,0,10.179-5.877Zm-28.059-12.644a17.115,17.115,0,1,1,12.987-1.71A17,17,0,0,1,311.306,181.208ZM335.669,199.2a2.788,2.788,0,0,1-3.8-1.019l-8.531-14.78a20.291,20.291,0,0,0,4.821-2.786l8.534,14.781a2.782,2.782,0,0,1-1.019,3.8Z" transform="translate(-234.614 -116.045)"/>
      <path id="Trazado_127990" data-name="Trazado 127990" d="M351,190.282a14.63,14.63,0,0,0-.732-10.6,1.546,1.546,0,1,0-2.8,1.318,11.579,11.579,0,1,1-3.491-4.314,1.546,1.546,0,1,0,1.865-2.466A14.681,14.681,0,1,0,351,190.282Z" transform="translate(-255.864 -137.295)"/>
    </g>
  </g>
</svg>
