<svg xmlns="http://www.w3.org/2000/svg" width="95.512" height="96" viewBox="0 0 95.512 96">
  <g id="Send_package" data-name="Send package" transform="translate(-2.305 -2)">
    <path id="Trazado_127991" data-name="Trazado 127991" d="M58.015,44.263a3.183,3.183,0,0,0-1.6.013L30.942,51.1a4.779,4.779,0,0,0-3.35,3.3l-17.08-9.858a4.8,4.8,0,1,0-4.8,8.32L34.073,69.232a3.2,3.2,0,0,0,1.6.429H62.86a3.2,3.2,0,0,0,1.43-.338l5.725-2.862v-19.2Z" transform="translate(0.602 25.139)" fill="#ffbcab"/>
    <path id="Trazado_127992" data-name="Trazado 127992" d="M5,15.8H27.4L30.6,3H11.4Z" transform="translate(1.617 0.6)" fill="#a97c50"/>
    <path id="Trazado_127993" data-name="Trazado 127993" d="M50.6,15.8,44.2,3H25l3.2,12.8Z" transform="translate(13.617 0.6)" fill="#a97c50"/>
    <path id="Trazado_127994" data-name="Trazado 127994" d="M57.8,43H45V71.8H57.8V43Z" transform="translate(25.617 24.6)" fill="#006df0"/>
    <path id="Trazado_127995" data-name="Trazado 127995" d="M53,45H65.8V67.4H53Z" transform="translate(30.417 25.8)" fill="#2488ff"/>
    <path id="Trazado_127996" data-name="Trazado 127996" d="M5,11H62.6V55.8H5Z" transform="translate(1.617 5.4)" fill="#bc9977"/>
    <path id="Trazado_127997" data-name="Trazado 127997" d="M25.4,27l6.4,3.2V11H19V30.2Z" transform="translate(10.017 5.4)" fill="#ff9811"/>
    <path id="Trazado_127998" data-name="Trazado 127998" d="M31.8,15.8,28.6,3H22.2L19,15.8Z" transform="translate(10.017 0.6)" fill="#ee8700"/>
    <path id="Trazado_127999" data-name="Trazado 127999" d="M59.4,11V39.8a9.6,9.6,0,0,1-9.6,9.6H5v6.4H62.6V11Z" transform="translate(1.617 5.4)" fill="#b38b63"/>
    <path id="Trazado_128000" data-name="Trazado 128000" d="M53,45h4.8V67.4H53Z" transform="translate(30.417 25.8)" fill="#005ece"/>
    <g id="Grupo_88493" data-name="Grupo 88493" transform="translate(2.305 2)">
      <path id="Trazado_128001" data-name="Trazado 128001" d="M96.217,45.2h-11.2V43.6a1.6,1.6,0,0,0-1.6-1.6h-12.8a1.6,1.6,0,0,0-1.6,1.6v2.75l-10.01-2.5a4.819,4.819,0,0,0-2.4.021L31.129,50.694A6.342,6.342,0,0,0,27.514,53.3l-15.6-9.008a6.4,6.4,0,1,0-6.4,11.093L33.873,71.76a4.8,4.8,0,0,0,2.4.64H63.462a4.822,4.822,0,0,0,2.146-.506l3.41-1.706V72.4a1.6,1.6,0,0,0,1.6,1.6h12.8a1.6,1.6,0,0,0,1.6-1.6V70.8h11.2a1.6,1.6,0,0,0,1.6-1.6V46.8a1.6,1.6,0,0,0-1.6-1.6ZM64.177,69.04a1.626,1.626,0,0,1-.715.16H36.274a1.6,1.6,0,0,1-.8-.214L7.116,52.616A3.211,3.211,0,0,1,5.958,48.24a3.254,3.254,0,0,1,4.355-1.17l16.118,9.306a6.371,6.371,0,0,0,8.011,6.686l19.08-5.112a1.6,1.6,0,1,0-.827-3.091l-19.082,5.12A3.2,3.2,0,1,1,31.957,53.8L57.433,46.96a1.6,1.6,0,0,1,.8,0l10.784,2.69V66.61Zm17.64,1.76h-9.6V45.2h9.6Zm12.8-3.2h-9.6V48.4h9.6Z" transform="translate(-2.305 22)" fill="#231f20"/>
      <path id="Trazado_128002" data-name="Trazado 128002" d="M64.64,15.685l-6.4-12.8A1.6,1.6,0,0,0,56.8,2H12a1.6,1.6,0,0,0-1.432.885l-6.4,12.8A2.848,2.848,0,0,0,4,16.4V61.2a1.6,1.6,0,0,0,1.6,1.6H63.2a1.6,1.6,0,0,0,1.6-1.6V16.4a2.849,2.849,0,0,0-.16-.715ZM60.611,14.8H42.048l-2.4-9.6h16.16ZM29.6,18h9.6V33.011l-4.085-2.043a1.6,1.6,0,0,0-1.43,0L29.6,33.011ZM36.35,5.2l2.4,9.6h-8.7l2.4-9.6Zm-23.362,0h16.16l-2.4,9.6H8.189ZM61.6,59.6H7.2V18H26.4V35.6a1.6,1.6,0,0,0,2.315,1.432L34.4,34.189l5.685,2.851A1.6,1.6,0,0,0,42.4,35.6V18H61.6Z" transform="translate(-1.288 -2)" fill="#231f20"/>
    </g>
  </g>
</svg>
