<svg xmlns="http://www.w3.org/2000/svg" width="81.068" height="97.73" viewBox="0 0 81.068 97.73">
  <g id="innovacion" transform="translate(-7.23 -2)">
    <path id="Trazado_128019" data-name="Trazado 128019" d="M68.206,17.5a1.629,1.629,0,0,1-1.629-1.156A15.784,15.784,0,0,0,65.518,13.8a1.629,1.629,0,0,1,.309-1.971,1.629,1.629,0,0,0,0-2.346L63.319,7.007a1.629,1.629,0,0,0-2.346,0,1.71,1.71,0,0,1-1.205.5,1.629,1.629,0,0,1-.766-.2,15.783,15.783,0,0,0-2.508-1.059,1.629,1.629,0,0,1-1.156-1.629A1.629,1.629,0,0,0,53.709,3H50.158a1.629,1.629,0,0,0-1.629,1.629,1.629,1.629,0,0,1-1.156,1.629,15.783,15.783,0,0,0-2.541,1.059,1.629,1.629,0,0,1-.766.2,1.71,1.71,0,0,1-1.205-.5,1.629,1.629,0,0,0-2.346,0L38.007,9.515a1.629,1.629,0,0,0,0,2.346,1.629,1.629,0,0,1,.309,1.971,15.782,15.782,0,0,0-1.059,2.508A1.629,1.629,0,0,1,35.629,17.5,1.629,1.629,0,0,0,34,19.126v3.518a1.629,1.629,0,0,0,1.629,1.629A1.629,1.629,0,0,1,37.258,25.4a15.522,15.522,0,0,0,1.059,2.574,1.629,1.629,0,0,1,.2.766,1.71,1.71,0,0,1-.5,1.205,1.629,1.629,0,0,0,0,2.346l2.508,2.541a1.629,1.629,0,0,0,2.346,0,1.629,1.629,0,0,1,1.971-.309,15.783,15.783,0,0,0,2.541,1.059,1.629,1.629,0,0,1,1.156,1.629,1.629,1.629,0,0,0,1.629,1.629h3.518a1.629,1.629,0,0,0,1.629-1.629,1.629,1.629,0,0,1,1.156-1.629A15.784,15.784,0,0,0,59,34.518a1.629,1.629,0,0,1,1.971.309,1.629,1.629,0,0,0,2.346,0l2.508-2.508a1.629,1.629,0,0,0,0-2.346,1.71,1.71,0,0,1-.5-1.205,1.629,1.629,0,0,1,.2-.766,15.524,15.524,0,0,0,1.059-2.541,1.629,1.629,0,0,1,1.629-1.124,1.629,1.629,0,0,0,1.629-1.629V19.158A1.629,1.629,0,0,0,68.206,17.5Z" transform="translate(16.834 0.629)" fill="#65788f"/>
    <circle id="Elipse_4344" data-name="Elipse 4344" cx="9.773" cy="9.773" r="9.773" transform="translate(58.978 11.773)" fill="#e6eef3"/>
    <path id="Trazado_128020" data-name="Trazado 128020" d="M59.353,54.025A43.2,43.2,0,0,0,50.3,75.411H24.007a43.2,43.2,0,0,0-9.056-21.387A28.423,28.423,0,0,1,8.436,32.605,28.928,28.928,0,0,1,33.895,7.179a30.606,30.606,0,0,1,6.613,0A28.928,28.928,0,0,1,65.95,32.605,28.423,28.423,0,0,1,59.353,54.025Z" transform="translate(0.651 3.144)" fill="#ffe66d"/>
    <path id="Trazado_128021" data-name="Trazado 128021" d="M18,55.515H44.061V49H18Z" transform="translate(6.773 29.556)" fill="#414d5c"/>
    <g id="Grupo_88506" data-name="Grupo 88506" transform="translate(21.515 34.577)">
      <path id="Trazado_128022" data-name="Trazado 128022" d="M16,31h6.515v6.515H16Z" transform="translate(-16 -16.34)" fill="#e9b94b"/>
      <path id="Trazado_128023" data-name="Trazado 128023" d="M0,0H6.515V6.515H0Z" transform="translate(11.402 6.515) rotate(180)" fill="#e9b94b"/>
      <path id="Trazado_128024" data-name="Trazado 128024" d="M32,28h6.515v6.515H32Z" transform="translate(-5.939 -18.227)" fill="#e9b94b"/>
    </g>
    <path id="Trazado_128025" data-name="Trazado 128025" d="M23.97,9.74l-.814-3.16A30.492,30.492,0,0,0,18.35,8.209l1.319,2.981a25.817,25.817,0,0,1,4.3-1.45Z" transform="translate(6.993 2.88)"/>
    <path id="Trazado_128026" data-name="Trazado 128026" d="M11.622,19.894,8.56,18.9a28.554,28.554,0,0,0-1.14,5.049l3.258.456a26.062,26.062,0,0,1,.945-4.512Z" transform="translate(0.119 10.627)"/>
    <path id="Trazado_128027" data-name="Trazado 128027" d="M18.939,11.83,17.147,9.11a29.987,29.987,0,0,0-4.007,3.16l2.215,2.378a27.283,27.283,0,0,1,3.583-2.818Z" transform="translate(3.716 4.471)"/>
    <path id="Trazado_128028" data-name="Trazado 128028" d="M14.683,15.341,12.044,13.37a31.094,31.094,0,0,0-2.7,4.284l2.883,1.515a27.967,27.967,0,0,1,2.46-3.828Z" transform="translate(1.327 7.15)"/>
    <path id="Trazado_128029" data-name="Trazado 128029" d="M17.572,40.52,14.64,41.937q1.017,2.079,1.824,4.251l3.062-1.124a48.538,48.538,0,0,0-1.955-4.544Z" transform="translate(4.66 24.223)"/>
    <path id="Trazado_128030" data-name="Trazado 128030" d="M8.45,31.669A30.557,30.557,0,0,0,10.7,36.214l2.785-1.629a27.235,27.235,0,0,1-1.987-4.1Z" transform="translate(0.767 17.909)"/>
    <path id="Trazado_128031" data-name="Trazado 128031" d="M14.165,35.29,11.64,37.342A36.4,36.4,0,0,1,14.3,41.121l2.769-1.629a40.558,40.558,0,0,0-2.9-4.2Z" transform="translate(2.773 20.934)"/>
    <path id="Trazado_128032" data-name="Trazado 128032" d="M10.488,25l-3.258.1a30.948,30.948,0,0,0,.57,5.066l3.258-.635A27.919,27.919,0,0,1,10.488,25Z" transform="translate(0 14.463)"/>
    <path id="Trazado_128033" data-name="Trazado 128033" d="M19,56H41.8v3.258H19Z" transform="translate(7.401 33.957)"/>
    <path id="Trazado_128034" data-name="Trazado 128034" d="M21,60H37.288v3.258H21Z" transform="translate(8.659 36.473)"/>
    <path id="Trazado_128035" data-name="Trazado 128035" d="M80.154,16.48a22.8,22.8,0,0,0-1.14-2.867,3.258,3.258,0,0,0,0-4.658L76.456,6.479a3.5,3.5,0,0,0-2.362-.961,3.453,3.453,0,0,0-2.362.977,22.543,22.543,0,0,0-2.818-1.238A3.258,3.258,0,0,0,65.657,2H62.106a3.258,3.258,0,0,0-3.258,3.258,23.08,23.08,0,0,0-2.916,1.156,3.388,3.388,0,0,0-4.658,0L48.8,8.955a3.355,3.355,0,0,0-.961,2.362,3.258,3.258,0,0,0,.228,1.189A30.1,30.1,0,0,0,36.4,8.711a31.256,31.256,0,0,0-3.486-.2,19.319,19.319,0,0,0-2.574.114l.261,3.258a15.609,15.609,0,0,1,2.313-.114,28.749,28.749,0,0,1,3.127.179,27.185,27.185,0,0,1,24.042,23.96,26.648,26.648,0,0,1-6.222,20.2,45.363,45.363,0,0,0-9.219,20.817H39.433V49.236h1.629v1.629a1.629,1.629,0,0,0,1.629,1.629h6.515a1.629,1.629,0,0,0,1.629-1.629V44.35a1.629,1.629,0,0,0-1.629-1.629H42.69a1.629,1.629,0,0,0-1.629,1.629v1.629H37.8a1.629,1.629,0,0,0-1.629,1.629V76.927H34.546V37.835a1.629,1.629,0,0,0-1.629-1.629H29.66V34.577a1.629,1.629,0,0,0-1.629-1.629H21.515a1.629,1.629,0,0,0-1.629,1.629v6.515a1.629,1.629,0,0,0,1.629,1.629h6.515a1.629,1.629,0,0,0,1.629-1.629V39.463h1.629V76.927H29.66V52.494a1.629,1.629,0,0,0-1.629-1.629H24.773V49.236a1.629,1.629,0,0,0-1.629-1.629H16.629A1.629,1.629,0,0,0,15,49.236v6.515a1.629,1.629,0,0,0,1.629,1.629h6.515a1.629,1.629,0,0,0,1.629-1.629V54.123H26.4v22.8H21.271v-.244l-1.629.244,1.629-.244c-.13-.831-.277-1.629-.489-2.525l-3.258.733c.179.782.326,1.531.44,2.28a20.247,20.247,0,0,1,.293,3.013v4.887A1.629,1.629,0,0,0,19.887,86.7H45.948a1.629,1.629,0,0,0,1.629-1.629V80.184a41.21,41.21,0,0,1,8.779-22.022,29.808,29.808,0,0,0,7.02-17.07h2.248a3.258,3.258,0,0,0,3.258-3.339,22.8,22.8,0,0,0,2.867-1.14,3.388,3.388,0,0,0,4.658,0l2.476-2.476a3.355,3.355,0,0,0,.961-2.362,3.453,3.453,0,0,0-.977-2.362A22.543,22.543,0,0,0,80.154,26.6a3.258,3.258,0,0,0,3.258-3.258V19.787a3.258,3.258,0,0,0-3.258-3.307Zm-35.835,29.5h3.258v3.258H44.319ZM26.4,39.463H23.144V36.206H26.4Zm-4.887,14.66H18.258V50.865h3.258Zm22.8,29.319h-22.8V80.184h22.8ZM56.128,19.1A8.144,8.144,0,1,1,63.865,29.69a7.867,7.867,0,0,1-1.873-.244A30.394,30.394,0,0,0,56.128,19.1Zm24.025,4.235a3.258,3.258,0,0,0-3.258,2.28,13.944,13.944,0,0,1-.928,2.28,3.144,3.144,0,0,0-.391,1.531,3.535,3.535,0,0,0,.977,2.394L74.045,34.3a3.258,3.258,0,0,0-3.877-.6,13.373,13.373,0,0,1-2.264.945A3.388,3.388,0,0,0,65.559,37.9H63.442a14.849,14.849,0,0,0-.114-2.248c-.114-.749-.244-1.824-.423-2.72a9.563,9.563,0,0,0,.961.016A11.4,11.4,0,1,0,53.652,16.66c-.6-.554-1.222-1.075-1.873-1.629a3.258,3.258,0,0,0,.309-1.336,3.535,3.535,0,0,0-.977-2.394L53.62,8.825a3.258,3.258,0,0,0,3.877.6,13.031,13.031,0,0,1,2.313-.912,3.388,3.388,0,0,0,2.3-3.258h3.551a3.258,3.258,0,0,0,2.3,3.258,15.132,15.132,0,0,1,2.264.945,3.453,3.453,0,0,0,3.925-.586l2.476,2.508a3.258,3.258,0,0,0-.6,3.877,13.372,13.372,0,0,1,.88,2.183,3.388,3.388,0,0,0,3.258,2.346Z" transform="translate(4.886)"/>
  </g>
</svg>
