<svg xmlns="http://www.w3.org/2000/svg" width="399" height="423" viewBox="0 0 399 423">
  <g id="Grupo_88782" data-name="Grupo 88782" transform="translate(-601 -3440)">
    <rect id="Rect치ngulo_25826" data-name="Rect치ngulo 25826" width="399" height="423" transform="translate(601 3440)" fill="#cbeeff"/>
    <text id="Vitrinas_de_temporada" data-name="Vitrinas de temporada" transform="translate(800 3646)" fill="#12263f" font-size="24" font-family="Roboto-Medium, Roboto" font-weight="500"><tspan x="-118.91" y="0">Vitrinas de temporada</tspan></text>
    <circle id="Elipse_4179" data-name="Elipse 4179" cx="47" cy="47" r="47" transform="translate(757 3502)" fill="#53bced"/>
    <text id="_2" data-name="2" transform="translate(793 3563)" fill="#12263f" font-size="40" font-family="Roboto-Bold, Roboto" font-weight="700"><tspan x="0" y="0">2</tspan></text>
    <g id="Grupo_87040" data-name="Grupo 87040">
      <rect id="Rect치ngulo_25832" data-name="Rect치ngulo 25832" width="142" height="142" transform="translate(729 3683)" fill="none"/>
      <g id="dia-de-san-valentin" transform="translate(750.66 3705.302)">
        <g id="Grupo_88751" data-name="Grupo 88751" transform="translate(2.223 1.783)">
          <path id="Trazado_128625" data-name="Trazado 128625" d="M102.523,151.375V201.56a3.434,3.434,0,0,1-3.433,3.433H11.721a3.434,3.434,0,0,1-3.433-3.433V151.371l0,0,43.418-1.587Z" transform="translate(-8.288 -123.001)" fill="#eaf6ff"/>
          <path id="Trazado_128626" data-name="Trazado 128626" d="M102.523,68.091V82.483H8.29l0,0V68.091a3.434,3.434,0,0,1,3.433-3.433H99.089a3.434,3.434,0,0,1,3.433,3.433Z" transform="translate(-8.288 -54.108)" fill="#ff9a9f"/>
          <path id="Trazado_128627" data-name="Trazado 128627" d="M94.079,29.611H86.725a3.433,3.433,0,0,1-3.433-3.433V12.785a3.433,3.433,0,0,1,3.433-3.433h7.354a3.433,3.433,0,0,1,3.433,3.433V26.178A3.433,3.433,0,0,1,94.079,29.611Z" transform="translate(-68.986 -9.351)" fill="#ffe07d"/>
          <path id="Trazado_128628" data-name="Trazado 128628" d="M363.568,29.611h-7.354a3.433,3.433,0,0,1-3.433-3.433V12.785a3.433,3.433,0,0,1,3.433-3.433h7.354A3.433,3.433,0,0,1,367,12.785V26.178A3.433,3.433,0,0,1,363.568,29.611Z" transform="translate(-287.073 -9.351)" fill="#ffe07d"/>
          <path id="Trazado_128629" data-name="Trazado 128629" d="M16.49,208.437H11.721A3.434,3.434,0,0,1,8.288,205V154.815l0,0,2.478-.775,2.288.775V205a3.433,3.433,0,0,0,3.433,3.433Z" transform="translate(-8.288 -126.444)" fill="#c4e2ff"/>
          <path id="Trazado_128630" data-name="Trazado 128630" d="M13.056,68.091V82.479l0,0H8.29l0,0V68.091a3.434,3.434,0,0,1,3.433-3.433H16.49A3.434,3.434,0,0,0,13.056,68.091Z" transform="translate(-8.288 -54.108)" fill="#ff8086"/>
          <path id="Trazado_128631" data-name="Trazado 128631" d="M91.49,29.608H86.721a3.434,3.434,0,0,1-3.433-3.433V12.781a3.434,3.434,0,0,1,3.433-3.433H91.49a3.434,3.434,0,0,0-3.433,3.433V26.175A3.434,3.434,0,0,0,91.49,29.608Z" transform="translate(-68.983 -9.348)" fill="#ffc250"/>
          <path id="Trazado_128632" data-name="Trazado 128632" d="M360.98,29.608h-4.768a3.434,3.434,0,0,1-3.433-3.433V12.781a3.434,3.434,0,0,1,3.433-3.433h4.768a3.434,3.434,0,0,0-3.433,3.433V26.175A3.434,3.434,0,0,0,360.98,29.608Z" transform="translate(-287.07 -9.348)" fill="#ffc250"/>
          <path id="Trazado_128633" data-name="Trazado 128633" d="M193.277,335.789l-10.07,17.441a.346.346,0,0,1-.473.127l-17.441-10.07c-13.6-7.851-3.6-25.4,9.95-17.907a.346.346,0,0,0,.464-.125C184.492,310.563,201.948,320.771,193.277,335.789Z" transform="translate(-130.107 -259.221)" fill="#ff9a9f"/>
          <path id="Trazado_128634" data-name="Trazado 128634" d="M184.97,373.985l-1.762,3.054a.347.347,0,0,1-.473.126L165.293,367.1C154.741,361,158.4,349.072,166.9,347.533c-5.039,4-5.757,12.694,2.741,17.6Z" transform="translate(-130.106 -283.028)" fill="#ff8086"/>
        </g>
        <g id="Grupo_88752" data-name="Grupo 88752" transform="translate(0.793)">
          <path id="Trazado_128635" data-name="Trazado 128635" d="M119.568,213.434a1.431,1.431,0,1,0,0-2.861h-4.949A1.431,1.431,0,0,0,113.188,212v12.212a1.431,1.431,0,1,0,2.861,0v-4.791h3.126a1.431,1.431,0,0,0,0-2.861h-3.126v-3.129Z" transform="translate(-91.75 -170.409)"/>
          <path id="Trazado_128636" data-name="Trazado 128636" d="M171.164,213.492a1.431,1.431,0,0,0,0-2.861h-5.136a1.431,1.431,0,0,0-1.431,1.431v12.19a1.431,1.431,0,0,0,1.431,1.431h5.136a1.431,1.431,0,0,0,0-2.861h-3.706v-3.234h3.327a1.431,1.431,0,1,0,0-2.861h-3.327v-3.234h3.706Z" transform="translate(-133.353 -170.455)"/>
          <path id="Trazado_128637" data-name="Trazado 128637" d="M221.99,210.337h-3.573a1.431,1.431,0,0,0-1.431,1.431v12.3a1.43,1.43,0,0,0,1.431,1.431h.006s3.285-.015,4.191-.015a4.739,4.739,0,0,0,2.9-8.491,4.259,4.259,0,0,0-3.522-6.657Zm0,2.861a1.4,1.4,0,0,1,0,2.8c-.01,0-.021,0-.031,0h-2.111v-2.8Zm.624,9.426c-.508,0-1.76,0-2.767.009v-3.77h2.767a1.881,1.881,0,0,1,0,3.762Z" transform="translate(-175.75 -170.218)"/>
          <path id="Trazado_128638" data-name="Trazado 128638" d="M303.551,225.683a1.431,1.431,0,0,0,1.431-1.431v-12.19a1.431,1.431,0,0,0-1.431-1.431H300.8a1.431,1.431,0,0,0,0,2.861h1.319v10.759A1.431,1.431,0,0,0,303.551,225.683Z" transform="translate(-242.421 -170.456)"/>
          <path id="Trazado_128639" data-name="Trazado 128639" d="M347.9,225.68h.013a1.43,1.43,0,0,0,1.43-1.418c0-.52.011-1.286.019-2.18h.225a1.431,1.431,0,1,0,0-2.861h-.2c.018-2.944.027-6-.012-6.442a2.315,2.315,0,0,0-1.527-2.054,2.276,2.276,0,0,0-2.436.826c-.735.854-4.116,6.63-5.135,8.38a1.431,1.431,0,0,0,1.236,2.15h4.993c-.006.762-.012,1.493-.018,2.154A1.43,1.43,0,0,0,347.9,225.68Zm-3.895-6.459c.942-1.6,1.856-3.118,2.532-4.21,0,1.14-.007,2.645-.016,4.21Z" transform="translate(-275.367 -170.453)"/>
          <path id="Trazado_128640" data-name="Trazado 128640" d="M93.023,10.549H83.581V4.864A4.869,4.869,0,0,0,78.717,0H71.364A4.869,4.869,0,0,0,66.5,4.864v5.685H32.179V4.864A4.869,4.869,0,0,0,27.315,0H19.962A4.869,4.869,0,0,0,15.1,4.864v5.685H5.657A4.869,4.869,0,0,0,.793,15.412V79.989a4.869,4.869,0,0,0,4.864,4.864H33.627a17.227,17.227,0,0,0,3.067,2.236l17.441,10.07a1.778,1.778,0,0,0,2.427-.65l6.729-11.655H76.123a1.431,1.431,0,1,0,0-2.861H64.944l1.689-2.925c2.189-3.791,2.988-7.614,2.309-11.057A10.639,10.639,0,0,0,55.04,59.8a15.291,15.291,0,0,0-7.9,6.422,13.286,13.286,0,0,0-9.328-1.125,11.276,11.276,0,0,0-7.866,13.981,11.788,11.788,0,0,0,1.3,2.917H5.657a2,2,0,0,1-2-2V31.234H24.88a1.431,1.431,0,1,0,0-2.861H3.654V15.412a2,2,0,0,1,2-2H15.1v4.846a4.869,4.869,0,0,0,4.864,4.864h7.354a4.869,4.869,0,0,0,4.864-4.864V13.41H66.5v4.846a4.869,4.869,0,0,0,4.864,4.864h7.354a4.869,4.869,0,0,0,4.864-4.864V13.41h9.442a2,2,0,0,1,2,2V28.373H31.555a1.431,1.431,0,0,0,0,2.861h63.47V79.989a2,2,0,0,1-2,2H82.8a1.431,1.431,0,1,0,0,2.861H93.023a4.869,4.869,0,0,0,4.864-4.864V15.412a4.869,4.869,0,0,0-4.864-4.864ZM33.458,71.833a8.435,8.435,0,0,1,7.436-4.272A11.943,11.943,0,0,1,46.667,69.2a1.769,1.769,0,0,0,2.383-.643c4.024-6.73,9.743-7.513,13.353-5.391,3.635,2.136,5.734,7.577,1.751,14.475l-9.528,16.5-16.5-9.528c-6.157-3.555-6.735-9.116-4.666-12.778Zm-4.14-53.577a2,2,0,0,1-2,2H19.962a2,2,0,0,1-2-2V4.864a2,2,0,0,1,2-2h7.354a2,2,0,0,1,2,2Zm51.4,0a2,2,0,0,1-2,2H71.364a2,2,0,0,1-2-2V4.864a2,2,0,0,1,2-2h7.354a2,2,0,0,1,2,2Z" transform="translate(-0.793)"/>
        </g>
      </g>
    </g>
  </g>
</svg>
