<svg xmlns="http://www.w3.org/2000/svg" width="346.838" height="572.313" viewBox="0 0 346.838 572.313">
  <g id="Grupo_88685" data-name="Grupo 88685" transform="translate(-254.505 -54.953)">
    <g id="Background_Complete" data-name="Background Complete" transform="translate(254.505 54.953)">
      <path id="Trazado_128453" data-name="Trazado 128453" d="M591.661,534.637H264.184a9.691,9.691,0,0,1-9.679-9.68V64.632a9.689,9.689,0,0,1,9.679-9.679H591.661a9.691,9.691,0,0,1,9.682,9.679V524.957A9.692,9.692,0,0,1,591.661,534.637ZM264.184,55.377a9.265,9.265,0,0,0-9.255,9.255V524.957a9.265,9.265,0,0,0,9.255,9.256H591.661a9.267,9.267,0,0,0,9.258-9.256V64.632a9.267,9.267,0,0,0-9.258-9.255Z" transform="translate(-254.505 -54.953)" fill="#ebebeb"/>
      <g id="Grupo_88661" data-name="Grupo 88661" transform="translate(75.561 12.263)">
        <rect id="Rectángulo_26086" data-name="Rectángulo 26086" width="5.642" height="49.301" transform="translate(29.921)" fill="#e0e0e0"/>
        <rect id="Rectángulo_26087" data-name="Rectángulo 26087" width="5.642" height="49.301" transform="translate(245.067)" fill="#e0e0e0"/>
        <rect id="Rectángulo_26088" data-name="Rectángulo 26088" width="271.277" height="164.891" transform="translate(0 45.82)" fill="#ebebeb"/>
        <rect id="Rectángulo_26089" data-name="Rectángulo 26089" width="245.547" height="149.252" transform="translate(8.407 52.128)" fill="#fafafa"/>
        <rect id="Rectángulo_26090" data-name="Rectángulo 26090" width="9.263" height="164.891" transform="translate(262.014 45.82)" fill="#e0e0e0"/>
      </g>
    </g>
    <g id="Character" transform="translate(376.643 150.536)">
      <g id="Grupo_88677" data-name="Grupo 88677">
        <g id="Grupo_88676" data-name="Grupo 88676">
          <g id="Grupo_88675" data-name="Grupo 88675">
            <g id="Character--inject-166" transform="translate(0 60.815)">
              <path id="Trazado_128454" data-name="Trazado 128454" d="M414.737,170.434c-.415,1.145-.729,1.976-1.116,2.947s-.758,1.832-1.158,2.732c-.773,1.818-1.645,3.592-2.518,5.351a102.171,102.171,0,0,1-5.98,10.372,76.168,76.168,0,0,1-7.64,9.9,49.734,49.734,0,0,1-4.822,4.649c-.872.744-1.83,1.431-2.79,2.161l-1.53,1.029-1,.616c-.371.229-.743.416-1.116.616a23.273,23.273,0,0,1-8.454,2.3,36.142,36.142,0,0,1-7.153-.114,60.6,60.6,0,0,1-12.233-2.863,97.226,97.226,0,0,1-20.972-10.272l4.42-9.4a186.61,186.61,0,0,0,20.3,4.464,53.494,53.494,0,0,0,9.4.658,17.48,17.48,0,0,0,3.777-.458,5,5,0,0,0,2-.872v-.086l.142-.129.687-.6c.458-.444.931-.873,1.431-1.431.929-.987,1.859-2.088,2.775-3.261a78.2,78.2,0,0,0,5.193-7.9c1.618-2.863,3.192-5.795,4.65-8.827.745-1.431,1.431-3.048,2.145-4.579l1.031-2.288,2.722-6.283Z" transform="translate(-319.753 -139.032)" fill="#407bff"/>
              <path id="Trazado_128455" data-name="Trazado 128455" d="M342.171,186.721l-9.08,1.153V175.647s9,1.045,12.787,5.561Z" transform="translate(-321.954 -127.359)" fill="#ffb573"/>
              <path id="Trazado_128456" data-name="Trazado 128456" d="M326.524,187.142l1.246-8.364,9.922-3.131-.031,12.227Z" transform="translate(-326.524 -127.358)" fill="#ffb573"/>
              <g id="Grupo_88664" data-name="Grupo 88664" transform="translate(187.187 316.859)">
                <g id="Grupo_88663" data-name="Grupo 88663" transform="translate(4.142 13.584)">
                  <path id="Trazado_128457" data-name="Trazado 128457" d="M439.522,385.159a20.328,20.328,0,0,1,3.392-5.885h0s5.7-10.956,0-29.272l8.173-7.923c2.22-.351,4.557.909,6.348,2.266,1.238,1.576,2.147,1.984,3.168,3.707,3.392,5.223,10.837,17.2,10.837,17.2l-1.238.78a107.666,107.666,0,0,0-7.886-10.175c-2.951-3-2.629,2.595-1.357,7.309s-1.442,12.363-9.328,17.688C442.49,387.092,438.4,389.144,439.522,385.159Z" transform="translate(-439.341 -342.02)" fill="#263238"/>
                  <g id="Grupo_88662" data-name="Grupo 88662" transform="translate(3.576 1.221)">
                    <path id="Trazado_128458" data-name="Trazado 128458" d="M452.473,358.5c.153,3.154,2.544,8.6-.068,12.889a15.283,15.283,0,0,1-10.956,7.394s4.46-8.53,1.56-23.132a59.4,59.4,0,0,0-1.56-6.139s7.14-5.834,10.515-6.767l2.035,4.8a44.32,44.32,0,0,1-1.408,9.633A3.6,3.6,0,0,0,452.473,358.5Z" transform="translate(-441.45 -342.74)" fill="#ffb573"/>
                  </g>
                </g>
                <path id="Trazado_128459" data-name="Trazado 128459" d="M457.166,353.615a44.32,44.32,0,0,1-1.408,9.633,3.6,3.6,0,0,0-.119,1.323l-6.852,3.307-2.612-6.156L436.9,339.793l11.973-5.783,6.258,14.805Z" transform="translate(-436.898 -334.01)" fill="#ffb573"/>
                <path id="Trazado_128460" data-name="Trazado 128460" d="M448.874,334.018,436.9,339.789l4.721,11.149h.156a15.833,15.833,0,0,0,11.955-5.452h0Z" transform="translate(-436.899 -334.004)" opacity="0.2" style="isolation: isolate"/>
              </g>
              <g id="Grupo_88667" data-name="Grupo 88667" transform="translate(96.98 309.068)">
                <g id="Grupo_88665" data-name="Grupo 88665" transform="translate(0 31.393)">
                  <path id="Trazado_128461" data-name="Trazado 128461" d="M384.689,378.555a20.454,20.454,0,0,1,6.037-3.1h0s10.7-6.156,15.772-24.659l11.363-2.866a8.182,8.182,0,0,1,4.443,4.715,44.069,44.069,0,0,1,.187,6c.1,6.258-.136,22.471-.136,22.471H420.88a145.346,145.346,0,0,0-1.187-14.873c-.865-4.121-3.612.746-5.088,5.41s-7.869,9.633-17.4,9.87C386.063,381.76,381.535,381.269,384.689,378.555Z" transform="translate(-383.709 -347.927)" fill="#263238"/>
                </g>
                <g id="Grupo_88666" data-name="Grupo 88666" transform="translate(7.023)">
                  <path id="Trazado_128462" data-name="Trazado 128462" d="M413.56,366.775a22.039,22.039,0,0,1-4.664,6.173c-2.2,1.849-2.612,9.311-7.835,11.871a15.41,15.41,0,0,1-13.211.322s8.066-4.642,13.511-18a15.762,15.762,0,0,0,.68-9.741l-5.2-20.9,13.822-2.493,4.732,25.15C415.6,362.773,414.917,365.164,413.56,366.775Z" transform="translate(-387.85 -326.219)" fill="#ffb573"/>
                  <path id="Trazado_128463" data-name="Trazado 128463" d="M392.267,331.711l4.113,18.484,1.224.217a14.824,14.824,0,0,0,11.9-3.064h0l-3.232-17.931Z" transform="translate(-384.776 -329.416)" opacity="0.2" style="isolation: isolate"/>
                </g>
              </g>
              <g id="Grupo_88669" data-name="Grupo 88669" transform="translate(76.362 2.315)">
                <path id="Trazado_128464" data-name="Trazado 128464" d="M439,164.651q-.056-.8-.188-1.591a17.338,17.338,0,0,0-19.927-14.288h-.3c-1.174.2-2.361.414-3.533.658a173.036,173.036,0,0,0-23.663,6.009c-1.316.414-2.661.914-3.977,1.43-1.789.7-3.563,1.416-5.251,2.132a17.34,17.34,0,0,0-10.014,20.473c2.408,8.944,5.634,23.273,16.384,42.211,2.473,4.358,3.256,13.388,5.432,18.8l52.1-13.2.086.1C442.747,211.046,440.315,182.977,439,164.651Z" transform="translate(-371.551 -148.538)" fill="#407bff"/>
                <g id="Grupo_88668" data-name="Grupo 88668">
                  <path id="Trazado_128465" data-name="Trazado 128465" d="M439,164.651q-.056-.8-.188-1.591a17.338,17.338,0,0,0-19.927-14.288h-.3c-1.174.2-2.361.414-3.533.658a173.036,173.036,0,0,0-23.663,6.009c-1.316.414-2.661.914-3.977,1.43-1.789.7-3.563,1.416-5.251,2.132a17.34,17.34,0,0,0-10.014,20.473c2.452,9.11,7.633,19.691,16.74,43.127,1.675,4.311,3.1,12.96,5.076,17.889l52.1-13.2.086.1C442.747,211.046,440.315,182.977,439,164.651Z" transform="translate(-371.551 -148.538)" fill="#fff" opacity="0.8"/>
                </g>
              </g>
              <path id="Trazado_128466" data-name="Trazado 128466" d="M386.771,207.23S382,271.177,381.885,322.909c-.086,41.129,16.4,114.21,16.4,114.21a28.7,28.7,0,0,0,21.3-4c.438,3.049.095-55.572-4.033-95.1a55.735,55.735,0,0,1,.987-17.766c11.96-54.393,28.186-104.753,12.085-123.927Z" transform="translate(-287.998 -112.966)" fill="#263238"/>
              <path id="Trazado_128467" data-name="Trazado 128467" d="M401.567,230.809l21.1-13.433c-1.945,20.514-8.669,46.5-15.092,74.206C400.494,270.18,396.6,247.662,401.567,230.809Z" transform="translate(-275.854 -98.319)" opacity="0.3" style="isolation: isolate"/>
              <path id="Trazado_128468" data-name="Trazado 128468" d="M390.374,208.342s16.913,51.371,28.6,100.81c5.768,35.667,49.08,131.834,49.08,131.834l6.582-1.6a17.381,17.381,0,0,0,8.239-4.652l2.144-2.162s-10.257-48.61-20.844-80.629a149.912,149.912,0,0,1-7.46-40.015c-2.379-50.5-6.439-99.569-26.11-115.5Z" transform="translate(-282.09 -112.895)" fill="#263238"/>
              <path id="Trazado_128469" data-name="Trazado 128469" d="M397.91,149.433s-2.534,61.8,15.279,141.088c22.89-2.474,36.695-9.514,36.695-9.514s-6.806-43.142-21.988-64.558c-3.176-15.394-2.6-48.561-4.635-60.563a9.671,9.671,0,0,0-8.7-7.983C410.155,147.53,404.075,148.374,397.91,149.433Z" transform="translate(-276.932 -146.729)" fill="#407bff"/>
              <path id="Trazado_128470" data-name="Trazado 128470" d="M391.286,152.109s-1.6,29.314,22.432,137.8c-7.225,4.292-23.163,3.721-23.163,3.721s-1.5-36.459-.417-65.676c.524-14.2-9.831-15.8-16.377-31.154-3.719-17.968-2.719-32.779-.243-34.973C377.48,158.275,384.062,153.383,391.286,152.109Z" transform="translate(-295.358 -143.739)" fill="#407bff"/>
              <path id="Trazado_128471" data-name="Trazado 128471" d="M397.7,149.134s.148,25.23,1.431,43.648c1.287-13.133,5.279-25.837,4.964-29.943a30.67,30.67,0,0,1-3.948-2.218,24.111,24.111,0,0,1,4.635-3.319c0-1.874,0-8.725-.315-9.283C400.817,148.518,397.7,149.134,397.7,149.134Z" transform="translate(-276.993 -146.586)" opacity="0.7" style="isolation: isolate"/>
              <path id="Trazado_128472" data-name="Trazado 128472" d="M386.014,151.974s-.1,15.836,4.048,43.534c-4.621-11.446-10.415-22.3-10.143-26.7,2.032-1.874,3.806-3.921,3.806-3.921a13.6,13.6,0,0,0-4.477-1.545,86.959,86.959,0,0,1,.271-9.77C383.024,152.6,386.014,151.974,386.014,151.974Z" transform="translate(-289.857 -143.833)" opacity="0.7" style="isolation: isolate"/>
              <g id="Grupo_88670" data-name="Grupo 88670" transform="translate(128.72)">
                <path id="Trazado_128473" data-name="Trazado 128473" d="M418.3,150.066c2.876,3.132,5.909,6.438,8.927,9.657s6.051,6.409,9.127,9.428,6.194,5.966,9.27,8.583a53.04,53.04,0,0,0,4.492,3.448c.7.487,1.358.887,1.889,1.189s.9.414.672.414h-2.661a7.9,7.9,0,0,0,4.506-1.86,38.944,38.944,0,0,0,6.109-5.636,89.41,89.41,0,0,0,5.88-7.282c1.9-2.547,3.777-5.335,5.522-7.9l9.614,3.862a74.988,74.988,0,0,1-3.348,10.472,73.388,73.388,0,0,1-4.893,10.014,47.2,47.2,0,0,1-7.354,9.643,31.666,31.666,0,0,1-5.593,4.377,22.547,22.547,0,0,1-7.825,3.005l-1.145.2-1.516-.2a23.077,23.077,0,0,1-5.824-1.618,38.309,38.309,0,0,1-4.135-2.016,62.941,62.941,0,0,1-6.694-4.377,131.893,131.893,0,0,1-11.288-9.343c-3.534-3.205-6.882-6.551-10.143-9.914s-6.367-6.78-9.472-10.515Z" transform="translate(-402.424 -145.161)" fill="#407bff"/>
                <path id="Trazado_128474" data-name="Trazado 128474" d="M445.377,164.975a18.3,18.3,0,0,1-2.1-12.6l15.229,1.933-4.964,8.615Z" transform="translate(-374.227 -143.553)" fill="#ffb573"/>
                <path id="Trazado_128475" data-name="Trazado 128475" d="M458.369,157.93,443.139,156l6.581-8.823,11.087,4.185Z" transform="translate(-374.09 -147.174)" fill="#ffb573"/>
              </g>
            </g>
            <g id="Grupo_88672" data-name="Grupo 88672" transform="translate(93.297 45.154)">
              <path id="Trazado_128476" data-name="Trazado 128476" d="M382.955,160.24c-.96,3.487-2.279,9.728-.646,12.105.112-1.362,2.608-5.973,4.728-4.058a12.4,12.4,0,0,1,1.86,1.972q2.04,2.88,4.079,5.756c.594.836,1.34,1.759,2.364,1.777,1.219.022,2.023-1.218,2.583-2.3l3.46-6.711a10.172,10.172,0,0,1,3.126-4.121c1.464-.951,7.007.577,7.978,2.027-.054-3.994.449-12.5,0-14.807s-5.268-5.227-7.594-5.568a8.287,8.287,0,0,0-4.5,1.062C394.1,150.238,385.005,152.785,382.955,160.24Z" transform="translate(-381.537 -132.145)" fill="#fff"/>
              <g id="Grupo_88671" data-name="Grupo 88671" transform="translate(5.069)">
                <path id="Trazado_128477" data-name="Trazado 128477" d="M398.536,141.363c1.1,6.509,3.261,13.033,7.309,15.379,0,0,4.428,4.979-8.775,15.719-2.169,1.932-5.449,4.023-7.618,2.091-4.542-4.18-4.793-8.23-4.267-10.8a7.625,7.625,0,0,1,2.156-3.677c2.881-2.985.78-6.178-2.625-16.064l6.166-4.292a4.292,4.292,0,0,1,7.654,1.645Z" transform="translate(-384.393 -137.919)" fill="#ffb573"/>
                <path id="Trazado_128478" data-name="Trazado 128478" d="M391.028,139.681a4.292,4.292,0,0,1,7.5,1.116,27.679,27.679,0,0,1-10.27,13.12c-.385-2.624-2.564-5.174-3.651-7.582-.358-.794.677-1.572.246-2.332Z" transform="translate(-384.526 -137.939)" opacity="0.2" style="isolation: isolate"/>
              </g>
            </g>
            <g id="Grupo_88673" data-name="Grupo 88673" transform="translate(70.293 0.353)">
              <path id="Trazado_128479" data-name="Trazado 128479" d="M400.213,113.822c-3.205-2.6-7.871-2.858-11.754-1.457s-7.087,4.236-9.809,7.34a42.791,42.791,0,0,0-9.9,19,32.091,32.091,0,0,0,2.42,21.1,17.633,17.633,0,0,0,6.818,7.643c4.754,2.647,10.891,1.92,15.56-.875S401.573,159.2,404,154.33c3.166-6.358,8.151-21.959,1.83-33.2C402.819,115.772,400.213,113.822,400.213,113.822Z" transform="translate(-367.972 -111.522)" fill="#263238"/>
            </g>
            <path id="Trazado_128480" data-name="Trazado 128480" d="M398.371,147.931c-5.607,2.658-8.6,4.939-10,3.882-1.8-1.355,2.841-8.664,3.11-10.9a16.731,16.731,0,0,1,7.074-11.89,13.724,13.724,0,0,1,13.581-.958,9.826,9.826,0,0,1,5.144,6.243c.641,2.781-1.681,4.713-3.6,6.477C409.466,144.651,403.546,145.479,398.371,147.931Z" transform="translate(-283.773 -100.609)" fill="#263238"/>
            <path id="Trazado_128481" data-name="Trazado 128481" d="M409.757,132.79c.466,13.232.956,18.818-4.913,26.358-8.829,11.327-24.837,9.358-29.231-3.4-3.919-11.475-4.041-31.179,8.084-37.963S409.278,119.539,409.757,132.79Z" transform="translate(-294.007 -108.472)" fill="#ffb573"/>
            <path id="Trazado_128482" data-name="Trazado 128482" d="M392.488,126.378c-2.595,1.5-1.448,13.9,4.886,13.035S401,121.47,392.488,126.378Z" transform="translate(-281.519 -101.446)" fill="#263238"/>
            <path id="Trazado_128483" data-name="Trazado 128483" d="M400.953,134.786a9.913,9.913,0,0,1-3.706,6.431c-2.693,2.062-5.2-.039-5.435-3.258-.205-2.937.931-7.432,4.1-8.235S401.374,131.664,400.953,134.786Z" transform="translate(-281.105 -98.6)" fill="#ffb573"/>
            <path id="Trazado_128484" data-name="Trazado 128484" d="M391.214,112.679c-17.807,4.28-15.73,16.164.288,22.8,8.9,3.65,20.977,12.6,14.688,28.581-2,5.086,26.221-15.173,17.251-25.435C406.187,118.886,404.8,107.159,391.214,112.679Z" transform="translate(-290.243 -111.314)" fill="#263238"/>
            <path id="Trazado_128485" data-name="Trazado 128485" d="M383.252,130.287c.107,1.063-.344,2-1.055,2.083s-1.328-.721-1.435-1.784.346-2.016,1.055-2.084S383.147,129.211,383.252,130.287Z" transform="translate(-288.79 -99.355)" fill="#263238"/>
            <path id="Trazado_128486" data-name="Trazado 128486" d="M376.243,131.128c.107,1.063-.344,2-1.057,2.083s-1.33-.707-1.435-1.786.346-2,1.057-2.083S376.138,130.05,376.243,131.128Z" transform="translate(-293.668 -98.771)" fill="#263238"/>
            <path id="Trazado_128487" data-name="Trazado 128487" d="M375.618,129.538l-2.593-.446S374.521,130.946,375.618,129.538Z" transform="translate(-294.163 -98.942)" fill="#263238"/>
            <path id="Trazado_128488" data-name="Trazado 128488" d="M378.829,131.025a32.757,32.757,0,0,1-2.878,8.288,4.953,4.953,0,0,0,4.241-.01Z" transform="translate(-292.127 -97.596)" fill="#ed893e"/>
            <path id="Trazado_128489" data-name="Trazado 128489" d="M386.328,127.96a.481.481,0,0,1-.276-.165,4.825,4.825,0,0,0-4.077-1.616.616.616,0,0,1-.724-.483l0-.019a.646.646,0,0,1,.519-.739,5.965,5.965,0,0,1,5.274,2,.644.644,0,0,1-.037.894A.619.619,0,0,1,386.328,127.96Z" transform="translate(-288.448 -101.868)" fill="#263238"/>
            <path id="Trazado_128490" data-name="Trazado 128490" d="M372.217,128.24l-.07-.1a.631.631,0,0,1,.149-.875,6.068,6.068,0,0,1,5.617-.833.657.657,0,0,1,.32.838.643.643,0,0,1-.814.339,4.836,4.836,0,0,0-4.472.683A.615.615,0,0,1,372.217,128.24Z" transform="translate(-294.853 -101.033)" fill="#263238"/>
            <path id="Trazado_128491" data-name="Trazado 128491" d="M382.622,128.688l-2.595-.446S381.519,130.111,382.622,128.688Z" transform="translate(-289.29 -99.533)" fill="#263238"/>
            <g id="Grupo_88674" data-name="Grupo 88674" transform="translate(88.025 41.717)">
              <path id="Trazado_128492" data-name="Trazado 128492" d="M378.428,139.01s3.3-1.477,13-3.1c-.526,3.49-2.164,6.522-7.147,7.314S378.428,139.01,378.428,139.01Z" transform="translate(-378.428 -135.912)" fill="#263238"/>
              <path id="Trazado_128493" data-name="Trazado 128493" d="M385.066,138.514a8.214,8.214,0,0,0-5.128,2.493,4.924,4.924,0,0,0,3.288.466,8.161,8.161,0,0,0,5.117-2.491A4.89,4.89,0,0,0,385.066,138.514Z" transform="translate(-377.377 -134.174)" fill="#ff5652"/>
              <path id="Trazado_128494" data-name="Trazado 128494" d="M378.683,138.811a2.191,2.191,0,0,0,1.811,1.386,45.653,45.653,0,0,0,8.43-2.261,2.7,2.7,0,0,0,1.894-1.981A72.245,72.245,0,0,0,378.683,138.811Z" transform="translate(-378.251 -135.882)" fill="#fff"/>
            </g>
          </g>
        </g>
      </g>
    </g>
    <g id="Platform" transform="translate(327.763 211.21)">
      <g id="Grupo_88684" data-name="Grupo 88684">
        <g id="Grupo_88681" data-name="Grupo 88681" transform="translate(15.484 81.377)">
          <g id="Grupo_88680" data-name="Grupo 88680">
            <path id="Trazado_128495" data-name="Trazado 128495" d="M369.887,243.876H319.4a8.8,8.8,0,0,1-8.595-7.9l-2.886-32.994a7.128,7.128,0,0,1,7.213-7.9h50.482a8.8,8.8,0,0,1,8.595,7.9l2.886,32.994A7.126,7.126,0,0,1,369.887,243.876Z" transform="translate(-306.094 -195.074)" fill="#407bff"/>
            <g id="Grupo_88679" data-name="Grupo 88679">
              <g id="Grupo_88678" data-name="Grupo 88678">
                <path id="Trazado_128496" data-name="Trazado 128496" d="M368.828,243.876H318.346a8.8,8.8,0,0,1-8.6-7.9l-2.886-32.994a7.128,7.128,0,0,1,7.213-7.9h50.482a8.8,8.8,0,0,1,8.595,7.9l2.887,32.994A7.124,7.124,0,0,1,368.828,243.876Z" transform="translate(-306.832 -195.074)" fill="#263238"/>
              </g>
              <path id="Trazado_128497" data-name="Trazado 128497" d="M368.828,243.876H318.346a8.8,8.8,0,0,1-8.6-7.9l-2.886-32.994a7.128,7.128,0,0,1,7.213-7.9h50.482a8.8,8.8,0,0,1,8.595,7.9l2.887,32.994A7.124,7.124,0,0,1,368.828,243.876Z" transform="translate(-306.832 -195.074)" fill="#fff" opacity="0.7" style="isolation: isolate"/>
            </g>
          </g>
          <path id="Trazado_128498" data-name="Trazado 128498" d="M333.7,212.972a4.751,4.751,0,0,1-4.808,5.269,5.869,5.869,0,0,1-5.73-5.269,4.752,4.752,0,0,1,4.81-5.269A5.864,5.864,0,0,1,333.7,212.972Z" transform="translate(-295.484 -186.285)" fill="#fff"/>
        </g>
        <g id="Grupo_88683" data-name="Grupo 88683" transform="translate(87.952)">
          <g id="Grupo_88682" data-name="Grupo 88682" transform="translate(0 2.291)">
            <path id="Trazado_128499" data-name="Trazado 128499" d="M352.424,276.328h-2.861V226.879a96.78,96.78,0,0,1,22.318-61.752l13.871-16.686,2.2,1.83-13.873,16.684a93.915,93.915,0,0,0-21.657,59.923Z" transform="translate(-349.563 -148.441)" fill="#263238"/>
          </g>
          <path id="Trazado_128500" data-name="Trazado 128500" d="M377.555,152.608a5.519,5.519,0,1,1-5.518-5.518A5.519,5.519,0,0,1,377.555,152.608Z" transform="translate(-337.765 -147.09)" fill="#263238"/>
        </g>
        <g id="Cabinet--inject-166" transform="translate(0 124.863)">
          <path id="Trazado_128501" data-name="Trazado 128501" d="M303.4,226.984H462.518l-12.381,238.3H315.785Z" transform="translate(-293.734 -216.354)" fill="#407bff"/>
          <path id="Trazado_128502" data-name="Trazado 128502" d="M303.4,226.984H462.518l-12.381,238.3H315.785Z" transform="translate(-293.734 -216.354)" fill="#fff" opacity="0.5"/>
          <path id="Trazado_128503" data-name="Trazado 128503" d="M362.263,226.984h61.273l-12.381,238.3H359.418Z" transform="translate(-254.753 -216.354)" opacity="0.1" style="isolation: isolate"/>
          <path id="Trazado_128504" data-name="Trazado 128504" d="M322.052,441.686h55.127L377.4,239.2H313.75Z" transform="translate(-286.534 -207.85)" fill="#407bff"/>
          <path id="Trazado_128505" data-name="Trazado 128505" d="M470.85,231.346H303.008a5.321,5.321,0,0,1-5.306-5.308h0a5.336,5.336,0,0,1,5.306-5.322H470.85a5.351,5.351,0,0,1,5.322,5.322h0A5.337,5.337,0,0,1,470.85,231.346Z" transform="translate(-297.702 -220.716)" fill="#407bff"/>
          <path id="Trazado_128506" data-name="Trazado 128506" d="M430.719,231.346H360.69a5.337,5.337,0,0,1-5.322-5.308h0a5.351,5.351,0,0,1,5.322-5.322h70.029a5.351,5.351,0,0,1,5.322,5.322h0A5.337,5.337,0,0,1,430.719,231.346Z" transform="translate(-257.571 -220.716)" opacity="0.3" style="isolation: isolate"/>
        </g>
        <rect id="Rectángulo_26091" data-name="Rectángulo 26091" width="261.764" height="42.265" transform="translate(0 373.792)" fill="#407bff"/>
        <rect id="Rectángulo_26092" data-name="Rectángulo 26092" width="135.704" height="42.036" transform="translate(126.06 374.02)" opacity="0.3" style="isolation: isolate"/>
      </g>
    </g>
  </g>
</svg>
