<svg xmlns="http://www.w3.org/2000/svg" width="100" height="88.574" viewBox="0 0 100 88.574">
  <g id="tarjeta-de-presentacion" transform="translate(0 -29.249)">
    <path id="Trazado_128225" data-name="Trazado 128225" d="M100.664,105H11.406A3.906,3.906,0,0,1,7.5,101.092V40.655a3.906,3.906,0,0,1,3.906-3.906h89.258a3.906,3.906,0,0,1,3.906,3.906v60.436A3.906,3.906,0,0,1,100.664,105Z" transform="translate(-6.035 -6.035)" fill="#c9f0fd"/>
    <path id="Trazado_128226" data-name="Trazado 128226" d="M468.361,40.653v60.437A3.906,3.906,0,0,1,464.455,105H459.59a3.906,3.906,0,0,0,3.906-3.906V40.653a3.906,3.906,0,0,0-3.906-3.906h4.865A3.906,3.906,0,0,1,468.361,40.653Z" transform="translate(-369.827 -6.034)" fill="#9ce6fb"/>
    <path id="Trazado_128227" data-name="Trazado 128227" d="M104.57,40.653V57.3H7.5V40.653a3.906,3.906,0,0,1,3.906-3.906h89.258A3.906,3.906,0,0,1,104.57,40.653Z" transform="translate(-6.035 -6.034)" fill="#dbbe36"/>
    <path id="Trazado_128228" data-name="Trazado 128228" d="M468.361,40.653V57.3H463.5V40.653a3.906,3.906,0,0,0-3.906-3.906h4.865A3.906,3.906,0,0,1,468.361,40.653Z" transform="translate(-369.827 -6.034)" fill="#fff8d8"/>
    <path id="Trazado_128229" data-name="Trazado 128229" d="M304.836,378.5l-1.98-13.811A7.938,7.938,0,0,0,295,357.878H283.185a7.938,7.938,0,0,0-7.857,6.811l-1.98,13.811a2.016,2.016,0,0,0,2,2.3h27.5A2.016,2.016,0,0,0,304.836,378.5Z" transform="translate(-219.943 -264.444)" fill="#688d97"/>
    <path id="Trazado_128230" data-name="Trazado 128230" d="M376.175,380.8H372.3a2.016,2.016,0,0,0,2-2.3l-1.979-13.811a7.938,7.938,0,0,0-7.858-6.812h3.872a7.936,7.936,0,0,1,7.856,6.812l1.982,13.811A2.018,2.018,0,0,1,376.175,380.8Z" transform="translate(-293.277 -264.445)" fill="#557983"/>
    <g id="Grupo_88583" data-name="Grupo 88583" transform="translate(55.138 78.492)">
      <path id="Trazado_128231" data-name="Trazado 128231" d="M331.226,357.878v3.565a4.456,4.456,0,0,0,8.912,0v-3.565Z" transform="translate(-321.671 -342.935)" fill="#f5a871"/>
      <circle id="Elipse_4362" data-name="Elipse 4362" cx="3.451" cy="3.451" r="3.451" transform="translate(21.121 0)" fill="#f5a871"/>
      <circle id="Elipse_4363" data-name="Elipse 4363" cx="3.451" cy="3.451" r="3.451" transform="translate(0 0)" fill="#f5a871"/>
    </g>
    <path id="Trazado_128232" data-name="Trazado 128232" d="M313.209,282.469a9.911,9.911,0,0,1-9.911-9.911V260.522H323.12v12.036A9.911,9.911,0,0,1,313.209,282.469Z" transform="translate(-244.06 -186.103)" fill="#fdd1a7"/>
    <path id="Trazado_128233" data-name="Trazado 128233" d="M318.571,229.568H303.3v-7.69a3.163,3.163,0,0,1,3.163-3.163h18.166a.832.832,0,0,1,.832.832v3.132a6.889,6.889,0,0,1-6.889,6.889Z" transform="translate(-244.06 -152.461)" fill="#c47a4a"/>
    <path id="Trazado_128234" data-name="Trazado 128234" d="M94.629,29.249H5.371A5.377,5.377,0,0,0,0,34.62V62.429a1.465,1.465,0,1,0,2.93,0v-9.7H78.32a1.465,1.465,0,0,0,0-2.93H2.93V34.62a2.444,2.444,0,0,1,2.441-2.441H94.629A2.444,2.444,0,0,1,97.07,34.62V49.8H84.961a1.465,1.465,0,1,0,0,2.93H97.07V95.056A2.444,2.444,0,0,1,94.629,97.5h-11a9.349,9.349,0,0,0-4.967-4.813,11.3,11.3,0,0,0,1.855-5.894,4.915,4.915,0,0,0,.009-9.695V76.008a8.323,8.323,0,0,0,2.34-5.789V67.087a2.3,2.3,0,0,0-2.3-2.3H62.4a4.633,4.633,0,0,0-4.628,4.628V77.1a4.923,4.923,0,0,0-4.086,4.489,21.306,21.306,0,0,1-5.445.617,1.048,1.048,0,0,1-.181-.018,5.4,5.4,0,0,1-.14-1.171c-.067-1.242-.207-3.826-3.025-4.2-2.255-.3-5.112,1.77-8.42,4.164a46.415,46.415,0,0,1-4.48,3c-1.653.9-2.121.715-2.124.713-.836-.582,1.154-4.241,2.111-6,1.659-3.05,3.092-5.684,1.908-7.533a2.982,2.982,0,0,0-2.451-1.4c-1.466-.056-4.154.62-10.529,7.195-3.489,3.6-6.534,7.383-6.989,7.979a1.465,1.465,0,0,0,2.329,1.778,107.77,107.77,0,0,1,7.224-8.189c6.183-6.271,7.9-5.832,7.911-5.831l.012.013c.113.729-1.2,3.141-1.988,4.59A29.368,29.368,0,0,0,27.1,82.206c-.871,2.807.116,4.211,1.1,4.894A3.075,3.075,0,0,0,30,87.654c2.247,0,5.053-2.03,8.19-4.3,2.079-1.5,5.218-3.777,6.32-3.633.32.042.406.053.481,1.451a6.073,6.073,0,0,0,.435,2.3,2.917,2.917,0,0,0,2.732,1.658,24.1,24.1,0,0,0,6.194-.693,4.926,4.926,0,0,0,3.426,2.353,11.3,11.3,0,0,0,1.854,5.892A9.317,9.317,0,0,0,54.668,97.5H43.229a1.465,1.465,0,1,0,0,2.93h10.65l-1.924,13.421a3.481,3.481,0,0,0,3.445,3.975H82.9a3.481,3.481,0,0,0,3.445-3.975l-1.924-13.421h10.21A5.377,5.377,0,0,0,100,95.056V34.62a5.377,5.377,0,0,0-5.371-5.371ZM60.7,78.572H74.51a8.307,8.307,0,0,0,3.084-.593v8.477a8.446,8.446,0,0,1-16.892,0Zm8.446,19.26A11.35,11.35,0,0,0,72.1,97.44a2.987,2.987,0,0,1-5.911,0,11.356,11.356,0,0,0,2.956.392ZM81.695,81.942a1.987,1.987,0,0,1-1.171,1.809V80.133A1.993,1.993,0,0,1,81.695,81.942ZM60.7,69.417a1.7,1.7,0,0,1,1.7-1.7H79.935v2.5a5.43,5.43,0,0,1-5.424,5.424H60.7V69.417ZM56.6,81.942a1.987,1.987,0,0,1,1.171-1.809v3.617A1.986,1.986,0,0,1,56.6,81.942ZM83.313,114.7a.545.545,0,0,1-.416.19H79.154V107.5a1.465,1.465,0,1,0-2.93,0v7.392H62.073V107.5a1.465,1.465,0,1,0-2.93,0v7.392H55.4a.551.551,0,0,1-.546-.629l1.98-13.811a6.431,6.431,0,0,1,4.9-5.378,11.432,11.432,0,0,0,1.49,1.09V97A5.921,5.921,0,0,0,75.07,97v-.835a11.425,11.425,0,0,0,1.487-1.088,6.444,6.444,0,0,1,4.905,5.376l1.98,13.811a.545.545,0,0,1-.129.439Z"/>
    <path id="Trazado_128235" data-name="Trazado 128235" d="M36.588,255.527H5.371a2.444,2.444,0,0,1-2.441-2.441V227.1a1.465,1.465,0,1,0-2.93,0v25.986a5.377,5.377,0,0,0,5.371,5.371H36.588a1.465,1.465,0,1,0,0-2.93Z" transform="translate(0 -158.029)"/>
    <path id="Trazado_128236" data-name="Trazado 128236" d="M323.3,305.519a1.465,1.465,0,0,0,1.465-1.465v-.148a1.465,1.465,0,0,0-2.93,0v.148A1.465,1.465,0,0,0,323.3,305.519Z" transform="translate(-258.974 -219.835)"/>
    <path id="Trazado_128237" data-name="Trazado 128237" d="M372.719,305.519a1.465,1.465,0,0,0,1.465-1.465v-.148a1.465,1.465,0,1,0-2.93,0v.148A1.465,1.465,0,0,0,372.719,305.519Z" transform="translate(-298.744 -219.835)"/>
    <path id="Trazado_128238" data-name="Trazado 128238" d="M334.547,328.193a4.322,4.322,0,0,0,7.228,0,1.465,1.465,0,0,0-2.448-1.61,1.392,1.392,0,0,1-2.332,0,1.465,1.465,0,1,0-2.448,1.61Z" transform="translate(-269.012 -238.73)"/>
    <path id="Trazado_128239" data-name="Trazado 128239" d="M182.305,174.563a1.465,1.465,0,0,0,0-2.93H154.9a1.465,1.465,0,0,0,0,2.93Z" transform="translate(-123.469 -114.575)"/>
    <path id="Trazado_128240" data-name="Trazado 128240" d="M332.051,174.563a1.465,1.465,0,0,0,0-2.93H328.9a1.465,1.465,0,0,0,0,2.93Z" transform="translate(-263.484 -114.575)"/>
    <path id="Trazado_128241" data-name="Trazado 128241" d="M206.79,70.717a1.465,1.465,0,0,0,1.465-1.465v-7.1a1.465,1.465,0,0,0-2.93,0v2.083h-2.752V62.156a1.465,1.465,0,1,0-2.93,0v7.1a1.465,1.465,0,1,0,2.93,0V67.169h2.752v2.083A1.465,1.465,0,0,0,206.79,70.717Z" transform="translate(-160.651 -25.301)"/>
    <path id="Trazado_128242" data-name="Trazado 128242" d="M256.266,62.156v7.1a1.465,1.465,0,0,0,2.93,0v-7.1a1.465,1.465,0,0,0-2.93,0Z" transform="translate(-206.214 -25.301)"/>
    <path id="Trazado_128243" data-name="Trazado 128243" d="M300.286,62.156a1.465,1.465,0,0,0-2.93,0v2.593a1.465,1.465,0,0,0,2.93,0Z" transform="translate(-239.279 -25.301)"/>
    <path id="Trazado_128244" data-name="Trazado 128244" d="M298.821,96.647a1.465,1.465,0,0,0-1.465,1.465v.148a1.465,1.465,0,0,0,2.93,0v-.148A1.465,1.465,0,0,0,298.821,96.647Z" transform="translate(-239.279 -54.234)"/>
  </g>
</svg>
