<svg xmlns="http://www.w3.org/2000/svg" width="394.32" height="460.3" viewBox="0 0 394.32 460.3">
  <g id="Grupo_88800" data-name="Grupo 88800" transform="translate(-601.957 -1022.336)">
    <g id="Grupo_88526" data-name="Grupo 88526" transform="translate(-192.344 864.599)">
      <g id="Grupo_88515" data-name="Grupo 88515" transform="translate(804.741 294.621)">
        <path id="Rectángulo_26041" data-name="Rectángulo 26041" d="M154.319,0h92.4A111.844,111.844,0,0,1,358.566,111.844v0A136.977,136.977,0,0,1,221.59,248.82H94.5A94.5,94.5,0,0,1,0,154.319v0A154.319,154.319,0,0,1,154.319,0Z" transform="translate(0 0)" fill="#ffe4e0"/>
        <g id="Grupo_88507" data-name="Grupo 88507" transform="translate(33.867 62.576)">
          <path id="Trazado_128066" data-name="Trazado 128066" d="M1332.507,1077.419a.421.421,0,0,1-.3-.124l-14.021-14.021h-10.263l-13.4,13.4a.423.423,0,0,1-.6-.6l13.523-13.523a.423.423,0,0,1,.3-.124h10.613a.423.423,0,0,1,.3.124l14.145,14.145a.423.423,0,0,1-.3.722Z" transform="translate(-1284.243 -1045.647)" fill="#542413"/>
          <path id="Trazado_128067" data-name="Trazado 128067" d="M1246.336,1134.57a96.6,96.6,0,0,0,9.705-4.637c-2.273-9.094-9.812-16.05-14.985-17.959-3.418-1.261-14.215-1.081-14.292-1.085h-.009c-3.943-.2-19.063.431-25.449,20.6,4.824.4,9.855,4.007,13.587,4.1l1.774,15.309s-10.933,22.86-10.093,49.9c9.317,2.329,46.409.482,46.409.482s-2.691-39.367-8.01-49.789Z" transform="translate(-1201.306 -1089.079)" fill="#decdaf"/>
          <path id="Trazado_128068" data-name="Trazado 128068" d="M1474.92,951.967a.423.423,0,0,1-.423-.423v-12.57a.423.423,0,0,1,.846,0v12.57A.423.423,0,0,1,1474.92,951.967Z" transform="translate(-1446.261 -934.574)" fill="#542413"/>
          <path id="Trazado_128069" data-name="Trazado 128069" d="M1482.834,904.872a.423.423,0,0,1-.423-.423,3.534,3.534,0,0,0-7.068,0,.423.423,0,1,1-.846,0,4.38,4.38,0,0,1,8.76,0A.423.423,0,0,1,1482.834,904.872Z" transform="translate(-1446.261 -900.069)" fill="#542413"/>
        </g>
        <path id="Rectángulo_26042" data-name="Rectángulo 26042" d="M0,0H69.9a0,0,0,0,1,0,0V138.432A34.948,34.948,0,0,1,34.948,173.38h0A34.948,34.948,0,0,1,0,138.432V0A0,0,0,0,1,0,0Z" transform="translate(280.12 247.652) rotate(180)" fill="#fff"/>
        <rect id="Rectángulo_26043" data-name="Rectángulo 26043" width="122.907" height="11.782" transform="translate(199.605 181.759) rotate(-45)" fill="#fee8de"/>
        <rect id="Rectángulo_26044" data-name="Rectángulo 26044" width="122.907" height="4.238" transform="translate(196.964 172.686) rotate(-45)" fill="#fee8de"/>
        <rect id="Rectángulo_26045" data-name="Rectángulo 26045" width="122.907" height="4.238" transform="translate(205.809 230.398) rotate(-45)" fill="#fee8de"/>
        <path id="Trazado_128070" data-name="Trazado 128070" d="M2965.622,1174.714h-73V1026.473a28.24,28.24,0,0,1,28.24-28.24h16.518a28.24,28.24,0,0,1,28.24,28.24Zm-69.9-3.1h66.8v-145.14a25.168,25.168,0,0,0-25.139-25.139h-16.518a25.168,25.168,0,0,0-25.14,25.139Z" transform="translate(-2683.951 -925.511)" fill="#542413"/>
        <rect id="Rectángulo_26046" data-name="Rectángulo 26046" width="142.023" height="3.101" transform="translate(31.577 66.512)" fill="#542413"/>
        <path id="Trazado_128071" data-name="Trazado 128071" d="M1164.641,836.9a1.672,1.672,0,0,1-1.672-1.672V622.888a1.672,1.672,0,0,1,3.345,0V835.231A1.672,1.672,0,0,1,1164.641,836.9Z" transform="translate(-1133.064 -587.461)" fill="#542413"/>
        <rect id="Rectángulo_26047" data-name="Rectángulo 26047" width="3.101" height="212.342" transform="translate(172.051 35.427)" fill="#542413"/>
        <g id="Grupo_88508" data-name="Grupo 88508" transform="translate(61.798 63.041)">
          <path id="Trazado_128072" data-name="Trazado 128072" d="M1602.75,1081.923a.421.421,0,0,1-.3-.124l-14.021-14.021h-10.263l-13.4,13.4a.423.423,0,0,1-.6-.6l13.522-13.523a.423.423,0,0,1,.3-.124H1588.6a.423.423,0,0,1,.3.124l14.145,14.145a.423.423,0,0,1-.3.722Z" transform="translate(-1554.486 -1050.151)" fill="#542413"/>
          <path id="Trazado_128073" data-name="Trazado 128073" d="M1516.58,1134.57a96.6,96.6,0,0,0,9.705-4.637c-2.274-9.094-9.812-16.05-14.985-17.959-3.419-1.261-14.215-1.081-14.292-1.085H1497c-3.943-.2-19.063.431-25.449,20.6,4.824.4,9.855,4.007,13.587,4.1l1.774,15.309s-10.933,22.86-10.093,49.9c9.317,2.329,46.409.482,46.409.482s-2.691-39.367-8.01-49.789Z" transform="translate(-1471.549 -1089.545)" fill="#fff"/>
          <path id="Trazado_128074" data-name="Trazado 128074" d="M1745.163,956.471a.423.423,0,0,1-.423-.423V943.478a.423.423,0,1,1,.846,0v12.571A.423.423,0,0,1,1745.163,956.471Z" transform="translate(-1716.504 -939.078)" fill="#542413"/>
          <path id="Trazado_128075" data-name="Trazado 128075" d="M1753.077,909.376a.423.423,0,0,1-.423-.423,3.534,3.534,0,1,0-7.068,0,.423.423,0,1,1-.846,0,4.38,4.38,0,1,1,8.76,0A.423.423,0,0,1,1753.077,909.376Z" transform="translate(-1716.504 -904.573)" fill="#542413"/>
        </g>
        <g id="Grupo_88509" data-name="Grupo 88509" transform="translate(114.557 62.265)">
          <path id="Trazado_128076" data-name="Trazado 128076" d="M2113.209,1074.417a.422.422,0,0,1-.3-.124l-14.021-14.021h-10.263l-13.4,13.4a.423.423,0,0,1-.6-.6l13.522-13.523a.423.423,0,0,1,.3-.124h10.613a.421.421,0,0,1,.3.124l14.145,14.145a.423.423,0,0,1-.3.722Z" transform="translate(-2064.945 -1042.646)" fill="#542413"/>
          <path id="Trazado_128077" data-name="Trazado 128077" d="M2027.039,1127.063a96.7,96.7,0,0,0,9.705-4.637c-2.273-9.094-9.812-16.05-14.985-17.959-3.418-1.262-14.215-1.081-14.292-1.085h-.009c-3.943-.2-19.063.431-25.449,20.6,4.824.4,9.855,4.007,13.587,4.1l1.774,15.309s-10.933,22.86-10.093,49.9c9.317,2.329,46.409.482,46.409.482s-2.69-39.367-8.01-49.789Z" transform="translate(-1982.008 -1082.038)" fill="#fff"/>
          <path id="Trazado_128078" data-name="Trazado 128078" d="M2255.622,948.964a.423.423,0,0,1-.423-.423v-12.57a.423.423,0,1,1,.846,0v12.57A.423.423,0,0,1,2255.622,948.964Z" transform="translate(-2226.963 -931.571)" fill="#542413"/>
          <path id="Trazado_128079" data-name="Trazado 128079" d="M2263.535,901.869a.423.423,0,0,1-.423-.423,3.534,3.534,0,1,0-7.068,0,.423.423,0,0,1-.846,0,4.38,4.38,0,1,1,8.759,0A.423.423,0,0,1,2263.535,901.869Z" transform="translate(-2226.963 -897.066)" fill="#542413"/>
        </g>
        <g id="Grupo_88512" data-name="Grupo 88512" transform="translate(163.917 158.055)">
          <g id="Grupo_88510" data-name="Grupo 88510" transform="translate(16.028)">
            <path id="Trazado_128080" data-name="Trazado 128080" d="M2624.553,1836.077s1.926,2.831.934,4.19-5.567-1.436-5.671-1.562,3.08.15,2.874-.9-3.421.78-3.421.78-1.865-1.678-2.338-1.978c1.1-.133,4.8-.334,4.783-1.056s-3.4.89-4.6-.516-.313-1.728-1.086-2.8c1.142.677,4.768,2.323,5.027,1.273s-5.291-2.125-5.46-2.579c.463-.443,1.09-3.137-.935-3.726.714.027,2.77-.119,2.885-1.535.937,1.442,3.484,5.023,3.88,4.146a7.274,7.274,0,0,0-1.687-5.936c.944.154,2.122.183,2.537,1.021s.427,6.8,1.2,6.648,1.36-6.068-.667-7.332c1.17.3,2.874.005,3.684,2.587s-1.171,5.955-1.4,6.186c.988-1.106,3.526-4.524,3.49-5.016.6.746,1.6,1.417,1.084,2.7s-2.16,2.41-2.078,3.1,2.743-1.223,2.832-2.835c1.562,1.263.244,3,.035,3.219S2627.126,1838.267,2624.553,1836.077Z" transform="translate(-2614.662 -1823.873)" fill="#053837"/>
          </g>
          <path id="Trazado_128081" data-name="Trazado 128081" d="M2711.671,1999.088l-.832-.152a133.447,133.447,0,0,0,1.872-36.9c-1.045-10.247-3.556-18.64-7.072-23.632l.692-.487c3.6,5.109,6.162,13.644,7.221,24.033A134.31,134.31,0,0,1,2711.671,1999.088Z" transform="translate(-2680.208 -1926.13)" fill="#542413"/>
          <path id="Trazado_128082" data-name="Trazado 128082" d="M2715.695,2010.227a68.726,68.726,0,0,1-.1-29.082,47.5,47.5,0,0,1,8.363-18.4c3.913-5.1,7.77-7.508,9.856-7.635,2.469-.151,4.567,1.511,6.064,4.808a21.464,21.464,0,0,1,1.5,4.925l-.835.133c-.015-.093-1.552-9.335-6.681-9.021-1.892.116-5.672,2.663-9.237,7.306-4.186,5.452-13.354,20.926-8.1,46.8Z" transform="translate(-2687.785 -1941.535)" fill="#542413"/>
          <path id="Trazado_128083" data-name="Trazado 128083" d="M2663.192,2080.846l-.833-.146c.877-5.022-.15-16-2.442-26.1-2.631-11.594-6.241-19.264-9.659-20.518-1.9-.7-3.842.6-5.758,3.868l-.73-.428c2.154-3.671,4.435-5.1,6.779-4.234,2.03.745,4.006,3.236,5.875,7.4a75.55,75.55,0,0,1,4.317,13.72C2663.057,2064.609,2664.087,2075.727,2663.192,2080.846Z" transform="translate(-2624.734 -2011.422)" fill="#542413"/>
          <path id="Trazado_128084" data-name="Trazado 128084" d="M2882.817,1983.555c-1.513-1.9-5.893-.371-5.834-1.4.14-2.411,4.776-.642,4.776-.642a15.851,15.851,0,0,0-3.189-4.127c-2.061-1.833-5.1.824-5.514-.065-.564-1.2,3.289-1.793,3.289-1.793a7.342,7.342,0,0,0-7.785-.119c-2.611,1.522-1.882,5.589-2.655,6.02-1.321.738-1.347-2.618-4.03-3.145a5.483,5.483,0,0,0-6.032,2.517s2.655-1.318,2.765.588c.033.567-1.522-.581-3.265.387-3.006,1.67-1.643,7.847-1.643,7.847s2.993-5.225,4.286-4.4c2.236,1.435-5.172,3.714-3.515,10.023a23.156,23.156,0,0,0,1.824,4s.155-1.987.761-1.928c.75.076.233,2.64,1.681,4.713a27.683,27.683,0,0,0,4.313,4.109s-1.31-8.489.571-8.2c2.928.446-1.126,7.754.882,9.1a17.682,17.682,0,0,0,2.25,1.158s-1.2-7.787,1.317-7.139c.981.254-.331,4.05-.657,6.086a1.3,1.3,0,0,0,1.44,1.573c2.4-.231,3.128,1.246,3.128,1.246a3.924,3.924,0,0,1,2.153-2.945c.473-.195.922-.388,1.344-.583a17.17,17.17,0,0,0,1.631-.856,5.525,5.525,0,0,0,3-3.831c.74-4.421-7.844-5.595-6.7-8.375,1.736-4.212,8.3,6.328,8.3,6.328a15.163,15.163,0,0,0,1.874-5.569c.345-2.961-3.739-4.349-2.963-5.583,1.389-2.205,3.614,2.6,3.614,2.6A8.421,8.421,0,0,0,2882.817,1983.555Zm-23.283,11.142c-.9.468-1.151.94-1.476.623s-.017-1.16.689-1.886,1.54-1.057,1.866-.743S2860.894,1993.992,2859.534,1994.7Zm6.947.58c-.1.617-.8,1.24-1.234,1.168-.782-.132-.7-.631-.594-1.25s.538-1.057.967-.985A.968.968,0,0,1,2866.481,1995.276Zm-2-10.05c.078.4-.7.775-1.6,1.062-.821.256-2.125.342-2.2-.06s.962-1.209,1.926-1.394S2864.406,1984.824,2864.484,1985.227Zm7.494,7.352a1.677,1.677,0,0,1-1.85-.629,1.073,1.073,0,0,1,.569-1.405c.545-.231,1.038.1,1.406.569C2872.434,1991.533,2872.525,1992.347,2871.978,1992.578Zm5.749-4.9c-.121.367-.9.081-1.85.128-1.529.075-1.858-.768-1.417-1.2a1.91,1.91,0,0,1,1.853-.129C2877.214,1986.769,2877.846,1987.305,2877.727,1987.674Zm-1.819-6.1c.077.445-.457.386-1.349.862-1.354.719-2.19.2-2.265-.252s.671-.946,1.672-1.116S2875.833,1981.128,2875.908,1981.576Z" transform="translate(-2812.691 -1958.795)" fill="#053837"/>
          <g id="Grupo_88511" data-name="Grupo 88511" transform="translate(0 16.603)">
            <path id="Trazado_128085" data-name="Trazado 128085" d="M2478.619,1994.344s4.074-4.039,6.616-2.821-.662,9.611-.836,9.82-.7-5.119-2.368-4.457,2.333,5.4,2.333,5.4-2.194,3.587-2.542,4.458c-.557-1.776-2.02-7.8-3.2-7.557s2.507,5.328.557,7.731-2.751,1.045-4.283,2.646c.766-2.089,2.368-8.566.557-8.671s-1.881,9.367-2.577,9.785c-.871-.627-5.5-.836-5.85,2.681-.174-1.184-1.044-4.527-3.412-4.283,2.089-1.985,7.208-7.278,5.641-7.661s-7.312,1.428-9.263,4.6c-.035-1.6-.348-3.552.905-4.492s11.074-2.786,10.586-4-10.412-.383-11.875,3.343c.139-2.02-.871-4.736,3.134-6.86s10.168.1,10.621.418c-2.124-1.289-8.531-4.422-9.333-4.213,1.045-1.219,1.846-3.064,4.109-2.612s4.631,2.821,5.746,2.472-2.855-4.144-5.537-3.8c1.6-2.96,4.875-1.323,5.293-1.044S2481.439,1989.434,2478.619,1994.344Z" transform="translate(-2459.587 -1984.519)" fill="#053837"/>
          </g>
          <path id="Trazado_128086" data-name="Trazado 128086" d="M2673.771,2443.218h-8.829a5.054,5.054,0,0,1-5.045-4.758l-1.464-24.946h21.752l-1.368,24.927A5.053,5.053,0,0,1,2673.771,2443.218Z" transform="translate(-2637.881 -2352.572)" fill="#e0b660"/>
        </g>
        <g id="Grupo_88513" data-name="Grupo 88513" transform="translate(197.386 0.329)">
          <ellipse id="Elipse_4345" data-name="Elipse 4345" cx="3.697" cy="3.834" rx="3.697" ry="3.834" transform="translate(3.359 56.053)" fill="#fff"/>
          <rect id="Rectángulo_26048" data-name="Rectángulo 26048" width="0.846" height="38.322" transform="translate(6.634)" fill="#ad512c"/>
          <path id="Rectángulo_26049" data-name="Rectángulo 26049" d="M7.057,0h0a7.057,7.057,0,0,1,7.057,7.057V24.52a0,0,0,0,1,0,0H0a0,0,0,0,1,0,0V7.057A7.057,7.057,0,0,1,7.057,0Z" transform="translate(0 35.287)" fill="#f68a5c"/>
        </g>
        <g id="Grupo_88514" data-name="Grupo 88514" transform="translate(247.439 0)">
          <ellipse id="Elipse_4346" data-name="Elipse 4346" cx="3.697" cy="2.866" rx="3.697" ry="2.866" transform="translate(3.359 43.176)" fill="#fff"/>
          <rect id="Rectángulo_26050" data-name="Rectángulo 26050" width="0.757" height="30.688" transform="translate(6.678)" fill="#ad512c"/>
          <path id="Rectángulo_26051" data-name="Rectángulo 26051" d="M7.057,0h0a7.057,7.057,0,0,1,7.057,7.057V18.329a0,0,0,0,1,0,0H0a0,0,0,0,1,0,0V7.057A7.057,7.057,0,0,1,7.057,0Z" transform="translate(0 27.653)" fill="#f68a5c"/>
        </g>
      </g>
      <g id="Grupo_88521" data-name="Grupo 88521" transform="translate(871.815 345.57)">
        <path id="Trazado_128087" data-name="Trazado 128087" d="M1548.1,1171.822c-.039.162-5.311,5.04-5.36,5.2l-7.322,20.626c.471,3.453-.113,21.461-.069,21.456l.037.105q.116.327.226.648.312.91.573,1.775a5.038,5.038,0,0,0,1.39,2.234,6.514,6.514,0,0,1,.7.77c.867,1.116,1.235,2.282.822,2.6-.326.253-1.037-.094-1.748-.8.806,4.71.141,7.554-1.552,7.578-5.271.075-4.545-7.088-3.916-10.442.068-.368.137-.689.195-.951a4.065,4.065,0,0,0,.042-1.56c-.152-.911-.419-2.522-.745-4.516-1.263-7.709-3.4-21.141-3.148-22l6.3-26.012C1536.826,1159.663,1550.11,1162.847,1548.1,1171.822Z" transform="translate(-1527.624 -1124.44)" fill="#f68a5c"/>
        <path id="Trazado_128088" data-name="Trazado 128088" d="M1563.106,1682.09a11.426,11.426,0,0,0-3.731,3.722c.068-.368.137-.689.195-.95a4.066,4.066,0,0,0,.042-1.56c-.152-.912-.42-2.522-.745-4.516l3.943,2.5C1562.887,1681.507,1563.033,1681.876,1563.106,1682.09Z" transform="translate(-1555.117 -1586.675)" fill="#542413"/>
        <path id="Trazado_128089" data-name="Trazado 128089" d="M1676.919,816.672l-22.213,1.685-1.493-19.677a10.191,10.191,0,0,1,9.391-10.932l1.891-.143a10.191,10.191,0,0,1,10.932,9.391Z" transform="translate(-1639.686 -787.574)" fill="#ad512c"/>
        <path id="Trazado_128090" data-name="Trazado 128090" d="M1913.721,1173.385s-.51.479-1.388,1.247c-.941.824-2.309,1.978-3.927,3.227-4.928,3.8-12.186,8.477-16.87,7.316-8.965-2.221-15.248-22.422-20.6-30.666-5.284-9.378,13.116.31,13.116.31s4.377,18.046,9.519,20.244c2.851,1.217,7.993-.068,12.346-1.912a36.283,36.283,0,0,0,4.351-2.177c1.851-1.1,3.11-2.152,3.252-2.823.105-1.557,1.55-4.044,1.978-3.881.407.155.4,1.176,0,2.325,2.482-1.749,5.977-3.563,7.894-.19C1925.239,1169.663,1915.527,1172.62,1913.721,1173.385Z" transform="translate(-1834.075 -1112.918)" fill="#f68a5c"/>
        <g id="Grupo_88516" data-name="Grupo 88516" transform="translate(12.706 179.65)">
          <path id="Trazado_128091" data-name="Trazado 128091" d="M1653.3,2526.156l-.211,3.791h0l-.548,9.858-7.017-.389.383-6.89.376-6.76Z" transform="translate(-1645.527 -2525.766)" fill="#f68a5c"/>
        </g>
        <path id="Trazado_128092" data-name="Trazado 128092" d="M1656.62,2526.156l-.211,3.791h0s-3.445-1.325-7.182,2.579l.376-6.76Z" transform="translate(-1636.138 -2346.116)" fill="#542413"/>
        <path id="Trazado_128093" data-name="Trazado 128093" d="M2224.076,1352.954c-.942.824-2.309,1.978-3.928,3.227l-2.492-4.708a36.265,36.265,0,0,0,4.351-2.177A6.109,6.109,0,0,0,2224.076,1352.954Z" transform="translate(-2145.819 -1291.24)" fill="#542413"/>
        <g id="Grupo_88517" data-name="Grupo 88517" transform="translate(40.778 179.006)">
          <path id="Trazado_128094" data-name="Trazado 128094" d="M1931.833,2531.27l-.123,7.027-14.573-.255.778-10.114.645-8.391,6.463.5.545.042-.028.36-.309,4.021-.515,6.689Z" transform="translate(-1917.137 -2519.536)" fill="#f68a5c"/>
        </g>
        <path id="Trazado_128095" data-name="Trazado 128095" d="M1932.466,2520.571l-.484,3.885s-3.456-1.153-7.315,3.471l.645-8.392,6.463.5.517.4Z" transform="translate(-1883.11 -2340.529)" fill="#542413"/>
        <path id="Trazado_128096" data-name="Trazado 128096" d="M1682.955,1636.072c-.014,4.042-3.229,35.451-4.935,45.715h-9.775c-.245-6.084-.417-12.17-.566-18.257-.2-8.286-1.875-17.387-1.946-25.779-1.186-6.533-1.638-13.162-3.541-19.8l-13.354,63.835h-9.311l1.636-68.86.167-7,.22-9.28.014-.6.068-2.892A12.675,12.675,0,0,1,1655,1581.219a12.257,12.257,0,0,1,6.763,2.423c6.02-4.109,15.78-2.377,17.378,7.936q.065.811.136,1.625.239,2.8.518,5.621v0C1681.007,1611.2,1682.608,1623.745,1682.955,1636.072Z" transform="translate(-1627.441 -1499.173)" fill="#decdaf"/>
        <path id="Trazado_128097" data-name="Trazado 128097" d="M1679.341,1000.269c-8.227.208-16.173-7.5-11.552-8.23,4.236-.667,5.73-2.936,6.306-6.234a36.433,36.433,0,0,0,.386-5.046,3.079,3.079,0,0,1,.451-1.57c1.324-2.127,5.145-1.994,5.82.921.026.3.057.6.091.882.042.351.091.687.146,1.01,1.594,9.465,8.125,7.221,10.442,7.933C1697.505,991.8,1688.258,1000.045,1679.341,1000.269Z" transform="translate(-1651.559 -958.083)" fill="#f68a5c"/>
        <path id="Trazado_128098" data-name="Trazado 128098" d="M1695.434,1663.69s-25.372-2.458-38.467,7.833l.22-9.28.015-.6,8.832-7.178,28.882,4.328.22.033Z" transform="translate(-1643.079 -1564.869)" fill="#542413"/>
        <g id="Grupo_88518" data-name="Grupo 88518" transform="translate(22.483 21.054)">
          <path id="Trazado_128099" data-name="Trazado 128099" d="M1747.871,993.729a2.707,2.707,0,0,1-.35.859c-.623,1.072-2.326,2.878-6.894,3.8a36.468,36.468,0,0,0,.386-5.046,3.078,3.078,0,0,1,.451-1.57l5.911,1.8Z" transform="translate(-1740.575 -991.724)" fill="#542413"/>
          <path id="Trazado_128100" data-name="Trazado 128100" d="M1740.178,998a.052.052,0,0,1-.051-.061,36.455,36.455,0,0,0,.386-5.038,3.126,3.126,0,0,1,.458-1.6.051.051,0,0,1,.059-.022l6.407,1.953a.052.052,0,0,1,.036.057,2.749,2.749,0,0,1-.357.877c-.6,1.026-2.29,2.888-6.928,3.828Zm.86-6.606a3.032,3.032,0,0,0-.422,1.51,37.172,37.172,0,0,1-.375,4.979c4.542-.937,6.2-2.758,6.785-3.764a2.935,2.935,0,0,0,.335-.8Z" transform="translate(-1740.127 -991.276)" fill="#542413"/>
        </g>
        <ellipse id="Elipse_4347" data-name="Elipse 4347" cx="8.387" cy="10.206" rx="8.387" ry="10.206" transform="translate(17.036 4.451) rotate(-2.21)" fill="#f68a5c"/>
        <g id="Grupo_88519" data-name="Grupo 88519" transform="translate(40.675 190.469)">
          <path id="Trazado_128101" data-name="Trazado 128101" d="M1930.813,2637.743l-14.677-.049.373-5.782s5.557.427,7.312.522c1.777.1,5.7-2.886,7.115-1.72C1935.765,2634.71,1930.813,2637.743,1930.813,2637.743Z" transform="translate(-1916.136 -2630.444)" fill="#ad512c"/>
        </g>
        <path id="Rectángulo_26052" data-name="Rectángulo 26052" d="M5.877,0h0a5.877,5.877,0,0,1,5.877,5.877V7.3a0,0,0,0,1,0,0H0a0,0,0,0,1,0,0V5.877A5.877,5.877,0,0,1,5.877,0Z" transform="translate(9.768 190.469)" fill="#ad512c"/>
        <path id="Trazado_128102" data-name="Trazado 128102" d="M1599.293,1128.47l-1.327-10.143s-11.96,5.377-15.452,3.507c-4.631-2.479-6.831-17.9-7.394-19.67-3.745-11.755-14.457-9.788-14.457-9.788.417.644-2.713,8.224-9.391,8.224s-10.335-2.849-10.335-6.363c0-.011-10.133-.036-14.114,13.188-.548,1.82-4.042,17.588-4.226,23.6-.188,6.163,2.659,24.458,2.659,24.458l6.542-.059c1.273-.057-.338-14.826.568-19.658.8-4.268,4.024-14.618,5.677-21.687l-2.728,47.279s14.33-2.123,27-2.91c9.576-.594,14.075.929,14.075.929l-7.71-35.826s5.92,9.653,9.417,10.83C1583.63,1136.245,1599.293,1128.47,1599.293,1128.47Z" transform="translate(-1522.59 -1060.763)" fill="#e0b660"/>
        <ellipse id="Elipse_4348" data-name="Elipse 4348" cx="1.846" cy="2.475" rx="1.846" ry="2.475" transform="translate(15.061 15.969) rotate(-23.398)" fill="#f68a5c"/>
        <g id="Grupo_88520" data-name="Grupo 88520" transform="translate(33.82 45.996)">
          <rect id="Rectángulo_26053" data-name="Rectángulo 26053" width="9.71" height="3.352" transform="translate(0 1.44) rotate(-8.526)" fill="#fff"/>
          <path id="Trazado_128103" data-name="Trazado 128103" d="M1864.83,1249.83a.423.423,0,0,1-.062-.841l6.2-.93a.423.423,0,1,1,.125.836l-6.2.93A.429.429,0,0,1,1864.83,1249.83Z" transform="translate(-1862.899 -1246.457)" fill="#542413"/>
        </g>
      </g>
      <g id="Grupo_88525" data-name="Grupo 88525" transform="translate(1089.568 348.141)">
        <path id="Trazado_128104" data-name="Trazado 128104" d="M3804.026,826.94a3.009,3.009,0,0,0-.379-4.655,10.884,10.884,0,0,0-10.841-9.839h0a10.869,10.869,0,0,0-8.965,4.724,3.011,3.011,0,0,0-2.3,2.925c0,.483-1.926,2.857-1.926,4.254a3.01,3.01,0,0,0,1.866,2.784c-.1-.01-3.728,16.206-3.728,17.122a3.011,3.011,0,0,0,4.195,2.767l0,2.9,21.767-.016v-.433h.019a3.01,3.01,0,0,0,3.01-3.01C3806.744,845.17,3805.394,827.223,3804.026,826.94Z" transform="translate(-3762.424 -812.446)" fill="#542413"/>
        <path id="Trazado_128105" data-name="Trazado 128105" d="M4042.081,1275.364c.754,3.328,1.751,10.458-3.519,10.582-1.693.041-2.466-2.777-1.838-7.514-.684.729-1.381,1.1-1.716.862-.426-.305-.1-1.484.723-2.633a6.445,6.445,0,0,1,.67-.8,5.03,5.03,0,0,0,1.3-2.285c.153-.582.348-20.546-.141-24-.539-3.81-4.323-12.315-6.523-17.029v0c-.309-.663-.586-1.252-.82-1.74-.465-.979-.752-1.563-.752-1.563-.055-.155.214-20,7.893-8.789l.187.608c.335,1.092,1.086,3.554,1.988,6.577,1.836,6.158,4.293,14.64,5.1,18.571,1.287,6.255-1.342,14.356-2.313,22.108-.25,2.005-.457,3.624-.574,4.54a4.047,4.047,0,0,0,.1,1.558C4041.917,1274.68,4042,1275,4042.081,1275.364Z" transform="translate(-3988.119 -1175.214)" fill="#f68a5c"/>
        <path id="Trazado_128106" data-name="Trazado 128106" d="M3683.246,1233.609c-.24,6.105-.542,16.183.368,22.039.574,3.692,2.969,5.616,2.946,7.977-.348.264-1.21-.281-1.977-1.228.18,3.03-.119,6.958-4,6.812-3.742-.141-1.143-9.954-.842-11.892l-1.675-11.842a88.581,88.581,0,0,1,1.813-36.242c.51-1.855,1.058-3.532,1.619-5,3.575-9.322,7.7-10.049,5.941,6.162-.21,1.947-.507,4.138-.9,6.589C3685.806,1221.586,3684.732,1227.094,3683.246,1233.609Z" transform="translate(-3672.076 -1157.824)" fill="#f68a5c"/>
        <g id="Grupo_88522" data-name="Grupo 88522" transform="translate(35.911 167.822)">
          <path id="Trazado_128107" data-name="Trazado 128107" d="M3986.19,2436.2l-.164,6.384-.422,16.464-7.016.39-1.253-16.944-.436-5.9Z" transform="translate(-3976.9 -2436.197)" fill="#f68a5c"/>
        </g>
        <path id="Trazado_128108" data-name="Trazado 128108" d="M3712.579,1268.929l-.939,5.349h0s-2.475-5.512-6.658-7.757c.509-1.855,1.058-3.532,1.618-5l5.154,4.818.788,1.344Z" transform="translate(-3697.173 -1215.112)" fill="#542413"/>
        <g id="Grupo_88523" data-name="Grupo 88523" transform="translate(12.465 166.663)">
          <path id="Trazado_128109" data-name="Trazado 128109" d="M3765.582,2425.072l-.214,7.271-.622,21.138-14.573.255-.123-7.027,7.117-.124-1.02-14.338-.518-7.27Z" transform="translate(-3750.05 -2424.977)" fill="#f68a5c"/>
        </g>
        <path id="Trazado_128110" data-name="Trazado 128110" d="M3794.227,1039.4c-8.334.443-17.507-6.01-11.962-8.054,2.021-.746,7.818.565,9.075-6.56.057-.326.106-.67.143-1.033q.045-.423.069-.882.021-.372.027-.767c.437-2.563,3.993-2.952,5.369-1.211a2.477,2.477,0,0,1,.46.951,2.848,2.848,0,0,1,.064.372,29.01,29.01,0,0,0,.695,4.327c.754,2.8,2.3,4.657,6.294,4.93C3808.822,1031.773,3801.918,1038.995,3794.227,1039.4Z" transform="translate(-3764.954 -998.398)" fill="#f68a5c"/>
        <g id="Grupo_88524" data-name="Grupo 88524" transform="translate(10.35 188.124)">
          <path id="Trazado_128111" data-name="Trazado 128111" d="M3731.823,2639.925l14.677-.048s.72-4.832-.374-5.782c-1.384-1.2-5.557.427-7.312.522-1.777.1-5.705-2.886-7.115-1.72C3726.87,2636.892,3731.823,2639.925,3731.823,2639.925Z" transform="translate(-3729.584 -2632.626)" fill="#542413"/>
        </g>
        <path id="Trazado_128112" data-name="Trazado 128112" d="M4045.082,1262.253c-3.235,1.192-7.592,5.987-7.632,6.36l-.861-1.45v0l-.938-1.581.118-.159,7.276-9.794s.018.016.051.05C4043.429,1256.768,4044.181,1259.231,4045.082,1262.253Z" transform="translate(-3993.667 -1209.822)" fill="#542413"/>
        <path id="Trazado_128113" data-name="Trazado 128113" d="M3803.03,2406.977l10.079.1-.216,7.363-9.338-.1Z" transform="translate(-3785.089 -2242.175)" fill="#542413"/>
        <path id="Trazado_128114" data-name="Trazado 128114" d="M3986.19,2436.2l-.164,5.082-8.691-.071-.436-4.7Z" transform="translate(-3940.989 -2268.375)" fill="#542413"/>
        <path id="Trazado_128115" data-name="Trazado 128115" d="M3890.808,1021.847a7.7,7.7,0,0,1-6.068,2.942c.057-.326.106-.67.143-1.033q.045-.423.069-.882c.013-.248.023-.5.027-.767.437-2.563,3.993-2.952,5.369-1.211A2.463,2.463,0,0,1,3890.808,1021.847Z" transform="translate(-3858.354 -998.398)" fill="#542413"/>
        <path id="Rectángulo_26054" data-name="Rectángulo 26054" d="M0,0H11.755a0,0,0,0,1,0,0V1.421A5.877,5.877,0,0,1,5.877,7.3h0A5.877,5.877,0,0,1,0,1.421V0A0,0,0,0,1,0,0Z" transform="translate(47.554 195.138) rotate(180)" fill="#542413"/>
        <path id="Trazado_128116" data-name="Trazado 128116" d="M3647.868,1126.961s-9.51-.2-11.435,17.88a14.566,14.566,0,0,1,6.979,5.226s4.854,10.563,1.09,21.278c-4.122,11.732-18.343,78.255-14.361,93.991,9.668-.758,58.4-.569,58.4-.569s-7.211-72.265-14.321-94.417c-5.042-15.71-.664-19.149-.664-19.149l9.472-8.309s-2.362-13.655-13.549-15.456C3664.729,1134.045,3655.34,1132.35,3647.868,1126.961Z" transform="translate(-3629.446 -1094.455)" fill="#db6e5f"/>
        <path id="Trazado_128117" data-name="Trazado 128117" d="M3853.086,860.649a1.41,1.41,0,0,0-.693-.053c0-.155,0-.311-.008-.468-.208-5.5-4.043-9.826-8.566-9.655s-8.02,4.772-7.811,10.275,4.044,9.826,8.566,9.655a8.058,8.058,0,0,0,6.881-5.2c.019.007.036.016.055.023.941.325,2.058-.436,2.494-1.7A2.18,2.18,0,0,0,3853.086,860.649Z" transform="translate(-3814.651 -846.538)" fill="#f68a5c"/>
        <ellipse id="Elipse_4349" data-name="Elipse 4349" cx="7.465" cy="2.844" rx="7.465" ry="2.844" transform="matrix(0.866, -0.5, 0.5, 0.866, 19.044, 7.722)" fill="#542413"/>
        <ellipse id="Elipse_4350" data-name="Elipse 4350" cx="2.844" cy="5.363" rx="2.844" ry="5.363" transform="matrix(0.847, -0.531, 0.531, 0.847, 29.983, 6.307)" fill="#542413"/>
      </g>
      <rect id="Rectángulo_26055" data-name="Rectángulo 26055" width="391.32" height="0.846" transform="translate(796.801 543.347)" fill="#542413"/>
      <rect id="Rectángulo_26056" data-name="Rectángulo 26056" width="20.741" height="16.311" rx="8.155" transform="translate(1122.091 436.049)" fill="#decdaf"/>
      <path id="Trazado_128118" data-name="Trazado 128118" d="M3818.832,1174.354c-.071-.126-7.2-12.8-13.5-26.28a165.394,165.394,0,0,1-8.019-19.775c-2.086-6.7-2.381-10.906-.9-12.857.863-1.139,2.29-1.475,4.24-1l-.2.8c-1.624-.4-2.731-.169-3.385.695-1.647,2.173-1.421,9.451,9.01,31.779,6.285,13.453,13.4,26.1,13.468,26.228Z" transform="translate(-2688.762 -734.902)" fill="#decdaf"/>
      <path id="Trazado_128119" data-name="Trazado 128119" d="M4042.146,1422.816l-.824-.071c0-.06.518-6.087.405-12.515-.147-8.4-1.268-13.66-3.241-15.2l.509-.651c2.208,1.725,3.406,7.057,3.559,15.845C4042.667,1416.693,4042.152,1422.756,4042.146,1422.816Z" transform="translate(-2906.642 -986.091)" fill="#decdaf"/>
    </g>
    <path id="Trazado_128120" data-name="Trazado 128120" d="M-3922.964-10692.312v460.3" transform="translate(4525.421 11714.648)" fill="none" stroke="#ff834b" stroke-width="1"/>
    <path id="Trazado_128121" data-name="Trazado 128121" d="M-3922.964-10692.312v460.3" transform="translate(4918.741 11714.648)" fill="none" stroke="#dbbe36" stroke-width="1"/>
  </g>
</svg>
