<svg xmlns="http://www.w3.org/2000/svg" width="55.474" height="74.648" viewBox="0 0 55.474 74.648">
  <path id="Trazado_128123" data-name="Trazado 128123" d="M6.665,0V-74.648H32.813q13.586,0,20.61,5.2t7.024,15.253a16.865,16.865,0,0,1-2.82,9.664A16.288,16.288,0,0,1,49.783-38.4a15.759,15.759,0,0,1,9.049,5.793,17.128,17.128,0,0,1,3.307,10.664q0,10.767-6.87,16.3T35.684,0ZM22.046-32.5v20.149H35.222q5.435,0,8.485-2.589A8.879,8.879,0,0,0,46.758-22.1q0-10.254-10.613-10.408Zm0-10.869H33.428q11.638-.205,11.638-9.28,0-5.076-2.948-7.306t-9.305-2.23H22.046Z" transform="translate(-6.665 74.648)" fill="#dbbe36"/>
</svg>
