<svg xmlns="http://www.w3.org/2000/svg" width="399" height="423" viewBox="0 0 399 423">
  <g id="Grupo_88784" data-name="Grupo 88784" transform="translate(-181 -3876)">
    <rect id="Rect치ngulo_25828" data-name="Rect치ngulo 25828" width="399" height="423" transform="translate(181 3876)" fill="#cbeeff"/>
    <circle id="Elipse_4181" data-name="Elipse 4181" cx="47" cy="47" r="47" transform="translate(329 3936)" fill="#53bced"/>
    <text id="_4" data-name="4" transform="translate(365 3997)" fill="#12263f" font-size="40" font-family="Roboto-Bold, Roboto" font-weight="700"><tspan x="0" y="0">4</tspan></text>
    <text id="Vitrinas_estacionales" data-name="Vitrinas estacionales" transform="translate(372 4080)" fill="#12263f" font-size="24" font-family="Roboto-Medium, Roboto" font-weight="500"><tspan x="-112.605" y="0">Vitrinas estacionales</tspan></text>
    <g id="Grupo_87048" data-name="Grupo 87048" transform="translate(-9 -2)">
      <rect id="Rect치ngulo_25833" data-name="Rect치ngulo 25833" width="142" height="142" transform="translate(310 4114)" fill="none"/>
      <g id="copo-de-nieve" transform="translate(302.303 4129.316)">
        <path id="Trazado_128649" data-name="Trazado 128649" d="M130.871,82.765l-7.95-4.59,6.015-2.563a4.214,4.214,0,1,0-3.3-7.753L113.792,72.9,99.184,64.47a13.831,13.831,0,0,0,0-5.951l14.608-8.434,11.841,5.045a4.214,4.214,0,1,0,3.3-7.753l-6.015-2.563,7.95-4.59a4.214,4.214,0,1,0-4.214-7.3l-7.95,4.59.788-6.491a4.213,4.213,0,1,0-8.366-1.015l-1.551,12.777L94.965,51.223a13.908,13.908,0,0,0-5.149-2.979V31.377l10.289-7.732a4.214,4.214,0,0,0-5.062-6.737l-5.227,3.928v-9.18a4.213,4.213,0,0,0-8.427,0v9.18l-5.227-3.928A4.214,4.214,0,0,0,71.1,23.646l10.289,7.732V48.245a13.907,13.907,0,0,0-5.149,2.979L61.627,42.788,60.076,30.011a4.213,4.213,0,1,0-8.366,1.015l.788,6.491-7.95-4.59a4.214,4.214,0,1,0-4.214,7.3l7.95,4.59L42.27,47.378a4.214,4.214,0,0,0,1.653,8.091c1.141,0,.511.147,13.49-5.383L72.022,58.52a13.832,13.832,0,0,0,0,5.951L57.414,72.905,45.573,67.86a4.214,4.214,0,1,0-3.3,7.753l6.015,2.563-7.95,4.59a4.214,4.214,0,1,0,4.214,7.3l7.95-4.59-.788,6.491a4.213,4.213,0,1,0,8.365,1.016L61.627,80.2l14.613-8.437a13.908,13.908,0,0,0,5.149,2.979V91.613L71.1,99.345a4.214,4.214,0,0,0,5.062,6.737l5.227-3.928v9.18a4.213,4.213,0,1,0,8.427,0v-9.18l5.227,3.928a4.214,4.214,0,0,0,5.062-6.737L89.816,91.613V74.746a13.906,13.906,0,0,0,5.149-2.979L109.578,80.2,111.13,92.98a4.213,4.213,0,1,0,8.366-1.015l-.788-6.491,7.95,4.59a4.214,4.214,0,0,0,4.214-7.3ZM80.125,61.495A5.478,5.478,0,1,1,85.6,66.972,5.484,5.484,0,0,1,80.125,61.495Z" transform="translate(-5.899 -5.824)" fill="#5bddfc"/>
        <g id="Grupo_88753" data-name="Grupo 88753" transform="translate(32.328 1.612)">
          <path id="Trazado_128650" data-name="Trazado 128650" d="M275.4,53.834a.693.693,0,0,0,1.108.554c9.392-7.04,8.639-6.485,8.9-6.648a4.213,4.213,0,0,0-4.779.191L275.4,51.858v1.975h0Z" transform="translate(-223.813 -38.458)" fill="#00c3ff"/>
          <path id="Trazado_128651" data-name="Trazado 128651" d="M128.442,199.511l-2.008.788,14.609,8.434a13.829,13.829,0,0,0,0,5.951l-14.608,8.434,2.383.921a.754.754,0,0,0,.65-.051l15.1-8.743a1.6,1.6,0,0,0,.784-1.611,13.777,13.777,0,0,1,.016-3.964,1.423,1.423,0,0,0-.7-1.44l-15-8.63A1.409,1.409,0,0,0,128.442,199.511Z" transform="translate(-107.248 -157.651)" fill="#00c3ff"/>
          <path id="Trazado_128652" data-name="Trazado 128652" d="M240.107,23.1a.676.676,0,0,0,1.049-.564v-10.9a4.207,4.207,0,0,1,1.966-3.56,4.226,4.226,0,0,0-6.461,3.662v9.077Z" transform="translate(-193.499 -7.412)" fill="#00c3ff"/>
          <path id="Trazado_128653" data-name="Trazado 128653" d="M276.824,431.51a.886.886,0,0,0-1.42.708v1.621l5.227,3.928a4.213,4.213,0,0,0,4.779.2C285.175,437.814,276.606,431.346,276.824,431.51Z" transform="translate(-223.815 -339.122)" fill="#00c3ff"/>
          <path id="Trazado_128654" data-name="Trazado 128654" d="M241.157,445.242v-9.815a1.254,1.254,0,0,0-1.945-1.047l-2.551,1.682v9.077a4.225,4.225,0,0,0,6.461,3.662A4.207,4.207,0,0,1,241.157,445.242Z" transform="translate(-193.499 -341.345)" fill="#00c3ff"/>
          <path id="Trazado_128655" data-name="Trazado 128655" d="M40.334,129.975l7.95,4.59-5.92,2.522A4.281,4.281,0,0,0,40,142.546a4.215,4.215,0,0,0,3.923,2.672,5.23,5.23,0,0,0,2.3-.617,4.215,4.215,0,0,1,.538-7.474l4.432-1.888a.859.859,0,0,0,.093-1.535l-6.46-3.73a4.214,4.214,0,0,1-.137-7.214l-.059-.034a4.28,4.28,0,0,0-5.764,1.361A4.214,4.214,0,0,0,40.334,129.975Z" transform="translate(-38.226 -97.186)" fill="#00c3ff"/>
          <path id="Trazado_128656" data-name="Trazado 128656" d="M44.85,298.992l6.826-3.941a.648.648,0,0,0-.07-1.157l-4.821-2.054a4.214,4.214,0,0,1-.536-7.473l-.564-.24a4.279,4.279,0,0,0-5.558,2.045,4.214,4.214,0,0,0,2.162,5.668L48.3,294.4l-7.95,4.59a4.214,4.214,0,1,0,4.214,7.3l.145-.084A4.215,4.215,0,0,1,44.85,298.992Z" transform="translate(-38.247 -223.663)" fill="#00c3ff"/>
          <path id="Trazado_128657" data-name="Trazado 128657" d="M104.632,364.193,105.688,356a.579.579,0,0,0-.866-.574l-3.9,2.276-.777,6.4a4.234,4.234,0,0,0,6.42,4.162A4.21,4.21,0,0,1,104.632,364.193Z" transform="translate(-86.653 -279.665)" fill="#00c3ff"/>
          <path id="Trazado_128658" data-name="Trazado 128658" d="M100.892,105.37l2.588,1.513a1.314,1.314,0,0,0,1.967-1.3l-.847-6.7a4.21,4.21,0,0,1,1.938-4.069,4.213,4.213,0,0,0-6.434,4.069Z" transform="translate(-86.62 -75.289)" fill="#00c3ff"/>
          <path id="Trazado_128659" data-name="Trazado 128659" d="M193.676,79.266c-.211.067-.42.142-.626.219l-.147.055a13.926,13.926,0,0,0-4.375,2.706h0l2.189,1.243a.689.689,0,0,0,.853-.139,14.6,14.6,0,0,1,6.216-3.982.536.536,0,0,0,.387-.516V63.866A2.938,2.938,0,0,0,197,61.518l-9.023-6.78a4.3,4.3,0,0,1-1.324-5.333,4.165,4.165,0,0,1,1.515-1.665,4.207,4.207,0,0,0-5.924,1.509,4.3,4.3,0,0,0,1.227,5.482l10.207,7.67V79.266h0Z" transform="translate(-150.514 -38.458)" fill="#00c3ff"/>
          <path id="Trazado_128660" data-name="Trazado 128660" d="M193.676,301.355c-.211-.067-.42-.142-.626-.219l-.147-.055a13.926,13.926,0,0,1-4.375-2.706h0l2.189-1.243a.689.689,0,0,1,.853.139,14.6,14.6,0,0,0,6.216,3.982.536.536,0,0,1,.387.516v14.985A2.938,2.938,0,0,1,197,319.1l-9.023,6.78a4.3,4.3,0,0,0-1.324,5.333,4.165,4.165,0,0,0,1.515,1.665,4.208,4.208,0,0,1-5.924-1.509,4.3,4.3,0,0,1,1.227-5.482l10.207-7.67V301.354h0Z" transform="translate(-150.514 -234.044)" fill="#00c3ff"/>
        </g>
        <path id="Trazado_128661" data-name="Trazado 128661" d="M31.474,27.842a5.841,5.841,0,0,0,2.139,7.984l5.121,2.957-3.01,1.282A5.845,5.845,0,0,0,40.306,50.82L51.4,46.094l12.912,7.455a15.392,15.392,0,0,0,0,4.269L51.4,65.273,40.306,60.547A5.845,5.845,0,1,0,35.724,71.3l3.01,1.282-5.121,2.957a5.845,5.845,0,1,0,5.845,10.124l5.121-2.957-.394,3.248a5.845,5.845,0,1,0,11.6,1.409L57.242,75.4l12.917-7.458a15.723,15.723,0,0,0,3.692,2.137v14.91l-9.638,7.242a5.845,5.845,0,0,0,7.022,9.346l2.616-1.966v5.914a5.845,5.845,0,1,0,11.69,0V99.608l2.616,1.965a5.845,5.845,0,0,0,7.022-9.345l-9.638-7.242V70.076a15.715,15.715,0,0,0,3.692-2.137L102.151,75.4,103.6,87.364a5.845,5.845,0,1,0,11.6-1.409l-.394-3.248,5.121,2.957a5.845,5.845,0,1,0,5.845-10.123l-5.121-2.957,3.01-1.282a5.845,5.845,0,1,0-4.582-10.754L108,65.273,95.083,57.818a15.388,15.388,0,0,0,0-4.269L98.117,51.8a1.631,1.631,0,1,0-1.632-2.826L92.461,51.3a1.631,1.631,0,0,0-.778,1.762,12.2,12.2,0,0,1,0,5.253,1.631,1.631,0,0,0,.778,1.762l14.608,8.434a1.631,1.631,0,0,0,1.455.088l11.84-5.045a2.582,2.582,0,1,1,2.025,4.751l-6.015,2.563a1.633,1.633,0,0,0-.176,2.914l7.95,4.59a2.582,2.582,0,0,1-2.582,4.472l-7.95-4.59a1.633,1.633,0,0,0-2.435,1.609l.788,6.491a2.582,2.582,0,1,1-5.126.622l-1.551-12.777a1.631,1.631,0,0,0-.8-1.216L89.875,64.541a1.632,1.632,0,0,0-1.915.208,12.363,12.363,0,0,1-4.545,2.631,1.632,1.632,0,0,0-1.136,1.554V85.8a1.632,1.632,0,0,0,.651,1.3l10.29,7.732a2.582,2.582,0,0,1-3.1,4.128L84.89,95.037a1.633,1.633,0,0,0-2.612,1.3v9.18a2.582,2.582,0,1,1-5.164,0v-9.18a1.633,1.633,0,0,0-2.612-1.3l-5.227,3.928a2.582,2.582,0,1,1-3.1-4.128L76.463,87.1a1.632,1.632,0,0,0,.651-1.3V68.933a1.631,1.631,0,0,0-1.136-1.554,12.361,12.361,0,0,1-4.545-2.631,1.632,1.632,0,0,0-1.915-.208L54.9,72.977a1.631,1.631,0,0,0-.8,1.216L52.55,86.971a2.582,2.582,0,1,1-5.127-.622l.788-6.491a1.633,1.633,0,0,0-2.435-1.609l-7.95,4.59a2.582,2.582,0,0,1-2.582-4.472l7.95-4.59a1.633,1.633,0,0,0-.176-2.914L37,68.3a2.582,2.582,0,1,1,2.024-4.751l11.841,5.045a1.632,1.632,0,0,0,1.455-.088l14.608-8.434a1.631,1.631,0,0,0,.778-1.762,12.2,12.2,0,0,1,0-5.252,1.631,1.631,0,0,0-.778-1.762L52.323,42.861a1.631,1.631,0,0,0-1.455-.088L39.027,47.818A2.582,2.582,0,0,1,37,43.067L43.017,40.5a1.633,1.633,0,0,0,.176-2.914L35.244,33a2.582,2.582,0,1,1,2.582-4.472l7.95,4.59a1.633,1.633,0,0,0,2.435-1.609l-.788-6.491A2.582,2.582,0,0,1,52.55,24.4L54.1,37.173a1.631,1.631,0,0,0,.8,1.216l14.613,8.437a1.632,1.632,0,0,0,1.915-.208,12.365,12.365,0,0,1,4.545-2.631,1.631,1.631,0,0,0,1.136-1.554V25.566a1.632,1.632,0,0,0-.651-1.3L66.174,16.53a2.582,2.582,0,0,1,3.1-4.129L74.5,16.329a1.633,1.633,0,0,0,2.612-1.3V5.845a2.582,2.582,0,1,1,5.164,0v9.18a1.633,1.633,0,0,0,2.612,1.3L90.117,12.4a2.582,2.582,0,1,1,3.1,4.128L82.93,24.262a1.632,1.632,0,0,0-.651,1.3v5.041a1.631,1.631,0,0,0,3.263,0V26.381l9.638-7.242a5.845,5.845,0,0,0-7.022-9.346l-2.616,1.966V5.845a5.845,5.845,0,1,0-11.689,0v5.914L71.236,9.793a5.845,5.845,0,0,0-7.022,9.346l9.638,7.242v14.91a15.7,15.7,0,0,0-3.692,2.137L57.242,35.97,55.789,24a5.845,5.845,0,1,0-11.6,1.409l.394,3.248L39.458,25.7A5.841,5.841,0,0,0,31.474,27.842Z" transform="translate(0)"/>
        <path id="Trazado_128662" data-name="Trazado 128662" d="M295.7,86.755a5.841,5.841,0,0,0-6.507,5.1l-1.453,11.968-12.917,7.458a15.72,15.72,0,0,0-3.692-2.137v-3.07a1.631,1.631,0,1,0-3.263,0v4.212a1.631,1.631,0,0,0,1.136,1.554,12.362,12.362,0,0,1,4.545,2.631,1.632,1.632,0,0,0,1.915.207l14.613-8.437a1.631,1.631,0,0,0,.8-1.216l1.551-12.777a2.582,2.582,0,1,1,5.127.622l-.788,6.491a1.631,1.631,0,0,0,2.435,1.609l7.951-4.59a2.582,2.582,0,0,1,2.582,4.472l-7.95,4.59a1.631,1.631,0,0,0,.176,2.914l6.015,2.563a2.582,2.582,0,0,1-2.024,4.751l-11.841-5.045a1.632,1.632,0,0,0-1.455.088l-3.99,2.3a1.631,1.631,0,0,0,1.632,2.826l3.285-1.9,11.091,4.726a5.845,5.845,0,0,0,4.581-10.754l-3.01-1.282,5.121-2.957a5.845,5.845,0,0,0-5.845-10.123l-5.121,2.957.394-3.248A5.843,5.843,0,0,0,295.7,86.755Z" transform="translate(-185.592 -67.851)"/>
        <path id="Trazado_128663" data-name="Trazado 128663" d="M223.317,230.427a7.109,7.109,0,1,0,7.109-7.109A7.117,7.117,0,0,0,223.317,230.427Zm10.955,0a3.846,3.846,0,1,1-3.846-3.846A3.851,3.851,0,0,1,234.272,230.427Z" transform="translate(-150.729 -174.744)"/>
      </g>
    </g>
  </g>
</svg>
