<svg xmlns="http://www.w3.org/2000/svg" width="399" height="423" viewBox="0 0 399 423">
  <g id="Grupo_88787" data-name="Grupo 88787" transform="translate(-601 -4312)">
    <rect id="Rectángulo_25831" data-name="Rectángulo 25831" width="399" height="423" transform="translate(601 4312)" fill="#cbeeff"/>
    <text id="Vitrinas_comerciales" data-name="Vitrinas comerciales" transform="translate(800 4518)" fill="#12263f" font-size="24" font-family="Roboto-Medium, Roboto" font-weight="500"><tspan x="-110.086" y="0">Vitrinas comerciales</tspan></text>
    <circle id="Elipse_4184" data-name="Elipse 4184" cx="47" cy="47" r="47" transform="translate(757 4374)" fill="#53bced"/>
    <text id="_7" data-name="7" transform="translate(793 4435)" fill="#12263f" font-size="40" font-family="Roboto-Bold, Roboto" font-weight="700"><tspan x="0" y="0">7</tspan></text>
    <g id="Grupo_87038" data-name="Grupo 87038">
      <rect id="Rectángulo_25833" data-name="Rectángulo 25833" width="142" height="142" transform="translate(729 4550)" fill="none"/>
      <g id="tienda" transform="translate(753.434 4552.735)">
        <rect id="Rectángulo_26139" data-name="Rectángulo 26139" width="79.03" height="67.642" transform="translate(8.051 40.755)" fill="#e9eaeb"/>
        <rect id="Rectángulo_26140" data-name="Rectángulo 26140" width="10.033" height="67.642" transform="translate(77.048 40.755)" fill="#b9bbc1"/>
        <path id="Trazado_128682" data-name="Trazado 128682" d="M121.429,46.861H41.847v-11.1a1.606,1.606,0,0,1,1.606-1.606h76.369a1.606,1.606,0,0,1,1.606,1.606v11.1Z" transform="translate(-34.072 -6.106)" fill="#fdc74f"/>
        <path id="Trazado_128683" data-name="Trazado 128683" d="M424.58,34.151h-8.427V42.51h10.033V35.757A1.606,1.606,0,0,0,424.58,34.151Z" transform="translate(-338.83 -6.106)" fill="#fca629"/>
        <path id="Trazado_128684" data-name="Trazado 128684" d="M14.473,158.558h0a6.586,6.586,0,0,1-6.586-6.586v-5.366H21.059v5.366A6.586,6.586,0,0,1,14.473,158.558Z" transform="translate(-6.422 -97.668)" fill="#e60d28"/>
        <path id="Trazado_128685" data-name="Trazado 128685" d="M85.362,158.558h0a6.586,6.586,0,0,1-6.586-6.586v-5.366H91.948v5.366A6.586,6.586,0,0,1,85.362,158.558Z" transform="translate(-64.139 -97.668)" fill="#f2f2f2"/>
        <path id="Trazado_128686" data-name="Trazado 128686" d="M156.252,158.558h0a6.586,6.586,0,0,1-6.586-6.586v-5.366h13.172v5.366A6.586,6.586,0,0,1,156.252,158.558Z" transform="translate(-121.857 -97.668)" fill="#e60d28"/>
        <path id="Trazado_128687" data-name="Trazado 128687" d="M227.141,158.558h0a6.586,6.586,0,0,1-6.586-6.586v-5.366h13.172v5.366A6.586,6.586,0,0,1,227.141,158.558Z" transform="translate(-179.575 -97.668)" fill="#f2f2f2"/>
        <path id="Trazado_128688" data-name="Trazado 128688" d="M298.031,158.558h0a6.586,6.586,0,0,1-6.586-6.586v-5.366h13.172v5.366A6.586,6.586,0,0,1,298.031,158.558Z" transform="translate(-237.293 -97.668)" fill="#e60d28"/>
        <path id="Trazado_128689" data-name="Trazado 128689" d="M368.92,158.558h0a6.586,6.586,0,0,1-6.586-6.586v-5.366h13.172v5.366A6.586,6.586,0,0,1,368.92,158.558Z" transform="translate(-295.01 -97.668)" fill="#f2f2f2"/>
        <path id="Trazado_128690" data-name="Trazado 128690" d="M439.809,158.558h0a6.586,6.586,0,0,1-6.586-6.586v-5.366h13.172v5.366A6.586,6.586,0,0,1,439.809,158.558Z" transform="translate(-352.728 -97.668)" fill="#e60d28"/>
        <path id="Trazado_128691" data-name="Trazado 128691" d="M21.059,91.676H7.887l6.3-12.536H25.561Z" transform="translate(-6.422 -42.736)" fill="#fc502a"/>
        <path id="Trazado_128692" data-name="Trazado 128692" d="M91.948,91.676H78.776l4.5-12.536H94.649Z" transform="translate(-64.139 -42.736)" fill="#fff"/>
        <path id="Trazado_128693" data-name="Trazado 128693" d="M162.838,91.676H149.666l2.7-12.536h11.371Z" transform="translate(-121.857 -42.736)" fill="#fc502a"/>
        <path id="Trazado_128694" data-name="Trazado 128694" d="M233.727,91.676H220.555l.9-12.536h11.371Z" transform="translate(-179.575 -42.736)" fill="#fff"/>
        <path id="Trazado_128695" data-name="Trazado 128695" d="M300.67,91.676H287.5l-.9-12.536h11.371Z" transform="translate(-233.347 -42.736)" fill="#fc502a"/>
        <path id="Trazado_128696" data-name="Trazado 128696" d="M363.668,91.676H350.5L347.8,79.14h11.371Z" transform="translate(-283.173 -42.736)" fill="#fff"/>
        <path id="Trazado_128697" data-name="Trazado 128697" d="M426.666,91.676H413.494l-4.5-12.536h11.371Z" transform="translate(-332.999 -42.736)" fill="#fc502a"/>
        <path id="Trazado_128698" data-name="Trazado 128698" d="M96.837,433.349H10.508A3.008,3.008,0,0,0,7.5,436.357v4.408a.853.853,0,0,0,.853.853h90.64a.853.853,0,0,0,.853-.853v-4.408A3.008,3.008,0,0,0,96.837,433.349Z" transform="translate(-6.106 -331.131)" fill="#8b8996"/>
        <path id="Trazado_128699" data-name="Trazado 128699" d="M457.391,433.349h-7.057v8.268h9.212a.853.853,0,0,0,.853-.853v-4.408A3.008,3.008,0,0,0,457.391,433.349Z" transform="translate(-366.66 -331.131)" fill="#706f7f"/>
        <path id="Trazado_128700" data-name="Trazado 128700" d="M243.764,277.454H203.2a1.2,1.2,0,0,1-1.2-1.2V253.933a1.2,1.2,0,0,1,1.2-1.2h40.566a1.2,1.2,0,0,1,1.2,1.2v22.322A1.2,1.2,0,0,1,243.764,277.454Z" transform="translate(-164.467 -184.076)" fill="#00c6c8"/>
        <path id="Trazado_128701" data-name="Trazado 128701" d="M387.923,252.735h-8.866v24.719h8.866a1.2,1.2,0,0,0,1.2-1.2V253.933A1.2,1.2,0,0,0,387.923,252.735Z" transform="translate(-308.626 -184.076)" fill="#0fb0c0"/>
        <path id="Trazado_128702" data-name="Trazado 128702" d="M90.235,286.294H71.727V253.933a1.2,1.2,0,0,1,1.2-1.2H89.036a1.2,1.2,0,0,1,1.2,1.2v32.361Z" transform="translate(-58.4 -184.076)" fill="#00c6c8"/>
        <path id="Trazado_128703" data-name="Trazado 128703" d="M126.035,252.735h-8.866v33.559h10.065V253.933A1.2,1.2,0,0,0,126.035,252.735Z" transform="translate(-95.398 -184.076)" fill="#0fb0c0"/>
        <path id="Trazado_128704" data-name="Trazado 128704" d="M137.394,331.55a1.394,1.394,0,0,0,1.394-1.394v-2.508a1.394,1.394,0,0,0-2.787,0v2.508A1.394,1.394,0,0,0,137.394,331.55Z" transform="translate(-110.73 -243.936)"/>
        <path id="Trazado_128705" data-name="Trazado 128705" d="M90.731,100.824H88.475V62.16A7.991,7.991,0,0,0,95.061,54.3V48.94c0-.027,0-.054,0-.081s0-.03,0-.045a1.4,1.4,0,0,0-.024-.162s0-.006,0-.009a1.37,1.37,0,0,0-.042-.149c0-.012-.009-.025-.013-.037-.015-.042-.033-.082-.052-.122,0-.007-.006-.015-.009-.022L88.751,36.06V29.651a3,3,0,0,0-3-3H22.381a1.394,1.394,0,1,0,0,2.787H85.751a.213.213,0,0,1,.213.213V35.01H9.169V29.651a.213.213,0,0,1,.213-.213H15.9a1.394,1.394,0,0,0,0-2.787H9.382a3,3,0,0,0-3,3V36.06L.22,48.314c0,.007-.006.015-.009.022-.019.04-.036.08-.052.122,0,.012-.009.024-.013.037a1.373,1.373,0,0,0-.042.149l0,.009a1.363,1.363,0,0,0-.024.162c0,.015,0,.03,0,.045s0,.054,0,.081V54.3A7.991,7.991,0,0,0,6.658,62.16v38.664H4.4a4.406,4.406,0,0,0-4.4,4.4v4.408a2.249,2.249,0,0,0,2.246,2.246h90.64a2.249,2.249,0,0,0,2.246-2.246v-4.408A4.406,4.406,0,0,0,90.731,100.824Zm1.542-46.519a5.192,5.192,0,0,1-10.385,0V50.333H92.273v3.972ZM86.5,37.8l4.9,9.749H81.476l-3.5-9.749Zm-11.492,0,3.5,9.749H68.449l-2.1-9.749ZM79.1,50.333V54.3a5.192,5.192,0,0,1-10.385,0V50.333ZM63.5,37.8l2.1,9.749H55.449l-.7-9.749ZM65.93,50.333V54.3a5.192,5.192,0,1,1-10.384,0V50.333ZM43.178,37.8h8.777l.7,9.749H42.478Zm-.8,12.536H52.759V54.3a5.192,5.192,0,0,1-10.385,0Zm5.192,11.951A7.976,7.976,0,0,0,54.152,58.8a7.971,7.971,0,0,0,13.172,0,7.971,7.971,0,0,0,13.172,0,7.993,7.993,0,0,0,5.192,3.356v38.664H33.229V69.857a2.6,2.6,0,0,0-2.592-2.592H14.526a2.6,2.6,0,0,0-2.592,2.592v30.967H9.445V62.16A7.993,7.993,0,0,0,14.637,58.8a7.971,7.971,0,0,0,13.172,0,7.971,7.971,0,0,0,13.172,0A7.975,7.975,0,0,0,47.566,62.284ZM30.442,70.052v30.772H14.721V70.052ZM16.031,54.305V50.333H26.415v3.972a5.192,5.192,0,0,1-10.385,0ZM31.635,37.8h8.748l-.7,9.749H29.535ZM29.2,50.333H39.587V54.3a5.192,5.192,0,1,1-10.384,0V50.333ZM28.784,37.8l-2.1,9.749H16.618l3.5-9.749Zm-20.156,0h8.53l-3.5,9.749H3.726ZM2.859,54.305V50.333H13.244v3.972a5.192,5.192,0,0,1-10.385,0Zm89.486,54.787H2.787v-3.867A1.616,1.616,0,0,1,4.4,103.611H90.731a1.616,1.616,0,0,1,1.614,1.614v3.867Z"/>
        <path id="Trazado_128706" data-name="Trazado 128706" d="M194.5,247.827v22.322a2.6,2.6,0,0,0,2.592,2.592h40.566a2.6,2.6,0,0,0,2.592-2.592V247.827a2.6,2.6,0,0,0-2.592-2.592H220.617a1.394,1.394,0,0,0,0,2.787h16.846v21.932H197.287V248.022h16.769a1.394,1.394,0,0,0,0-2.787H197.092A2.6,2.6,0,0,0,194.5,247.827Z" transform="translate(-158.361 -177.97)"/>
      </g>
    </g>
  </g>
</svg>
