<svg xmlns="http://www.w3.org/2000/svg" width="399" height="423" viewBox="0 0 399 423">
  <g id="Grupo_88783" data-name="Grupo 88783" transform="translate(-1021 -3440)">
    <rect id="Rect치ngulo_25827" data-name="Rect치ngulo 25827" width="399" height="423" transform="translate(1021 3440)" fill="#cbeeff"/>
    <text id="Vitrinas_informativas" data-name="Vitrinas informativas" transform="translate(1221 3646)" fill="#12263f" font-size="24" font-family="Roboto-Medium, Roboto" font-weight="500"><tspan x="-112.014" y="0">Vitrinas informativas</tspan></text>
    <circle id="Elipse_4180" data-name="Elipse 4180" cx="47" cy="47" r="47" transform="translate(1178 3502)" fill="#53bced"/>
    <text id="_3" data-name="3" transform="translate(1214 3563)" fill="#12263f" font-size="40" font-family="Roboto-Bold, Roboto" font-weight="700"><tspan x="0" y="0">3</tspan></text>
    <g id="Grupo_87006" data-name="Grupo 87006">
      <rect id="Rect치ngulo_25833" data-name="Rect치ngulo 25833" width="142" height="142" transform="translate(1150 3683)" fill="none"/>
      <g id="informacion" transform="translate(1179 3707.008)">
        <path id="Trazado_128641" data-name="Trazado 128641" d="M53.719,10c23.557,0,43.719,20.162,43.719,43.719S77.276,97.438,53.719,97.438a46.135,46.135,0,0,1-23.834-6.629L10,97.438l6.629-19.885A46.134,46.134,0,0,1,10,53.719C10,30.162,30.162,10,53.719,10Zm0,0" transform="translate(-8.223 -8.223)" fill="#96c8ef"/>
        <path id="Trazado_128642" data-name="Trazado 128642" d="M223.772,240.881v7.109H206v-7.109h3.554V223.109H206V216h14.217v24.881Zm0,0" transform="translate(-169.39 -177.613)" fill="#fff"/>
        <path id="Trazado_128643" data-name="Trazado 128643" d="M236.663,121.332A5.332,5.332,0,1,1,231.332,116,5.331,5.331,0,0,1,236.663,121.332Zm0,0" transform="translate(-185.836 -95.385)" fill="#fff"/>
        <path id="Trazado_128644" data-name="Trazado 128644" d="M412,127.777A1.777,1.777,0,1,0,413.777,126,1.778,1.778,0,0,0,412,127.777Zm0,0" transform="translate(-338.78 -103.607)"/>
        <path id="Trazado_128645" data-name="Trazado 128645" d="M436.105,177.256a33.852,33.852,0,0,1-.678,6.753,1.777,1.777,0,0,0,1.386,2.1,1.752,1.752,0,0,0,.358.037,1.779,1.779,0,0,0,1.74-1.422,37.4,37.4,0,0,0,.75-7.464,36.919,36.919,0,0,0-3.608-16.006,1.777,1.777,0,1,0-3.209,1.529A33.394,33.394,0,0,1,436.105,177.256Zm0,0" transform="translate(-355.776 -131.76)"/>
        <path id="Trazado_128646" data-name="Trazado 128646" d="M215.549,230.881h-1.777v-23.1A1.777,1.777,0,0,0,211.995,206H197.777A1.777,1.777,0,0,0,196,207.777v7.109a1.777,1.777,0,0,0,1.777,1.777h1.777v14.218h-1.777A1.777,1.777,0,0,0,196,232.658v7.109a1.777,1.777,0,0,0,1.777,1.777h17.772a1.777,1.777,0,0,0,1.777-1.777v-7.109A1.777,1.777,0,0,0,215.549,230.881Zm-1.777,7.109H199.554v-3.554h1.777a1.777,1.777,0,0,0,1.777-1.777V214.886a1.777,1.777,0,0,0-1.777-1.777h-1.777v-3.554h10.663v23.1a1.778,1.778,0,0,0,1.777,1.777h1.777Zm0,0" transform="translate(-161.167 -169.39)"/>
        <path id="Trazado_128647" data-name="Trazado 128647" d="M223.109,120.217A7.109,7.109,0,1,0,216,113.109,7.117,7.117,0,0,0,223.109,120.217Zm0-10.663a3.554,3.554,0,1,1-3.554,3.554A3.559,3.559,0,0,1,223.109,109.554Zm0,0" transform="translate(-177.613 -87.162)"/>
        <path id="Trazado_128648" data-name="Trazado 128648" d="M45.5,0C20.975,0,0,20.935,0,45.5a48.462,48.462,0,0,0,6.458,24.06L.091,88.653A1.777,1.777,0,0,0,2.339,90.9l19.1-6.366A48.45,48.45,0,0,0,45.5,90.992c24.527,0,45.5-20.938,45.5-45.5C90.992,20.969,70.054,0,45.5,0Zm0,87.438a44.451,44.451,0,0,1-22.883-6.353A1.776,1.776,0,0,0,21.1,80.9L4.587,86.4l5.5-16.513a1.775,1.775,0,0,0-.185-1.513A44.45,44.45,0,0,1,3.554,45.5C3.554,22.761,22.761,3.554,45.5,3.554S87.437,22.761,87.437,45.5,68.23,87.438,45.5,87.438Zm0,0"/>
      </g>
    </g>
  </g>
</svg>
