<svg xmlns="http://www.w3.org/2000/svg" width="145.969" height="73" viewBox="0 0 145.969 73">
  <g id="Grupo_88762" data-name="Grupo 88762" transform="translate(-702 -2741)">
    <text id="_06" data-name="06" transform="translate(702 2799)" fill="#53bced" font-size="55" font-family="Roboto-Bold, Roboto" font-weight="700"><tspan x="0" y="0">06</tspan></text>
    <g id="catalogos" transform="translate(794.969 2747)">
      <g id="Grupo_88555" data-name="Grupo 88555" transform="translate(1.839 1.839)">
        <g id="Grupo_88542" data-name="Grupo 88542" transform="translate(20.129 35.226)">
          <path id="Trazado_128187" data-name="Trazado 128187" d="M28.516,44a2.516,2.516,0,0,1,0,5.032H26V44Z" transform="translate(-26 -44)" fill="#969faa"/>
        </g>
        <g id="Grupo_88543" data-name="Grupo 88543" transform="translate(20.129 36.903)">
          <path id="Trazado_128188" data-name="Trazado 128188" d="M27.677,49.355H50.323a.841.841,0,0,0,.839-.839V46h3.355V56.065a3.354,3.354,0,0,1-3.355,3.355H29.355A3.354,3.354,0,0,1,26,56.065v-6.71Z" transform="translate(-26 -46)" fill="#969faa"/>
        </g>
        <g id="Grupo_88544" data-name="Grupo 88544" transform="translate(20.129)">
          <path id="Trazado_128189" data-name="Trazado 128189" d="M54.516,5.355V33.477a5.008,5.008,0,0,0-3.355-1.283V9.548a.841.841,0,0,0-.839-.839H26V5.355A3.354,3.354,0,0,1,29.355,2H51.161A3.354,3.354,0,0,1,54.516,5.355Z" transform="translate(-26 -2)" fill="#969faa"/>
        </g>
        <g id="Grupo_88545" data-name="Grupo 88545" transform="translate(22.645 6.71)">
          <path id="Trazado_128190" data-name="Trazado 128190" d="M50.806,10H29a2.513,2.513,0,0,1,2.516,2.516V41.032A2.52,2.52,0,0,1,29,43.548H50.806a.841.841,0,0,0,.839-.839V10.839A.841.841,0,0,0,50.806,10Z" transform="translate(-29 -10)" fill="#e6e9ed"/>
        </g>
        <g id="Grupo_88546" data-name="Grupo 88546" transform="translate(28.516 10.065)">
          <path id="Trazado_128191" data-name="Trazado 128191" d="M36,14H49.419v5.032H36Z" transform="translate(-36 -14)" fill="#ff826e"/>
        </g>
        <g id="Grupo_88547" data-name="Grupo 88547" transform="translate(0 6.71)">
          <path id="Trazado_128192" data-name="Trazado 128192" d="M24.645,10H2V38.516H24.645a2.513,2.513,0,0,1,2.516,2.516V12.516A2.513,2.513,0,0,0,24.645,10Z" transform="translate(-2 -10)" fill="#e6e9ed"/>
        </g>
        <g id="Grupo_88548" data-name="Grupo 88548" transform="translate(30.194 43.613)">
          <path id="Trazado_128193" data-name="Trazado 128193" d="M44.71,54a1.682,1.682,0,0,1,1.677,1.677,1.69,1.69,0,0,1-1.677,1.677H39.677A1.682,1.682,0,0,1,38,55.677,1.69,1.69,0,0,1,39.677,54Z" transform="translate(-38 -54)" fill="#e6e9ed"/>
        </g>
        <g id="Grupo_88549" data-name="Grupo 88549" transform="translate(5.032 46.968)">
          <path id="Trazado_128194" data-name="Trazado 128194" d="M8,58H18.065v3.355H8Z" transform="translate(-8 -58)" fill="#5cd6b3"/>
        </g>
        <g id="Grupo_88550" data-name="Grupo 88550" transform="translate(1.82 31.871)">
          <path id="Trazado_128195" data-name="Trazado 128195" d="M18.6,43.355l.486,5.435c.025.294.042.579.042.872A9.6,9.6,0,0,1,17.505,55l-.059.092H7.382L6.711,54.09a8.583,8.583,0,0,1-1.308-3.3L4.17,43.355H9.06v3.254A1.779,1.779,0,0,0,12.1,47.867a8.381,8.381,0,0,0,2.348-4.512c.025-.092.034-.185.05-.277l.2-1.459A1.888,1.888,0,0,1,16.566,40a1.9,1.9,0,0,1,1.879,1.711Z" transform="translate(-4.17 -40)" fill="#f0d0b4"/>
        </g>
        <g id="Grupo_88551" data-name="Grupo 88551" transform="translate(13.766 23.778)">
          <circle id="Elipse_4359" data-name="Elipse 4359" cx="4" cy="4" r="4" transform="translate(0.427 0.383)" fill="#ff826e"/>
        </g>
        <g id="Grupo_88552" data-name="Grupo 88552" transform="translate(3.355 10.065)">
          <path id="Trazado_128196" data-name="Trazado 128196" d="M6,14h8.387V24.065H6Z" transform="translate(-6 -14)" fill="#fcd770"/>
        </g>
        <g id="Grupo_88553" data-name="Grupo 88553" transform="translate(30.194 21.806)">
          <path id="Trazado_128197" data-name="Trazado 128197" d="M58.129,41.419A1.69,1.69,0,0,1,56.452,43.1H50.639a1.661,1.661,0,0,1-1.392-.746l-3.422-5.133A9.387,9.387,0,0,0,38,33.032V30.415A2.416,2.416,0,0,1,40.415,28a2.461,2.461,0,0,1,1.635.629l6.668,6.064A6.507,6.507,0,0,0,53.1,36.387a5.008,5.008,0,0,1,3.355,1.283c.067.067.134.126.2.193A4.985,4.985,0,0,1,58.129,41.419Z" transform="translate(-38 -28)" fill="#fcd770"/>
        </g>
        <g id="Grupo_88554" data-name="Grupo 88554" transform="translate(30.194 26.839)">
          <path id="Trazado_128198" data-name="Trazado 128198" d="M42.386,35.082a9.354,9.354,0,0,0-1.032,4.277v4.705H38V34A9.43,9.43,0,0,1,42.386,35.082Z" transform="translate(-38 -34)" fill="#ffc729"/>
        </g>
      </g>
      <g id="Grupo_88556" data-name="Grupo 88556" transform="translate(1 1)">
        <path id="Trazado_128199" data-name="Trazado 128199" d="M53,37.065a5.848,5.848,0,0,0-1.677-4.1V5.194A4.2,4.2,0,0,0,47.129,1H25.323a4.2,4.2,0,0,0-4.194,4.194V7.71H1V37.9H2.946l1.122,6.739A9.22,9.22,0,0,0,5.5,48.262l.532.8V53H17.774V49.05a10.441,10.441,0,0,0,1.677-5.677c0-.317-.014-.632-.043-.949L19,37.9h2.131v10.9A4.2,4.2,0,0,0,25.323,53H47.129a4.2,4.2,0,0,0,4.194-4.194v-9.38A2.513,2.513,0,0,0,53,37.065ZM22.806,5.194a2.519,2.519,0,0,1,2.516-2.516H47.129a2.519,2.519,0,0,1,2.516,2.516V31.768a5.818,5.818,0,0,0-1.677-.507V9.387A1.679,1.679,0,0,0,46.29,7.71H22.806ZM32.871,29.568a8.519,8.519,0,0,1,2.448.613,10.285,10.285,0,0,0-.771,3.86V37.9H32.871Zm-1.677-3.5V39.581h5.032v-5.54a8.593,8.593,0,0,1,.575-3.065,8.55,8.55,0,0,1,2.358,2.355l3.42,5.13a2.512,2.512,0,0,0,2.093,1.12H46.29v1.677H27.372a3.32,3.32,0,0,0,.466-1.677V11.065a3.32,3.32,0,0,0-.466-1.677H46.29V31.126a5.649,5.649,0,0,1-2.975-1.407l-6.673-6.066a3.258,3.258,0,0,0-5.449,2.411ZM16.1,51.323H7.71V49.645H16.1Zm.375-3.355H7.32L6.9,47.332a7.551,7.551,0,0,1-1.173-2.966L4.646,37.9H7.71v2.415a2.618,2.618,0,0,0,4.469,1.851,9.358,9.358,0,0,0,2.632-5.262l.209-1.46a1.045,1.045,0,0,1,2.075.054l.644,7.076c.023.264.036.53.036.8A8.764,8.764,0,0,1,16.472,47.968ZM9.387,37.9h3.476a7.676,7.676,0,0,1-1.871,3.08.941.941,0,0,1-1.605-.665Zm6.71-8.387a3.355,3.355,0,1,1,3.355,3.355A3.358,3.358,0,0,1,16.1,29.516Zm2.669,5.831a2.722,2.722,0,0,0-.242-.888,4.978,4.978,0,0,0,.928.09A5.051,5.051,0,1,0,15.738,32.9a2.732,2.732,0,0,0-2.38,2.308l-.145,1.017H2.677V9.387H24.484a1.679,1.679,0,0,1,1.677,1.677V36.692a3.32,3.32,0,0,0-1.677-.466H18.845ZM24.484,37.9a1.677,1.677,0,1,1,0,3.355H22.806V37.9ZM47.129,51.323H25.323a2.519,2.519,0,0,1-2.516-2.516V42.935H46.29a1.679,1.679,0,0,0,1.677-1.677V39.581h1.677v9.226A2.519,2.519,0,0,1,47.129,51.323ZM50.484,37.9H44.672a.837.837,0,0,1-.7-.373l-3.42-5.13a10.213,10.213,0,0,0-7.683-4.526V26.066a1.581,1.581,0,0,1,2.644-1.171l6.672,6.066a7.337,7.337,0,0,0,4.942,1.91,4.2,4.2,0,0,1,4.194,4.194A.839.839,0,0,1,50.484,37.9Z" transform="translate(-1 -1)"/>
        <path id="Trazado_128200" data-name="Trazado 128200" d="M44.548,53H39.516a2.516,2.516,0,1,0,0,5.032h5.032a2.516,2.516,0,1,0,0-5.032Zm0,3.355H39.516a.839.839,0,0,1,0-1.677h5.032a.839.839,0,0,1,0,1.677Z" transform="translate(-6.806 -9.387)"/>
        <ellipse id="Elipse_4360" data-name="Elipse 4360" cx="1" cy="0.5" rx="1" ry="0.5" transform="translate(24.031 4)"/>
        <path id="Trazado_128201" data-name="Trazado 128201" d="M37,5h8.387V6.677H37Z" transform="translate(-6.806 -1.645)"/>
        <path id="Trazado_128202" data-name="Trazado 128202" d="M50.1,13H35v6.71H50.1Zm-1.677,5.032H36.677V14.677H48.419Z" transform="translate(-6.484 -2.935)"/>
        <path id="Trazado_128203" data-name="Trazado 128203" d="M35,23H50.1v1.677H35Z" transform="translate(-6.484 -4.548)"/>
        <path id="Trazado_128204" data-name="Trazado 128204" d="M5,24.742H15.065V13H5ZM6.677,14.677h6.71v8.387H6.677Z" transform="translate(-1.645 -2.935)"/>
        <path id="Trazado_128205" data-name="Trazado 128205" d="M27,17h1.677v1.677H27Z" transform="translate(-5.194 -3.581)"/>
        <path id="Trazado_128206" data-name="Trazado 128206" d="M19,17h5.032v1.677H19Z" transform="translate(-3.903 -3.581)"/>
        <path id="Trazado_128207" data-name="Trazado 128207" d="M19,13h8.387v1.677H19Z" transform="translate(-3.903 -2.935)"/>
        <path id="Trazado_128208" data-name="Trazado 128208" d="M19,21h8.387v1.677H19Z" transform="translate(-3.903 -4.226)"/>
        <path id="Trazado_128209" data-name="Trazado 128209" d="M19,25h8.387v1.677H19Z" transform="translate(-3.903 -4.871)"/>
        <path id="Trazado_128210" data-name="Trazado 128210" d="M5,29h8.387v1.677H5Z" transform="translate(-1.645 -5.516)"/>
        <path id="Trazado_128211" data-name="Trazado 128211" d="M13,33h1.677v1.677H13Z" transform="translate(-2.935 -6.161)"/>
        <path id="Trazado_128212" data-name="Trazado 128212" d="M5,33h5.032v1.677H5Z" transform="translate(-1.645 -6.161)"/>
        <path id="Trazado_128213" data-name="Trazado 128213" d="M5,37h8.387v1.677H5Z" transform="translate(-1.645 -6.806)"/>
      </g>
    </g>
  </g>
</svg>
