<svg xmlns="http://www.w3.org/2000/svg" width="91" height="91" viewBox="0 0 91 91">
  <g id="beneficio" transform="translate(-1 -1)">
    <g id="Grupo_88504" data-name="Grupo 88504" transform="translate(2.468 2.468)">
      <g id="Grupo_88494" data-name="Grupo 88494" transform="translate(26.419 0)">
        <path id="Trazado_128003" data-name="Trazado 128003" d="M80.016,3.629A5.522,5.522,0,0,0,76.082,2H25.563A5.569,5.569,0,0,0,20,7.563c0,.205.015.411.029.616l2.1,18.8c.264-.015.528-.029.807-.029h5.871a11.762,11.762,0,0,1-2.569,7.339H37.613l6.443,7.72a3,3,0,0,0,5.3-1.908V34.29l25.627-.147H75a5.554,5.554,0,0,0,4.256-4.8L81.616,8.179c.015-.205.029-.411.029-.616a5.522,5.522,0,0,0-1.629-3.934Z" transform="translate(-20 -2)" fill="#e6e9ed"/>
      </g>
      <g id="Grupo_88495" data-name="Grupo 88495" transform="translate(61.645 26.419)">
        <path id="Trazado_128004" data-name="Trazado 128004" d="M70.419,34.4v.1a3.114,3.114,0,0,1-5.313,2.2l-4.961-4.961v49.9H54.274v-49.9L49.313,36.7A3.114,3.114,0,0,1,44,34.5v-.1a3.09,3.09,0,0,1,.793-2.07l5.739-6.443L54.773,21.1a3.247,3.247,0,0,1,4.873,0l4.11,4.623,5.871,6.6a3.09,3.09,0,0,1,.793,2.07Z" transform="translate(-44 -20)" fill="#ff826e"/>
      </g>
      <g id="Grupo_88496" data-name="Grupo 88496" transform="translate(39.629 46.968)">
        <path id="Trazado_128005" data-name="Trazado 128005" d="M55.419,48.4v.1a3.114,3.114,0,0,1-5.313,2.2l-4.961-4.961V75.1H39.274V45.742L34.313,50.7A3.114,3.114,0,0,1,29,48.5v-.1a3.09,3.09,0,0,1,.793-2.07L39.773,35.1a3.247,3.247,0,0,1,4.873,0l9.981,11.228A3.09,3.09,0,0,1,55.419,48.4Z" transform="translate(-29 -34)" fill="#ff826e"/>
      </g>
      <g id="Grupo_88497" data-name="Grupo 88497" transform="translate(0 79.258)">
        <path id="Trazado_128006" data-name="Trazado 128006" d="M19.613,56H34.29a2.944,2.944,0,0,1,2.935,2.935v2.935a2.944,2.944,0,0,1-2.935,2.935H4.935A2.944,2.944,0,0,1,2,61.871V58.935A2.944,2.944,0,0,1,4.935,56H19.613Z" transform="translate(-2 -56)" fill="#ffc729"/>
      </g>
      <g id="Grupo_88498" data-name="Grupo 88498" transform="translate(0 61.645)">
        <path id="Trazado_128007" data-name="Trazado 128007" d="M19.613,44H34.29a2.944,2.944,0,0,1,2.935,2.935v2.935a2.944,2.944,0,0,1-2.935,2.935H4.935A2.944,2.944,0,0,1,2,49.871V46.935A2.944,2.944,0,0,1,4.935,44H19.613Z" transform="translate(-2 -44)" fill="#ffc729"/>
      </g>
      <g id="Grupo_88499" data-name="Grupo 88499" transform="translate(0 70.452)">
        <path id="Trazado_128008" data-name="Trazado 128008" d="M19.613,50H34.29a2.944,2.944,0,0,1,2.935,2.935v2.935a2.944,2.944,0,0,1-2.935,2.935H4.935A2.944,2.944,0,0,1,2,55.871V52.935A2.944,2.944,0,0,1,4.935,50H19.613Z" transform="translate(-2 -50)" fill="#fcd770"/>
      </g>
      <g id="Grupo_88500" data-name="Grupo 88500" transform="translate(0 52.839)">
        <path id="Trazado_128009" data-name="Trazado 128009" d="M19.613,38H34.29a2.944,2.944,0,0,1,2.935,2.935v2.935a2.944,2.944,0,0,1-2.935,2.935H4.935A2.944,2.944,0,0,1,2,43.871V40.935A2.944,2.944,0,0,1,4.935,38H19.613Z" transform="translate(-2 -38)" fill="#fcd770"/>
      </g>
      <g id="Grupo_88501" data-name="Grupo 88501" transform="translate(0 35.226)">
        <path id="Trazado_128010" data-name="Trazado 128010" d="M19.613,37.742H13.742A11.739,11.739,0,0,1,2,26H7.871A11.739,11.739,0,0,1,19.613,37.742Z" transform="translate(-2 -26)" fill="#b4dd7f"/>
      </g>
      <g id="Grupo_88502" data-name="Grupo 88502" transform="translate(17.613 24.952)">
        <path id="Trazado_128011" data-name="Trazado 128011" d="M25.742,19h5.871a11.762,11.762,0,0,1-2.569,7.339c-.279.338-.558.66-.866.969a11.763,11.763,0,0,1-8.307,3.435H14A11.721,11.721,0,0,1,24.935,19.029C25.2,19.015,25.463,19,25.742,19Z" transform="translate(-14 -19)" fill="#b4dd7f"/>
      </g>
      <g id="Grupo_88503" data-name="Grupo 88503" transform="translate(0 10.274)">
        <path id="Trazado_128012" data-name="Trazado 128012" d="M19.613,20.742H13.742A11.739,11.739,0,0,1,2,9H7.871A11.739,11.739,0,0,1,19.613,20.742Z" transform="translate(-2 -9)" fill="#b4dd7f"/>
      </g>
    </g>
    <g id="Grupo_88505" data-name="Grupo 88505" transform="translate(1 1)">
      <path id="Trazado_128013" data-name="Trazado 128013" d="M84.18,46.626a4.552,4.552,0,0,0,3.239,1.342,4.659,4.659,0,0,0,3.424-7.731l-4.515-5.078A7.033,7.033,0,0,0,89.6,29.973L91.957,8.805A7.194,7.194,0,0,0,92,8.03,7.039,7.039,0,0,0,84.97,1H34.45a7.039,7.039,0,0,0-7.03,7.03,7.244,7.244,0,0,0,.043.776l1.932,17.378a13.213,13.213,0,0,0-7.845,4.692V24.484a13.226,13.226,0,0,0-13.21-13.21H1v1.468a13.226,13.226,0,0,0,13.21,13.21h4.4v15.2A13.184,13.184,0,0,0,8.339,36.226H1v1.468A13.226,13.226,0,0,0,14.21,50.9h4.4v2.935H5.4a4.409,4.409,0,0,0-4.4,4.4v2.935a4.375,4.375,0,0,0,1.145,2.935A4.375,4.375,0,0,0,1,67.048v2.935a4.375,4.375,0,0,0,1.145,2.935A4.375,4.375,0,0,0,1,75.855V78.79a4.375,4.375,0,0,0,1.145,2.935A4.375,4.375,0,0,0,1,84.661V87.6A4.409,4.409,0,0,0,5.4,92H92V89.065H81.726V44.172ZM14.21,23.016A10.29,10.29,0,0,1,4.04,14.21h4.3a10.29,10.29,0,0,1,10.17,8.806Zm0,24.952A10.29,10.29,0,0,1,4.04,39.161h4.3a10.29,10.29,0,0,1,10.17,8.806ZM34.45,3.935H84.97a4.1,4.1,0,0,1,4.1,4.095,4.179,4.179,0,0,1-.025.452L86.687,29.647a4.1,4.1,0,0,1-2.36,3.258l-3.464-3.9a4.737,4.737,0,0,0-7.08,0L69.977,33.29h-13.2v7.276a1.532,1.532,0,0,1-2.708.98L47.187,33.29h-9.42a13.112,13.112,0,0,0,1.394-5.871V25.952H32.32L30.38,8.485a4.276,4.276,0,0,1-.025-.455A4.1,4.1,0,0,1,34.45,3.935ZM31.823,28.887h4.3a10.29,10.29,0,0,1-10.17,8.806h-4.3A10.29,10.29,0,0,1,31.823,28.887ZM21.548,50.9V40.629h4.4a13.168,13.168,0,0,0,9.818-4.4H45.813l6,7.2a4.467,4.467,0,0,0,7.9-2.859v-4.34h7.657L63.8,40.237a4.654,4.654,0,0,0-1.157,3.15,4.581,4.581,0,0,0,7.82,3.239l2.454-2.454V89.065H59.71V64.721l2.454,2.454A4.552,4.552,0,0,0,65.4,68.516a4.659,4.659,0,0,0,3.424-7.731L58.847,49.559a4.736,4.736,0,0,0-7.08,0L41.786,60.786a4.654,4.654,0,0,0-1.157,3.15,4.581,4.581,0,0,0,7.82,3.239L50.9,64.721V89.065H38.891a4.354,4.354,0,0,0,.27-1.468V84.661a4.375,4.375,0,0,0-1.145-2.935,4.368,4.368,0,0,0,1.145-2.935V75.855a4.375,4.375,0,0,0-1.145-2.935,4.368,4.368,0,0,0,1.145-2.935V67.048a4.375,4.375,0,0,0-1.145-2.935,4.368,4.368,0,0,0,1.145-2.935V58.242a4.409,4.409,0,0,0-4.4-4.4H21.548ZM56.774,89.065H53.839V57.634L46.374,65.1a1.639,1.639,0,0,1-1.164.481,1.673,1.673,0,0,1-1.645-1.751,1.647,1.647,0,0,1,.415-1.093l9.981-11.227a1.861,1.861,0,0,1,2.692,0l9.981,11.227a1.728,1.728,0,0,1,.415,1.2A1.646,1.646,0,0,1,64.239,65.1l-7.465-7.465ZM5.4,80.258A1.47,1.47,0,0,1,3.935,78.79V75.855A1.47,1.47,0,0,1,5.4,74.387H6.871v2.935H9.806V74.387h2.935v2.935h2.935V74.387h2.935v2.935h2.935V74.387h2.935v2.935h2.935V74.387h2.935v2.935H33.29V74.387h1.468a1.47,1.47,0,0,1,1.468,1.468V78.79a1.47,1.47,0,0,1-1.468,1.468ZM3.935,69.984V67.048A1.47,1.47,0,0,1,5.4,65.581H6.871v2.935H9.806V65.581h2.935v2.935h2.935V65.581h2.935v2.935h2.935V65.581h2.935v2.935h2.935V65.581h2.935v2.935H33.29V65.581h1.468a1.47,1.47,0,0,1,1.468,1.468v2.935a1.47,1.47,0,0,1-1.468,1.468H5.4A1.47,1.47,0,0,1,3.935,69.984Zm0-11.742A1.47,1.47,0,0,1,5.4,56.774H6.871V59.71H9.806V56.774h2.935V59.71h2.935V56.774h2.935V59.71h2.935V56.774h2.935V59.71h2.935V56.774h2.935V59.71H33.29V56.774h1.468a1.47,1.47,0,0,1,1.468,1.468v2.935a1.47,1.47,0,0,1-1.468,1.468H5.4a1.47,1.47,0,0,1-1.468-1.468ZM31.823,89.065H5.4A1.47,1.47,0,0,1,3.935,87.6V84.661A1.47,1.47,0,0,1,5.4,83.194H6.871v2.935H9.806V83.194h2.935v2.935h2.935V83.194h2.935v2.935h2.935V83.194h2.935v2.935h2.935V83.194h2.935v2.935H33.29V83.194h1.468a1.47,1.47,0,0,1,1.468,1.468V87.6a1.47,1.47,0,0,1-1.468,1.468Zm44.032,0V37.086L68.39,44.551a1.639,1.639,0,0,1-1.164.481,1.673,1.673,0,0,1-1.645-1.751A1.647,1.647,0,0,1,66,42.188l9.981-11.227a1.861,1.861,0,0,1,2.692,0l9.981,11.227a1.728,1.728,0,0,1,.415,1.2,1.646,1.646,0,0,1-2.809,1.164L78.79,37.086V89.065Z" transform="translate(-1 -1)"/>
      <path id="Trazado_128014" data-name="Trazado 128014" d="M36.339,19.677H33.4a1.47,1.47,0,0,1-1.468-1.468H29a4.409,4.409,0,0,0,4.4,4.4v2.935h2.935V22.613a4.4,4.4,0,1,0,0-8.806H33.4a1.468,1.468,0,1,1,0-2.935h2.935a1.47,1.47,0,0,1,1.468,1.468h2.935a4.409,4.409,0,0,0-4.4-4.4V5H33.4V7.935a4.4,4.4,0,0,0,0,8.806h2.935a1.468,1.468,0,1,1,0,2.935Z" transform="translate(12.097 0.871)"/>
      <path id="Trazado_128015" data-name="Trazado 128015" d="M41,5H64.484V7.935H41Z" transform="translate(17.71 0.871)"/>
      <path id="Trazado_128016" data-name="Trazado 128016" d="M55,9h2.935v2.935H55Z" transform="translate(24.258 2.742)"/>
      <path id="Trazado_128017" data-name="Trazado 128017" d="M41,9H58.613v2.935H41Z" transform="translate(17.71 2.742)"/>
      <path id="Trazado_128018" data-name="Trazado 128018" d="M41,13H64.484v2.935H41Z" transform="translate(17.71 4.613)"/>
    </g>
  </g>
</svg>
